<?xml version="1.0" encoding="utf-8"?>
<!-- Generator: Adobe Illustrator 17.0.0, SVG Export Plug-In . SVG Version: 6.00 Build 0)  -->
<!DOCTYPE svg PUBLIC "-//W3C//DTD SVG 1.1//EN" "http://www.w3.org/Graphics/SVG/1.1/DTD/svg11.dtd">
<svg version="1.1" id="Layer_1" xmlns="http://www.w3.org/2000/svg" xmlns:xlink="http://www.w3.org/1999/xlink" x="0px" y="0px"
	 width="214.07px" height="201.114px" viewBox="0 0 214.07 201.114" enable-background="new 0 0 214.07 201.114"
	 xml:space="preserve">
<g>
	<g>
		<path fill="#F0A53C" d="M123.971,87.605l-24.296-1.134l10.804,22.979C110.48,109.451,131.33,97.958,123.971,87.605z"/>
		<path fill="#BA8102" d="M105.212,86.73c0,0,4.731,20.2,10.337,14.709s-3.555,9.796-5.07,8.012
			c-1.515-1.784-10.945-23.231-10.945-23.231S104.602,84.413,105.212,86.73z"/>
		<g>
			<path fill="#591B1A" d="M51.368,39.132c-2.051,0.962-1.909,3.251-3.623,5.964c-2.441-4.394-12.053-15.04-11.967-20.484
				S34.828,5.625,51.212,1.37S70.42,31.281,70.42,31.281S55.672,34.282,51.368,39.132z"/>
			<path d="M51.782,38.996l-0.334,0.263l-0.351,0.277c-0.107,0.098-0.258,0.173-0.328,0.289c-0.151,0.236-0.329,0.388-0.439,0.661
				c-0.267,0.478-0.433,1.019-0.603,1.586c-0.182,0.553-0.342,1.143-0.568,1.718c-0.195,0.587-0.484,1.148-0.767,1.715l-0.544,1.093
				l-0.772-1.13c-1.059-1.55-2.323-3.072-3.543-4.609c-1.233-1.536-2.444-3.102-3.636-4.704c-1.156-1.627-2.295-3.283-3.3-5.069
				c-0.956-1.808-1.923-3.695-2.037-6.122c-0.026-0.322-0.011-0.548,0.006-0.796l0.042-0.739l0.088-1.487
				c0.072-1.003,0.184-2.011,0.331-3.015c0.298-2.007,0.793-4.003,1.561-5.885l0.269-0.711l0.337-0.685
				c0.24-0.448,0.415-0.927,0.708-1.346l0.791-1.298c0.289-0.416,0.62-0.802,0.928-1.203l0.473-0.593l0.53-0.543
				c0.359-0.356,0.697-0.738,1.075-1.072l1.187-0.946c0.198-0.157,0.389-0.327,0.595-0.473l0.642-0.402l1.287-0.808
				c0.432-0.264,0.9-0.455,1.351-0.687l1.369-0.666l1.421-0.527l1.429-0.528l1.491-0.371C53.006,0.104,53.579,0.054,54.139,0
				c0.544,0.026,1.097,0.025,1.644,0.089c2.204,0.298,4.257,1.402,5.849,2.845c1.618,1.438,2.859,3.17,3.911,4.952
				c1.051,1.789,1.889,3.665,2.616,5.565c0.738,1.898,1.297,3.846,1.799,5.798c0.514,1.95,0.856,3.934,1.178,5.913
				c0.321,1.989,0.538,3.956,0.669,6.005l0.081,1.273l-1.189,0.203c-0.816,0.139-1.665,0.327-2.501,0.49
				c-0.839,0.172-1.676,0.357-2.511,0.551c-1.668,0.397-3.33,0.817-4.97,1.308c-0.821,0.245-1.637,0.498-2.446,0.776
				c-0.41,0.129-0.799,0.295-1.201,0.441c-0.403,0.146-0.803,0.294-1.191,0.467c-0.387,0.173-0.799,0.314-1.17,0.515
				c-0.376,0.194-0.764,0.377-1.137,0.582l-1.084,0.672L51.782,38.996z M51.274,39.013l0.858-0.994l1.005-0.885
				c0.351-0.274,0.717-0.525,1.078-0.79c0.358-0.273,0.746-0.48,1.121-0.724c0.376-0.242,0.758-0.469,1.152-0.671
				c0.393-0.203,0.78-0.429,1.18-0.615c0.796-0.386,1.595-0.774,2.413-1.106c0.813-0.349,1.637-0.663,2.462-0.977
				c0.825-0.314,1.661-0.595,2.498-0.869c1.683-0.543,3.352-1.047,5.102-1.464l-1.107,1.476c-0.235-1.877-0.58-3.814-0.928-5.709
				c-0.352-1.904-0.812-3.783-1.26-5.655c-0.461-1.87-1.022-3.707-1.627-5.515c-0.618-1.803-1.343-3.56-2.21-5.215
				c-0.869-1.652-1.914-3.19-3.171-4.454c-1.262-1.254-2.749-2.214-4.441-2.625c-0.423-0.095-0.86-0.136-1.295-0.212l-1.284-0.006
				L51.41,2.197l-1.391,0.358l-1.399,0.359c-0.45,0.16-0.892,0.345-1.341,0.516c-0.442,0.184-0.907,0.328-1.334,0.544l-1.259,0.694
				l-0.631,0.349c-0.202,0.128-0.388,0.28-0.583,0.418l-1.15,0.864c-0.364,0.31-0.687,0.666-1.034,0.997l-0.512,0.505
				c-0.162,0.177-0.293,0.379-0.441,0.567c-1.24,1.469-2.056,3.246-2.624,5.063c-0.555,1.831-0.799,3.743-0.834,5.661
				c-0.025,0.959-0.007,1.921,0.03,2.888l0.059,1.469l0.032,0.739c0.009,0.245,0.019,0.511,0.053,0.68l0.069,0.573
				c0.048,0.2,0.118,0.407,0.173,0.61c0.089,0.405,0.291,0.821,0.45,1.237c0.334,0.836,0.756,1.674,1.22,2.498
				c0.904,1.663,1.938,3.302,3.025,4.915c1.058,1.636,2.195,3.236,3.289,4.882c1.091,1.653,2.209,3.284,3.14,5.14l-1.315-0.037
				l0.459-0.699c0.168-0.225,0.29-0.485,0.435-0.73c0.29-0.494,0.526-1.024,0.801-1.566c0.273-0.53,0.562-1.096,0.975-1.594
				c0.089-0.129,0.195-0.252,0.336-0.359l0.384-0.321c0.124-0.113,0.266-0.143,0.398-0.219L51.274,39.013z"/>
		</g>
		<g>
			<path fill="#E0AC97" d="M65.482,32.563c0,0-11.141,3.699-11.878,5.5c-1.073-0.301-3.328-3.889-3.983-12.569
				c3.527-18.004,10.996-3.816,10.996-3.816L65.482,32.563z"/>
			<path d="M65.529,32.705c-1.909,1.204-3.882,2.181-5.816,3.185c-0.978,0.47-1.932,0.983-2.862,1.473
				c-0.458,0.253-0.915,0.499-1.316,0.764c-0.203,0.126-0.397,0.256-0.541,0.374c-0.135,0.081-0.277,0.286-0.16,0.066l-1.589,0.776
				c-0.164-0.058-0.326-0.133-0.478-0.215c-0.135-0.079-0.214-0.151-0.32-0.231c-0.221-0.165-0.311-0.3-0.463-0.458
				c-0.237-0.302-0.434-0.593-0.582-0.889c-0.301-0.592-0.533-1.168-0.693-1.756c-0.337-1.169-0.518-2.328-0.686-3.473L49.54,28.92
				c-0.103-0.561-0.155-1.127-0.253-1.69c-0.095-0.562-0.152-1.128-0.262-1.691l-0.006-0.032l0.016-0.128l0.243-1.979
				c0.094-0.663,0.187-1.329,0.329-1.997c0.117-0.671,0.3-1.34,0.526-2.008c0.221-0.673,0.514-1.333,0.916-1.994
				c0.383-0.654,0.924-1.32,1.715-1.852c0.778-0.543,1.938-0.805,2.911-0.604c0.979,0.179,1.749,0.618,2.399,1.078
				c0.644,0.476,1.186,1,1.663,1.555c0.481,0.55,0.898,1.128,1.277,1.722c0.192,0.296,0.372,0.597,0.541,0.906l0.252,0.469
				l0.126,0.247l0.075,0.157l0.022,0.057l0.045,0.114c0.453,1.224,0.93,2.437,1.344,3.678c0.433,1.233,0.833,2.48,1.205,3.74
				c0.378,1.257,0.717,2.532,0.996,3.834l0.028,0.13L65.529,32.705z M65.231,32.453c-0.738-1.022-1.429-2.066-2.079-3.128
				c-0.69-1.118-1.353-2.248-1.983-3.393c-0.649-1.136-1.235-2.301-1.844-3.454l-0.055-0.109l-0.027-0.055l-0.007-0.014
				c-0.039-0.08,0.049,0.101,0.039,0.082l-0.003-0.004l-0.01-0.016l-0.112-0.179l-0.244-0.372l-0.513-0.738
				c-0.351-0.484-0.717-0.95-1.091-1.382c-0.735-0.848-1.6-1.613-2.225-1.774c-0.302-0.074-0.508-0.08-0.828,0.074
				c-0.311,0.156-0.676,0.474-0.995,0.912c-0.339,0.409-0.621,0.927-0.918,1.446c-0.156,0.253-0.276,0.539-0.414,0.814
				c-0.145,0.271-0.279,0.553-0.4,0.844c-0.518,1.145-0.953,2.364-1.316,3.601l0.009-0.16c-0.003,1.119,0.068,2.236,0.219,3.341
				c0.138,1.108,0.428,2.19,0.772,3.242c0.378,1.042,0.846,2.048,1.387,2.957c0.273,0.452,0.549,0.887,0.85,1.247
				c0.151,0.182,0.293,0.343,0.428,0.463c0.056,0.031,0.136,0.129,0.156,0.115c0.01,0,0.037,0.024,0.025,0.011
				c-0.024-0.025-0.057-0.042-0.092-0.043l-1.589,0.776c0.344-0.73,0.644-0.889,0.924-1.159c0.284-0.229,0.549-0.405,0.814-0.566
				c0.535-0.313,1.053-0.58,1.581-0.817c1.046-0.481,2.114-0.839,3.173-1.204C60.944,33.18,63.046,32.672,65.231,32.453z"/>
		</g>
		<path fill="#1E1E1E" stroke="#000000" stroke-width="3" stroke-miterlimit="10" d="M99.535,86.22c0,0,0.049,0.087,0.141,0.252
			c1.323,2.37,11.509,20.721,10.804,22.979c-0.753,2.414-9.897,16.69,3.586,27.59c6.316,34.591,4.633,42.579-1.907,50.237
			c0,0-11.471,13.74-22.428,2.245s-12.031-10.024-13.909-11.034s-15.815-19.947-11.707-26.215s2.4-2.375,5.848-4.861
			c3.448-2.486-2.419-5.311,0.16-8.501c2.578-3.189-6.366,3.723-9.472,1.931c-3.106-1.792-13.16,17.169-28.649-11.413
			c-3.144-4.923-37.69-25.435-26.252-47.591c10.067-19.499,25.628-7.09,31.655-1.498s19.168-19.263,9.504-36.665
			c9.98-15.904,21.306-10.343,24.292-13.444s40.276,3.554,31.352,29.42c-0.102,2.794,1.644,3.007,1.644,3.007
			s9.931-6.355,14.928-4.233c4.997,2.122,12.013,17.462,14.259-0.539l1.479,3.113l3.775-1.902l1.218,4.82
			c0,0,28.127-42.306,35.885-18.295c-5.566-0.824-22.324,20.548,2.61,25.682c7.358,11.062-13.325,12.481-13.325,12.481l-1.388,1.914
			l-25.512,5.266C138.126,90.969,113.668,83.662,99.535,86.22z"/>
		<g>
			<path fill="#E0AC97" d="M165.794,56.129c0,0,3.759-13.327,15.408-9.154c-1.199-3.657,11.513-9.202,17.893-1.328
				c4.602,9.116,9.47,26.193,0.745,28.09c-8.725,1.896-20.444-2.783-20.444-2.783s-5.24,0.25-8.341-1.298
				S164.397,66.18,165.794,56.129z"/>
			<path d="M165.65,56.086c0.244-0.826,0.575-1.615,0.924-2.397c0.357-0.777,0.73-1.554,1.185-2.286
				c0.21-0.378,0.454-0.735,0.712-1.083c0.235-0.367,0.491-0.719,0.783-1.046c0.281-0.336,0.552-0.686,0.887-0.976
				c0.333-0.29,0.613-0.651,0.989-0.899c0.363-0.262,0.719-0.547,1.101-0.793l1.221-0.635c0.416-0.2,0.871-0.301,1.312-0.455
				c0.443-0.172,0.903-0.226,1.367-0.276c0.461-0.036,0.937-0.16,1.397-0.116c0.462,0.02,0.929,0.042,1.395,0.08
				c0.477,0.005,0.906,0.158,1.36,0.247l1.349,0.316l-1.649,1.605c-0.279-0.786-0.144-1.644,0.126-2.247
				c0.271-0.616,0.644-1.108,1.034-1.499c0.388-0.408,0.809-0.737,1.242-1.024c0.433-0.286,0.875-0.542,1.328-0.759
				c0.9-0.449,1.842-0.766,2.801-0.982c0.478-0.113,0.962-0.195,1.446-0.263c0.486-0.065,0.976-0.087,1.464-0.102
				c1.953-0.032,3.928,0.341,5.692,1.177c0.436,0.215,0.873,0.432,1.274,0.705c0.414,0.251,0.795,0.55,1.176,0.842
				c0.358,0.322,0.724,0.631,1.039,0.991c0.336,0.339,0.624,0.717,0.926,1.08l0.042,0.051l0.023,0.051
				c0.458,0.999,0.874,2.012,1.307,3.016c0.426,1.008,0.801,2.034,1.203,3.05c0.768,2.047,1.473,4.117,2.089,6.228
				c0.6,2.115,1.134,4.268,1.379,6.511c0.118,1.122,0.175,2.265,0.098,3.435c-0.092,1.165-0.302,2.369-0.82,3.541
				c-0.513,1.161-1.386,2.288-2.553,3.019c-1.132,0.761-2.598,1.003-3.556,1.176c-1.108,0.179-2.373,0.297-3.481,0.309
				c-1.143,0.022-2.282-0.015-3.406-0.118c-1.129-0.081-2.246-0.23-3.349-0.435c-1.106-0.191-2.2-0.425-3.284-0.693
				c-1.09-0.247-2.151-0.596-3.214-0.927c-1.067-0.353-2.094-0.711-3.177-1.149l0.632,0.106c-0.578,0.016-1.092-0.005-1.631-0.039
				c-0.533-0.026-1.065-0.089-1.596-0.136c-0.534-0.081-1.064-0.13-1.595-0.251c-0.533-0.134-1.059-0.211-1.59-0.394
				c-0.53-0.184-1.057-0.297-1.575-0.583c-0.521-0.246-1.045-0.507-1.449-0.778c-0.91-0.561-1.828-1.215-2.583-2.059
				c-0.378-0.415-0.714-0.875-0.979-1.362c-0.284-0.479-0.483-0.995-0.658-1.505l-0.229-0.773l-0.149-0.782
				c-0.106-0.518-0.112-1.045-0.173-1.56c-0.112-2.076,0.121-4.113,0.385-6.133l0.001-0.011L165.65,56.086z M165.941,56.162
				l-0.156,1.496c-0.054,0.503-0.046,1.009-0.072,1.512c-0.035,0.504,0.031,1.007,0.042,1.508c0.018,0.502,0.108,0.995,0.157,1.49
				c0.101,0.485,0.189,0.976,0.346,1.439l0.231,0.693l0.295,0.657c0.226,0.42,0.466,0.827,0.765,1.181
				c0.284,0.364,0.612,0.686,0.971,0.967c0.709,0.57,1.545,0.987,2.437,1.354c0.488,0.22,0.908,0.333,1.334,0.456
				c0.406,0.148,0.893,0.195,1.337,0.294c0.445,0.101,0.939,0.11,1.402,0.171l1.432,0.093c0.483,0.006,0.964,0.027,1.446,0.014
				l1.415-0.045l0.315-0.01l0.318,0.116c0.941,0.343,1.975,0.668,2.979,0.962c1.014,0.292,2.039,0.548,3.06,0.804
				c1.021,0.258,2.05,0.483,3.081,0.666c0.515,0.104,1.032,0.179,1.547,0.257c0.515,0.09,1.031,0.165,1.547,0.217
				c1.032,0.132,2.065,0.202,3.09,0.219c1.062,0.023,1.967-0.011,3.007-0.123c1.173-0.161,1.908-0.256,2.629-0.674
				c0.699-0.387,1.269-0.996,1.686-1.791c0.848-1.598,1.086-3.713,1.104-5.781c-0.008-2.091-0.255-4.226-0.682-6.325
				c-0.421-2.104-1.022-4.178-1.758-6.202c-0.738-2.023-1.612-4.001-2.654-5.878l0.065,0.101c-0.302-0.304-0.572-0.638-0.91-0.899
				c-0.313-0.289-0.667-0.523-1.006-0.771c-0.363-0.215-0.713-0.444-1.099-0.611c-0.371-0.191-0.769-0.325-1.16-0.46
				c-1.582-0.52-3.27-0.592-4.905-0.415c-0.818,0.106-1.628,0.27-2.414,0.5c-0.392,0.116-0.78,0.249-1.154,0.405
				c-0.379,0.144-0.75,0.303-1.103,0.485c-0.705,0.355-1.369,0.801-1.853,1.276c-0.259,0.232-0.419,0.487-0.53,0.682
				c-0.106,0.207-0.113,0.302-0.105,0.381l0.241,2.237l-1.89-0.632l-1.104-0.369c-0.37-0.111-0.737-0.292-1.116-0.322
				c-0.377-0.058-0.754-0.134-1.134-0.21c-0.382-0.099-0.758-0.036-1.142-0.066c-0.385-0.015-0.773-0.031-1.148,0.052
				c-0.376,0.069-0.774,0.081-1.146,0.192l-1.12,0.366c-0.362,0.158-0.708,0.357-1.069,0.535c-0.371,0.165-0.673,0.443-1.013,0.668
				c-0.344,0.223-0.635,0.513-0.939,0.793c-0.314,0.27-0.6,0.569-0.869,0.888c-0.275,0.312-0.538,0.636-0.771,0.984
				c-0.248,0.337-0.487,0.681-0.698,1.045c-0.231,0.352-0.427,0.724-0.612,1.102C166.506,54.584,166.188,55.366,165.941,56.162z"/>
		</g>
		<g>
			<path fill="#1E1E1E" d="M203.029,177.254c26.228-40.445-4.804-66.628-13.354-77.854c-14.526-13.901-44.449-21.07-50.907-10.709
				c-11.063-10.334-17.858,3.149-17.858,3.149l-11.184,20.026c-7.257,16.094-1.515,19.963,4.339,25.175
				c0.635,10.387,4.875,18.808,6.519,24.927c-0.498,21.891,17.721,17.442,19.446,16.199c1.724-1.243,1.912,1.786,2.006,3.3
				c0,0,5.511,21.742,23.824,18.437C173.904,198.452,183.164,201.827,203.029,177.254z"/>
			<path d="M202.907,177.166c1.94-3.054,3.723-6.196,5.191-9.496c0.731-1.651,1.38-3.335,1.973-5.037
				c0.58-1.706,1.047-3.448,1.443-5.2c0.762-3.511,1.176-7.091,1.131-10.66c-0.042-3.568-0.517-7.115-1.397-10.552
				c-0.888-3.435-2.151-6.761-3.69-9.953c-1.564-3.181-3.359-6.255-5.387-9.185c-2.024-2.932-4.2-5.771-6.511-8.524l-3.478-4.149
				c-1.168-1.391-2.355-2.773-3.459-4.285l0.124,0.139c-3.236-3.208-7.038-5.893-11.067-8.16c-4.037-2.263-8.323-4.116-12.756-5.515
				c-2.215-0.704-4.48-1.249-6.765-1.667c-2.285-0.416-4.602-0.667-6.916-0.672c-1.156-0.004-2.312,0.054-3.454,0.193
				c-1.14,0.144-2.276,0.345-3.358,0.705c-1.085,0.347-2.123,0.821-3.048,1.448c-0.923,0.629-1.715,1.426-2.294,2.359l-0.306,0.493
				l-0.455-0.393l-1.033-0.894c-0.364-0.269-0.716-0.558-1.09-0.811c-0.751-0.496-1.522-0.971-2.349-1.296
				c-0.821-0.329-1.672-0.594-2.543-0.663c-0.867-0.08-1.743-0.026-2.583,0.196c-1.685,0.44-3.19,1.462-4.44,2.723
				c-0.627,0.632-1.2,1.324-1.716,2.056c-0.257,0.367-0.501,0.743-0.727,1.126c-0.114,0.191-0.222,0.386-0.322,0.576l-0.333,0.627
				l-10.566,19.731l0.044-0.088c-0.93,2.14-1.745,4.321-2.345,6.528c-0.285,1.105-0.52,2.215-0.659,3.322
				c-0.069,0.553-0.107,1.104-0.13,1.652c-0.008,0.547,0.005,1.088,0.052,1.622c0.196,2.14,0.996,4.086,2.364,5.765
				c1.357,1.691,3.16,3.156,4.967,4.742l0.424,0.372l0.054,0.612c0.091,1.039,0.179,2.077,0.334,3.111
				c0.145,1.034,0.316,2.066,0.537,3.09c0.108,0.513,0.208,1.026,0.339,1.536c0.128,0.51,0.236,1.022,0.382,1.529
				c0.268,1.017,0.566,2.029,0.878,3.039c0.63,2.02,1.346,4.024,2.079,6.048c0.733,2.026,1.481,4.07,2.079,6.247l0.05,0.182
				l0.004,0.268c0.011,0.719-0.009,1.444,0.025,2.159c0.052,0.711,0.064,1.432,0.173,2.129c0.069,0.708,0.199,1.396,0.338,2.08
				c0.053,0.349,0.171,0.671,0.253,1.007c0.085,0.336,0.178,0.667,0.303,0.983c0.211,0.652,0.493,1.262,0.787,1.862l0.494,0.861
				l0.559,0.806l0.629,0.741c0.235,0.22,0.45,0.464,0.697,0.67c0.492,0.414,1.01,0.802,1.582,1.109
				c0.556,0.333,1.17,0.573,1.791,0.793c0.628,0.206,1.278,0.367,1.946,0.468c1.333,0.211,2.723,0.226,4.095,0.071
				c0.684-0.08,1.367-0.196,2.018-0.362c0.321-0.084,0.647-0.177,0.92-0.282c0.146-0.05,0.261-0.107,0.341-0.142
				c0.004-0.004,0.008-0.006,0.013-0.006l0.009,0l0.109-0.073l0.143-0.09l0.278-0.15c0.335-0.153,0.822-0.328,1.457-0.215
				c0.633,0.11,1.127,0.529,1.359,0.847c0.482,0.663,0.575,1.156,0.696,1.619c0.198,0.913,0.232,1.722,0.273,2.489l-0.041-0.264
				c0.377,1.428,0.934,2.964,1.557,4.392c0.623,1.446,1.336,2.853,2.156,4.188c1.634,2.668,3.699,5.072,6.229,6.826
				c1.264,0.873,2.646,1.569,4.108,2.05c1.459,0.49,3.001,0.749,4.561,0.783c0.389,0.03,0.78,0.019,1.172-0.002
				c0.391-0.025,0.785-0.005,1.175-0.067l2.412-0.298c1.688-0.192,3.312-0.24,4.924-0.386c3.215-0.253,6.362-0.974,9.305-2.31
				c2.947-1.311,5.689-3.105,8.229-5.136c1.279-1.008,2.505-2.084,3.706-3.187c1.196-1.11,2.362-2.254,3.482-3.443
				C198.696,182.162,200.836,179.693,202.907,177.166z M203.146,177.348c-2.053,2.553-4.178,5.05-6.418,7.446
				c-2.251,2.382-4.561,4.723-7.1,6.819c-1.252,1.068-2.582,2.043-3.936,2.988c-1.359,0.938-2.781,1.795-4.272,2.53
				c-2.968,1.499-6.262,2.397-9.557,2.788c-1.64,0.217-3.289,0.331-4.846,0.58l-2.445,0.415c-0.417,0.084-0.846,0.086-1.27,0.133
				c-0.425,0.042-0.851,0.073-1.28,0.062c-1.712,0.042-3.448-0.163-5.117-0.636c-1.672-0.463-3.277-1.179-4.75-2.097
				c-2.963-1.835-5.334-4.447-7.211-7.283c-0.939-1.424-1.774-2.911-2.483-4.455c-0.713-1.559-1.32-3.092-1.817-4.818l-0.029-0.102
				l-0.012-0.162c-0.054-0.735-0.119-1.438-0.259-1.996c-0.056-0.264-0.188-0.513-0.164-0.454c0.006,0.018,0.176,0.2,0.435,0.244
				c0.261,0.038,0.363-0.019,0.363-0.019c0.011-0.002,0.021-0.008,0.029-0.016c0.005-0.007-0.066,0.044-0.095,0.063l-0.12,0.078
				l-0.229,0.139c-0.257,0.134-0.484,0.235-0.693,0.312c-0.429,0.168-0.828,0.285-1.235,0.397c-0.807,0.214-1.611,0.36-2.423,0.465
				c-1.621,0.202-3.271,0.208-4.92-0.032c-0.824-0.115-1.644-0.306-2.451-0.56c-0.802-0.27-1.601-0.578-2.348-1.006
				c-0.76-0.401-1.465-0.908-2.129-1.458c-0.333-0.274-0.629-0.589-0.942-0.885c-0.293-0.314-0.564-0.647-0.844-0.973l-0.739-1.044
				l-0.629-1.1c-0.371-0.752-0.716-1.515-0.971-2.298c-0.149-0.388-0.261-0.781-0.362-1.176c-0.098-0.395-0.231-0.787-0.294-1.185
				c-0.162-0.793-0.307-1.587-0.385-2.381c-0.118-0.795-0.135-1.584-0.188-2.376c-0.036-0.79-0.015-1.574-0.023-2.362l0.054,0.45
				c-0.547-1.979-1.263-3.99-1.96-6.028c-0.705-2.037-1.411-4.102-2.034-6.205c-0.309-1.053-0.605-2.112-0.871-3.182
				c-0.144-0.531-0.252-1.075-0.378-1.611c-0.129-0.536-0.228-1.081-0.335-1.624c-0.218-1.084-0.384-2.183-0.523-3.283
				c-0.149-1.1-0.228-2.21-0.309-3.319l0.478,0.984c-1.729-1.571-3.632-3.132-5.234-5.172c-0.785-1.025-1.495-2.163-1.972-3.41
				c-0.489-1.241-0.764-2.558-0.853-3.858c-0.041-0.651-0.041-1.296-0.014-1.937c0.041-0.638,0.102-1.27,0.195-1.893
				c0.188-1.246,0.477-2.456,0.815-3.641c0.705-2.36,1.617-4.616,2.633-6.806l0.027-0.058l0.017-0.029l11.257-19.345l0.343-0.598
				c0.124-0.219,0.249-0.428,0.381-0.633c0.262-0.411,0.538-0.809,0.829-1.197c0.584-0.773,1.228-1.503,1.937-2.172
				c1.41-1.331,3.133-2.437,5.089-2.881c0.971-0.223,1.98-0.289,2.968-0.18c0.993,0.093,1.941,0.4,2.84,0.775
				c0.907,0.371,1.728,0.89,2.523,1.43c0.395,0.274,0.762,0.582,1.143,0.872l1.071,0.949l-0.761,0.1
				c0.672-1.057,1.582-1.943,2.606-2.623c1.028-0.678,2.152-1.172,3.305-1.526c2.308-0.718,4.71-0.966,7.086-0.983
				c4.764,0.009,9.469,0.828,14.038,2.073c4.574,1.242,9.024,2.954,13.268,5.111c4.233,2.17,8.281,4.786,11.851,8.055l0.044,0.04
				l0.081,0.099c2.216,2.728,4.715,5.399,7.072,8.176c2.346,2.794,4.637,5.67,6.685,8.73c2.036,3.065,3.91,6.264,5.397,9.655
				c1.513,3.375,2.677,6.917,3.387,10.549c0.725,3.627,1.014,7.334,0.863,11.009c-0.144,3.677-0.758,7.314-1.716,10.837
				c-0.989,3.516-2.264,6.936-3.833,10.215c-0.8,1.631-1.599,3.262-2.504,4.836c-0.879,1.589-1.846,3.129-2.822,4.652l-0.005,0.008
				L203.146,177.348z"/>
		</g>
		<g>
			<path fill="#E0AC97" d="M179.408,129.455c0,0,9.633-6.923,10.684-9.262c1.062-2.364,7.567-6.988-17.184-25.398
				c-14.197-9.719-30.577-2.505-30.577-2.505s-15.392,6.735-20.767,29.717c-3.965,20.447,16.232,26.066,16.232,26.066
				s16.521,13.515,31.345-0.231C174.929,143.892,171.976,144.382,179.408,129.455z"/>
			<path d="M179.321,129.333c2.4-2.032,4.836-4.027,7.086-6.183c0.56-0.539,1.11-1.084,1.635-1.635
				c0.491-0.536,1.059-1.17,1.261-1.637l0.277-0.557l0.309-0.556c0.168-0.332,0.339-0.645,0.442-0.96
				c0.148-0.309,0.182-0.632,0.267-0.945c0.031-0.323,0.053-0.644,0.047-0.969c-0.057-0.331-0.066-0.658-0.147-0.988l-0.303-0.99
				c-0.322-0.643-0.553-1.309-0.991-1.921l-0.582-0.938c-0.202-0.309-0.452-0.599-0.675-0.9c-0.452-0.6-0.907-1.196-1.441-1.75
				c-2-2.292-4.332-4.353-6.653-6.396l-3.61-2.951l-3.697-2.865l-0.229-0.182l-0.114-0.091l-0.057-0.046
				c0.036,0.024-0.121-0.085,0.074,0.047l-0.031-0.02l-0.498-0.315l-0.997-0.63l-0.997-0.63c-0.332-0.198-0.66-0.329-0.99-0.498
				c-0.671-0.301-1.286-0.698-1.992-0.965l-2.113-0.818c-5.758-1.867-12.159-2.012-18.189-0.549
				c-1.497,0.358-3.025,0.819-4.369,1.46c-1.36,0.69-2.667,1.556-3.884,2.513c-2.465,1.885-4.654,4.128-6.545,6.585
				c-1.855,2.483-3.527,5.109-4.804,7.93l-0.504,1.043c-0.155,0.354-0.288,0.718-0.434,1.076l-0.854,2.152
				c-0.487,1.465-0.967,2.933-1.38,4.416l-0.559,2.245l-0.28,1.121l-0.035,0.14l-0.017,0.07l-0.009,0.035
				c0.03-0.154,0.005-0.022,0.011-0.047l-0.041,0.292l-0.082,0.584c-0.133,0.797-0.179,1.528-0.226,2.251
				c-0.049,0.727-0.035,1.487-0.019,2.223c0.13,2.958,0.813,5.865,2.237,8.411c1.391,2.557,3.42,4.752,5.794,6.508
				c1.187,0.879,2.457,1.656,3.776,2.342c1.299,0.675,2.74,1.292,4.037,1.687l0.328,0.1l0.258,0.204
				c0.458,0.362,1.052,0.771,1.607,1.13c0.567,0.368,1.154,0.71,1.741,1.052c1.183,0.667,2.409,1.261,3.668,1.762
				c0.628,0.255,1.266,0.482,1.91,0.68c0.642,0.208,1.294,0.378,1.949,0.529c0.655,0.156,1.316,0.258,1.977,0.37
				c0.663,0.083,1.328,0.162,1.995,0.188c0.666,0.031,1.335,0.041,1.998-0.003c0.667-0.023,1.326-0.112,1.987-0.201
				c0.652-0.128,1.314-0.229,1.952-0.426c0.65-0.156,1.278-0.386,1.912-0.605c0.618-0.259,1.249-0.496,1.845-0.815
				c0.604-0.301,1.2-0.623,1.77-0.994c0.591-0.336,1.129-0.76,1.689-1.151c0.555-0.399,1.073-0.854,1.615-1.278l0.122-0.098
				c0.73-0.474,1.471-0.946,2.103-1.463c0.332-0.253,0.61-0.526,0.88-0.809c0.262-0.284,0.488-0.601,0.702-0.935
				c0.201-0.35,0.398-0.714,0.575-1.108c0.184-0.385,0.353-0.797,0.529-1.201l1.048-2.475c0.724-1.648,1.522-3.262,2.326-4.866
				l1.248-2.384l1.331-2.374L179.321,129.333z M179.529,129.555c-1.381,3.287-2.75,6.567-3.872,9.927l-0.871,2.53
				c-0.152,0.427-0.293,0.854-0.464,1.288c-0.16,0.434-0.356,0.872-0.572,1.312c-0.237,0.438-0.502,0.868-0.82,1.266
				c-0.316,0.387-0.659,0.763-1.016,1.078c-0.71,0.664-1.447,1.204-2.179,1.755l0.122-0.097c-0.549,0.498-1.074,1.026-1.649,1.501
				c-0.589,0.458-1.155,0.948-1.788,1.354c-0.609,0.439-1.252,0.831-1.911,1.201c-0.648,0.387-1.344,0.694-2.029,1.018
				c-0.704,0.284-1.405,0.583-2.139,0.792c-0.722,0.248-1.472,0.396-2.216,0.566c-0.752,0.131-1.506,0.257-2.268,0.313
				c-0.759,0.076-1.525,0.094-2.286,0.086c-0.763-0.003-1.521-0.064-2.28-0.133c-0.754-0.092-1.505-0.207-2.246-0.364
				c-0.741-0.155-1.477-0.333-2.199-0.551c-0.725-0.208-1.44-0.448-2.142-0.716c-1.408-0.529-2.773-1.158-4.093-1.87
				c-0.659-0.359-1.308-0.736-1.937-1.151c-0.642-0.421-1.23-0.819-1.892-1.345l0.585,0.303c-1.71-0.526-3.163-1.175-4.654-1.944
				c-1.475-0.757-2.867-1.676-4.185-2.696c-2.629-2.04-4.916-4.62-6.463-7.632c-1.573-2.999-2.315-6.392-2.326-9.71
				c0.015-0.833,0.035-1.65,0.125-2.488c0.09-0.843,0.188-1.678,0.345-2.428l0.106-0.58l0.053-0.29l0.023-0.12l0.011-0.036
				l0.021-0.072l0.042-0.145l0.338-1.155l0.677-2.307c0.513-1.518,1.116-3.009,1.712-4.491l1.024-2.174
				c0.173-0.36,0.335-0.726,0.518-1.082l0.588-1.047c1.484-2.834,3.352-5.454,5.394-7.894c2.042-2.446,4.345-4.67,6.883-6.596
				c1.273-0.96,2.591-1.849,4.02-2.612c1.482-0.739,2.994-1.17,4.526-1.629c3.068-0.854,6.235-1.399,9.448-1.54
				c3.212-0.135,6.467,0.176,9.633,0.986l2.34,0.733c0.78,0.248,1.544,0.628,2.31,0.96c0.375,0.177,0.781,0.338,1.131,0.53
				l1.019,0.594l1.019,0.594l0.509,0.297l0.032,0.019l0.133,0.091l0.06,0.044l0.119,0.089l0.239,0.177l3.781,2.885
				c1.239,0.995,2.439,2.041,3.659,3.059c2.359,2.147,4.734,4.292,6.769,6.834c0.537,0.601,1.015,1.27,1.486,1.944
				c0.233,0.339,0.486,0.657,0.702,1.013l0.624,1.088c0.441,0.699,0.712,1.544,1.035,2.329l0.317,1.286
				c0.081,0.437,0.084,0.904,0.121,1.352c-0.013,0.456-0.069,0.924-0.147,1.375c-0.132,0.442-0.232,0.901-0.442,1.298
				c-0.177,0.421-0.413,0.784-0.627,1.138l-0.301,0.453c-0.094,0.156-0.211,0.37-0.286,0.479c-0.533,0.934-1.127,1.403-1.721,1.994
				c-0.597,0.55-1.211,1.064-1.841,1.551C184.76,126.08,182.196,127.887,179.529,129.555z"/>
		</g>
		<g>
			<path fill="#F0A53C" d="M66.988,85.559c0,0,13.514-37.178,35.291-25.567l2.295,2.894c0,0-17.466,6.976-21.294,13.293
				c1.445,0.387,5.968,0.327,5.968,0.327s-9.024,3.453-15.365,13.669C70.873,86.782,66.988,85.559,66.988,85.559z"/>
			<path d="M66.847,85.507c0.488-2.036,1.19-4.003,1.955-5.949c0.399-0.965,0.809-1.928,1.249-2.879
				c0.45-0.945,0.925-1.88,1.411-2.811c0.498-0.925,1.033-1.831,1.585-2.728c0.56-0.892,1.115-1.792,1.753-2.639
				c0.61-0.865,1.274-1.695,1.941-2.524c0.678-0.822,1.406-1.604,2.171-2.356c0.764-0.752,1.561-1.476,2.433-2.116
				c0.836-0.68,1.77-1.245,2.699-1.797l1.444-0.75l1.509-0.619c1.028-0.355,2.066-0.67,3.137-0.843
				c0.525-0.127,1.064-0.174,1.602-0.212c0.536-0.051,1.069-0.099,1.607-0.07c1.075-0.035,2.131,0.148,3.185,0.273l1.551,0.363
				c0.52,0.109,1.005,0.328,1.512,0.478c1.028,0.282,1.938,0.83,2.923,1.22l0.072,0.028l0.086,0.103
				c0.789,0.945,1.583,1.887,2.396,2.814l0.537,0.612l-0.798,0.367c-1.9,0.875-3.771,1.862-5.612,2.866
				c-0.919,0.508-1.829,1.03-2.735,1.552c-0.457,0.255-0.905,0.524-1.352,0.792l-1.341,0.802c-0.893,0.535-1.765,1.095-2.625,1.664
				c-0.439,0.275-0.852,0.577-1.27,0.873c-0.416,0.298-0.844,0.585-1.231,0.907c-0.391,0.317-0.803,0.62-1.178,0.947l-1.099,0.993
				l-0.967,1.047c-0.279,0.359-0.506,0.725-0.771,1.078l-0.939-2.336c0.407,0.038,0.81,0.074,1.21,0.137
				c0.22,0.02,0.472,0.023,0.707,0.036l0.716,0.032c0.95,0.041,1.949,0.042,2.907,0.036l7.681-0.05l-7.085,3.157l-1.058,0.471
				c-0.369,0.154-0.728,0.372-1.092,0.557c-0.359,0.202-0.737,0.365-1.083,0.599l-1.056,0.659c-0.35,0.224-0.715,0.425-1.042,0.684
				l-1.017,0.728l-1.02,0.728l-0.951,0.817L80.55,84.07c-0.316,0.275-0.662,0.522-0.939,0.837l-1.76,1.808
				c-0.286,0.309-0.612,0.587-0.858,0.93l-0.788,0.991l-1.595,1.989l-0.688,0.857l-0.677-0.741c-0.443-0.485-0.83-1.037-1.328-1.485
				l-0.723-0.704c-0.255-0.221-0.519-0.432-0.78-0.651c-0.256-0.226-0.537-0.418-0.816-0.616c-0.277-0.201-0.558-0.399-0.854-0.573
				c-0.58-0.365-1.182-0.716-1.802-1.011l-0.128-0.061L66.847,85.507z M67.21,85.465c0.635,0.162,1.261,0.349,1.861,0.609
				c0.336,0.127,0.658,0.28,0.981,0.438c0.324,0.155,0.652,0.306,0.959,0.495c0.312,0.181,0.629,0.357,0.94,0.545l0.892,0.63
				c0.605,0.413,1.114,0.949,1.68,1.427l-1.365,0.116l1.408-2.274l0.714-1.14c0.22-0.396,0.527-0.723,0.804-1.076l1.701-2.093
				c0.27-0.364,0.611-0.66,0.922-0.985l0.965-0.947l0.97-0.946l1.048-0.859l1.052-0.86c0.345-0.295,0.735-0.53,1.108-0.788
				l1.131-0.76c0.368-0.265,0.784-0.468,1.175-0.705c0.402-0.224,0.781-0.47,1.208-0.669c0.425-0.206,0.809-0.423,1.311-0.616
				l0.595,3.107c-1.037,0.001-2.034-0.004-3.077-0.054l-0.779-0.039c-0.263-0.016-0.511-0.02-0.787-0.046
				c-0.588-0.074-1.173-0.175-1.754-0.274l-2.388-0.409l1.449-1.927c0.37-0.492,0.733-1.007,1.124-1.464l1.232-1.238l1.299-1.082
				c0.439-0.347,0.895-0.652,1.342-0.979c0.444-0.333,0.909-0.615,1.367-0.911c0.459-0.294,0.916-0.594,1.387-0.859
				c0.928-0.561,1.878-1.073,2.831-1.572c0.95-0.503,1.923-0.959,2.895-1.407c0.971-0.452,1.962-0.857,2.946-1.27
				c1.978-0.811,3.967-1.558,5.983-2.282l-0.261,0.979c-0.717-1.003-1.453-1.99-2.194-2.974l0.157,0.131
				c-0.449-0.229-0.901-0.454-1.358-0.67c-0.448-0.239-0.92-0.413-1.398-0.572c-0.935-0.394-1.931-0.558-2.912-0.763
				c-0.995-0.111-1.996-0.186-2.989-0.082c-0.248,0.02-0.497,0.017-0.742,0.055l-0.732,0.145c-0.488,0.09-0.971,0.186-1.438,0.359
				c-0.951,0.268-1.848,0.695-2.726,1.129l-1.28,0.732l-1.218,0.835c-0.791,0.589-1.56,1.2-2.296,1.86
				c-0.378,0.316-0.741,0.651-1.087,1.008c-0.346,0.356-0.73,0.667-1.064,1.039c-0.702,0.704-1.357,1.456-2.032,2.196
				c-0.651,0.761-1.302,1.525-1.908,2.331c-0.618,0.794-1.219,1.608-1.809,2.43c-0.593,0.821-1.142,1.675-1.714,2.516
				C71.144,78.347,69.13,81.86,67.21,85.465z"/>
		</g>
		<g>
			<path fill="#E0AC97" d="M94.09,155.891c0,0-1.946-7.646,2.322-7.392c4.269,0.255,2.992,3.218,6.309,3.662
				s8.851,7.634,5.283,10.663c-3.567,3.029-3.931,2.096-5.879-0.438C99.175,158.723,95.739,158.822,94.09,155.891z"/>
			<path d="M93.943,155.925c-0.001-0.002-0.092-0.175-0.264-0.504c-0.158-0.336-0.377-0.835-0.572-1.505
				c-0.193-0.67-0.407-1.503-0.41-2.548c0-0.262,0.024-0.542,0.04-0.829c0.046-0.297,0.098-0.604,0.199-0.926
				c0.22-0.639,0.623-1.405,1.437-1.917c0.184-0.145,0.407-0.195,0.621-0.287c0.216-0.076,0.447-0.173,0.651-0.177
				c0.211-0.026,0.428-0.039,0.645-0.051l0.163-0.008l0.19,0.011l0.227,0.018c0.157,0.016,0.295,0.016,0.472,0.045l0.62,0.128
				c0.41,0.115,0.795,0.242,1.187,0.478c0.794,0.421,1.416,1.222,1.737,1.832c0.351,0.632,0.543,1.07,0.96,1.396
				c0.2,0.177,0.469,0.3,0.767,0.401c0.418,0.146,0.678,0.215,1.085,0.413l0.574,0.295l0.491,0.328
				c0.344,0.198,0.615,0.475,0.942,0.694c1.182,1.004,2.287,2.118,3.251,3.45c0.484,0.664,0.875,1.421,1.18,2.258
				c0.237,0.861,0.397,1.837,0.099,2.865c-0.032,0.258-0.181,0.492-0.285,0.735c-0.122,0.236-0.221,0.494-0.402,0.683
				c-0.319,0.406-0.727,0.838-0.956,1.027c-0.25,0.24-0.576,0.514-0.886,0.768c-0.324,0.249-0.655,0.495-1.049,0.73
				c-0.198,0.117-0.433,0.229-0.664,0.335c-0.284,0.096-0.524,0.2-0.89,0.231c-0.658,0.111-1.561-0.114-2.037-0.479
				c-0.978-0.704-1.3-1.314-1.719-1.85c-0.157-0.226-0.313-0.449-0.466-0.668c-0.201-0.244-0.398-0.485-0.592-0.721
				c-0.392-0.544-0.721-0.755-1.058-1.12c-0.336-0.34-0.767-0.655-1.127-0.967c-0.415-0.292-0.775-0.589-1.157-0.875
				c-0.753-0.559-1.427-1.137-1.894-1.693c-0.227-0.293-0.427-0.544-0.584-0.77c-0.116-0.257-0.215-0.476-0.295-0.653
				c-0.14-0.347-0.215-0.531-0.215-0.531L93.943,155.925z M94.237,155.832c0.042,0.035,0.177,0.148,0.403,0.336
				c0.127,0.11,0.283,0.246,0.466,0.406c0.209,0.122,0.449,0.263,0.719,0.42c0.539,0.297,1.241,0.568,2.092,0.907
				c0.417,0.172,0.908,0.361,1.389,0.582c0.493,0.27,1.014,0.49,1.563,0.856c0.516,0.38,1.189,0.822,1.576,1.228
				c0.222,0.211,0.447,0.426,0.676,0.644l0.085,0.083l0.043,0.041l0.133,0.156l0.157,0.185l0.309,0.37
				c0.383,0.475,0.838,0.988,0.982,1.07c0.079,0.039-0.105-0.023-0.078,0c-0.015,0.02,0.071-0.019,0.125-0.015
				c0.09-0.037,0.181-0.062,0.293-0.115c0.227-0.108,0.486-0.264,0.75-0.43c0.259-0.184,0.516-0.342,0.821-0.575
				c0.36-0.246,0.44-0.363,0.616-0.504c0.104-0.058,0.126-0.163,0.19-0.245c0.044-0.093,0.151-0.156,0.167-0.275
				c0.355-0.804,0.298-2.215-0.209-3.526c-0.471-1.324-1.3-2.6-2.386-3.519c-0.278-0.214-0.548-0.455-0.854-0.611l-0.45-0.246
				l-0.429-0.149c-0.26-0.094-0.727-0.14-1.008-0.15c-0.409-0.021-0.837-0.1-1.26-0.257c-0.433-0.14-0.824-0.404-1.172-0.674
				c-0.321-0.274-0.618-0.565-0.839-0.794c-0.471-0.495-0.803-0.68-1.176-0.843c-0.174-0.083-0.411-0.142-0.606-0.191l-0.298-0.07
				l-0.446-0.06c-0.496-0.066-0.714-0.023-0.929,0.036c-0.187,0.059-0.377,0.268-0.564,0.566c-0.082,0.159-0.15,0.344-0.233,0.517
				c-0.055,0.197-0.122,0.384-0.17,0.579c-0.182,0.791-0.26,1.57-0.315,2.211C94.28,154.951,94.243,155.703,94.237,155.832z"/>
		</g>
		<g>
			<path fill="#591B1A" d="M71.14,93.471c0,0,22.328,0.551,13.598,28.252c-12.435,17.755-18.521,17.869-20.01,18.822
				c-1.49,0.953-19.2,2.697-32.041-8.403S0.699,101.729,1.417,92.242s8.209-22.609,18.773-21.74s16.043,11.291,16.043,11.291
				S44.176,94.206,71.14,93.471z"/>
			<path d="M71.146,93.321c1.573,0.082,3.117,0.383,4.615,0.845c0.751,0.226,1.482,0.513,2.201,0.829
				c0.715,0.322,1.425,0.669,2.091,1.093c0.677,0.405,1.314,0.878,1.917,1.392c0.603,0.514,1.163,1.081,1.684,1.683
				c0.516,0.606,0.99,1.253,1.396,1.943c0.223,0.334,0.395,0.695,0.574,1.054c0.189,0.355,0.355,0.719,0.492,1.096
				c0.326,0.736,0.537,1.51,0.769,2.28c0.165,0.782,0.363,1.566,0.442,2.363c0.131,0.795,0.157,1.594,0.201,2.395
				c0.034,0.8-0.005,1.598-0.016,2.399c-0.071,0.792-0.109,1.594-0.21,2.384c-0.12,0.785-0.201,1.583-0.355,2.362
				c-0.16,0.777-0.294,1.565-0.476,2.337l-0.604,2.302l-0.042,0.161l-0.117,0.162c-2.041,2.827-3.945,5.75-6.297,8.376l-1.714,1.999
				c-0.603,0.642-1.254,1.249-1.879,1.875c-0.646,0.608-1.229,1.271-1.928,1.833l-2.11,1.668c-0.694,0.564-1.521,0.993-2.276,1.491
				c-0.373,0.258-0.795,0.449-1.215,0.64c-0.418,0.188-0.834,0.403-1.252,0.565l-2.423,0.92c-0.278,0.069-0.559,0.132-0.838,0.188
				c-0.277,0.053-0.469,0.061-0.707,0.093c-0.457,0.062-0.907,0.095-1.353,0.115c-3.57,0.199-7.082-0.167-10.526-0.84
				c-3.435-0.707-6.796-1.768-9.966-3.243c-3.184-1.45-6.147-3.347-8.84-5.589c-2.614-2.257-5.213-4.547-7.761-6.886
				c-2.563-2.325-5.085-4.7-7.535-7.155c-2.461-2.443-4.854-4.964-7.148-7.589c-2.274-2.644-4.431-5.406-6.325-8.41
				c-0.938-1.506-1.828-3.068-2.508-4.78c-0.663-1.721-1.226-3.536-1.082-5.703c0.137-1.642,0.473-3.621,0.965-5.322
				c0.232-0.876,0.544-1.725,0.834-2.582c0.356-0.83,0.642-1.693,1.064-2.496c1.569-3.249,3.589-6.381,6.482-8.793
				c1.388-1.255,3.076-2.216,4.848-2.964c1.814-0.683,3.785-1.023,5.738-0.896l0.366,0.006l0.411,0.058l0.64,0.095
				c0.443,0.083,0.816,0.085,1.318,0.234l1.428,0.375c0.478,0.124,0.889,0.322,1.336,0.481c1.748,0.678,3.387,1.606,4.851,2.725
				c1.468,1.117,2.792,2.392,3.97,3.775c1.187,1.399,2.192,2.843,3.088,4.534l-0.055-0.094c0.31,0.495,0.841,1.114,1.326,1.644
				c0.519,0.534,1.04,1.079,1.622,1.567c0.552,0.52,1.176,0.964,1.778,1.436c0.613,0.459,1.271,0.86,1.907,1.296l2.013,1.153
				c0.689,0.355,1.398,0.675,2.099,1.016c0.697,0.351,1.443,0.589,2.165,0.89l1.094,0.427l1.122,0.352
				c0.751,0.227,1.496,0.48,2.258,0.674l2.301,0.534c0.764,0.2,1.543,0.325,2.325,0.433l2.343,0.354
				c0.783,0.102,1.573,0.144,2.361,0.219l2.367,0.17l4.749,0.049L71.146,93.321z M71.135,93.62l-4.761,0.03l-2.383-0.123
				c-0.794-0.041-1.592-0.05-2.386-0.118l-2.378-0.254c-0.794-0.082-1.589-0.159-2.374-0.307l-2.369-0.388
				c-0.788-0.144-1.561-0.359-2.346-0.529l-1.176-0.268l-1.156-0.347c-0.765-0.249-1.555-0.434-2.305-0.738
				c-0.753-0.294-1.516-0.568-2.265-0.881l-2.209-1.041c-0.709-0.405-1.44-0.776-2.135-1.214c-0.686-0.453-1.393-0.878-2.044-1.396
				c-0.672-0.485-1.308-1.029-1.927-1.599c-0.616-0.61-1.176-1.152-1.765-1.967l-0.055-0.094c-1.68-2.681-3.969-5.242-6.579-7.077
				c-1.292-0.957-2.704-1.718-4.18-2.261c-0.368-0.122-0.743-0.298-1.103-0.379l-1.078-0.272c-0.324-0.114-0.826-0.129-1.231-0.198
				l-0.642-0.085l-0.16-0.021l-0.08-0.011l-0.04-0.005c0.027,0.003-0.117-0.014,0.051,0.005l-0.281,0.005
				c-0.749,0.011-1.5-0.027-2.232,0.152c-0.749,0.061-1.455,0.349-2.175,0.567c-1.391,0.598-2.762,1.341-3.938,2.409
				c-2.422,2.027-4.34,4.758-5.808,7.679c-0.4,0.717-0.669,1.498-1.012,2.244c-0.276,0.771-0.58,1.539-0.804,2.326
				c-0.486,1.611-0.775,3.039-0.972,4.832c-0.118,1.293,0.246,2.902,0.81,4.385c0.575,1.506,1.322,2.998,2.164,4.446
				c1.68,2.906,3.708,5.657,5.808,8.349c2.109,2.691,4.333,5.308,6.642,7.853c4.629,5.082,9.521,9.951,14.729,14.464
				c2.579,2.222,5.523,4.01,8.639,5.373c3.129,1.344,6.443,2.242,9.808,2.705c3.356,0.458,6.785,0.604,10.098,0.233
				c0.415-0.042,0.824-0.095,1.219-0.172c0.187-0.036,0.426-0.066,0.571-0.106c0.141-0.039,0.281-0.071,0.424-0.096
				c0.058,0.003,0.185-0.07,0.275-0.104l0.148-0.064l0.074-0.032c0.042-0.021-0.241,0.133-0.1,0.057l0.045-0.023l0.733-0.363
				l1.184-0.521c1.458-0.706,2.824-1.578,4.131-2.583l1.903-1.602c0.633-0.535,1.2-1.172,1.803-1.751
				c0.59-0.599,1.201-1.173,1.775-1.791l1.654-1.933l1.676-1.915c0.561-0.637,1.045-1.346,1.572-2.016
				c1.028-1.362,2.098-2.693,3.148-4.044l-0.159,0.323l0.692-2.174c0.23-0.725,0.411-1.46,0.621-2.192
				c0.203-0.733,0.333-1.477,0.505-2.217c0.152-0.742,0.242-1.491,0.368-2.24c0.064-0.749,0.16-1.503,0.184-2.255
				c0.014-0.752,0.046-1.509-0.018-2.258c-0.014-0.757-0.143-1.495-0.238-2.244c-0.16-0.732-0.298-1.476-0.55-2.185
				c-0.104-0.363-0.238-0.714-0.394-1.057c-0.146-0.347-0.285-0.699-0.475-1.025c-0.339-0.674-0.747-1.313-1.198-1.92
				c-0.452-0.608-0.963-1.174-1.524-1.688c-0.558-0.517-1.154-0.999-1.793-1.418c-1.267-0.858-2.667-1.532-4.137-1.99
				C74.191,94.033,72.663,93.718,71.135,93.62z"/>
		</g>
		<g>
			<path d="M7.207,77.346c0,0,11.162-15.268,27.409,1.702s29.485,13.048,29.485,13.048s13.809-2.22,17.982,13.358
				c-0.294,12.207-9.923,16.409-11.848,17.01c-1.925,0.602-15.757,7.159-31.918-6.864S12.414,96.396,9.815,93.517
				C7.412,90.855,2.261,85.813,7.207,77.346z"/>
			<path d="M7.167,77.316c0.839-1.084,1.826-2.043,2.894-2.898c1.065-0.859,2.24-1.583,3.483-2.161
				c2.485-1.154,5.31-1.615,8.044-1.217c1.367,0.185,2.709,0.558,3.98,1.094c1.284,0.509,2.496,1.182,3.654,1.927
				c1.15,0.758,2.261,1.581,3.292,2.492c1.06,0.872,2.021,1.888,2.984,2.83c0.963,0.974,1.939,1.892,2.959,2.784
				c1.016,0.893,2.06,1.756,3.147,2.557c2.149,1.637,4.426,3.106,6.846,4.295c2.416,1.188,4.961,2.129,7.598,2.671
				c1.318,0.267,2.656,0.445,4,0.483c1.335,0.038,2.709-0.028,3.98-0.326l0.031-0.007l0.002,0c1.059-0.125,2.091-0.112,3.129-0.025
				c1.035,0.087,2.061,0.269,3.064,0.532c2.006,0.526,3.922,1.431,5.56,2.708c0.419,0.306,0.8,0.66,1.183,1.008
				c0.371,0.362,0.737,0.729,1.069,1.127c0.352,0.38,0.65,0.805,0.97,1.212c0.286,0.431,0.598,0.846,0.848,1.299
				c0.273,0.44,0.516,0.896,0.742,1.362c0.248,0.455,0.428,0.941,0.64,1.412c0.201,0.476,0.36,0.968,0.542,1.452l0.45,1.482
				l0.007,0.023l-0.001,0.028c-0.07,2.316-0.416,4.651-1.259,6.834c-0.825,2.183-2.087,4.21-3.705,5.904
				c-1.611,1.701-3.538,3.097-5.666,4.102c-2.177,0.889-4.337,1.694-6.654,2.142c-2.293,0.463-4.65,0.632-6.988,0.476
				c-2.341-0.132-4.655-0.6-6.891-1.29c-4.469-1.424-8.568-3.844-12.148-6.816c-1.791-1.478-3.495-3.019-5.275-4.472
				c-1.759-1.475-3.546-2.925-5.353-4.346c-3.578-2.889-7.264-5.64-10.971-8.372c-1.853-1.368-3.732-2.7-5.558-4.122
				c-0.909-0.703-1.8-1.498-2.542-2.377c-0.769-0.859-1.519-1.748-2.162-2.714c-1.307-1.908-2.129-4.21-2.031-6.544
				c0.076-2.332,0.931-4.563,2.103-6.542l0.002-0.003L7.167,77.316z M7.249,77.374c-1.148,1.979-1.972,4.198-2.026,6.493
				c-0.075,2.298,0.75,4.545,2.054,6.414c0.649,0.943,1.412,1.8,2.196,2.641c0.765,0.868,1.634,1.576,2.567,2.257
				c1.854,1.352,3.782,2.617,5.685,3.917c3.826,2.575,7.558,5.297,11.218,8.11c1.82,1.421,3.616,2.868,5.393,4.347
				c1.794,1.455,3.515,2.999,5.283,4.448c3.522,2.876,7.466,5.277,11.783,6.687c2.158,0.685,4.39,1.156,6.651,1.301
				c2.259,0.164,4.537,0.026,6.768-0.376c2.222-0.383,4.421-1.159,6.515-1.97c2.054-0.926,3.949-2.245,5.534-3.862
				c1.594-1.611,2.854-3.549,3.697-5.66c0.853-2.11,1.264-4.39,1.336-6.672l0.006,0.051l-0.434-1.465
				c-0.176-0.477-0.33-0.964-0.524-1.434c-0.206-0.465-0.38-0.946-0.62-1.394c-0.22-0.459-0.456-0.91-0.721-1.344
				c-0.242-0.448-0.546-0.857-0.824-1.283c-0.313-0.399-0.597-0.825-0.949-1.192c-0.33-0.387-0.692-0.743-1.058-1.095
				c-0.379-0.336-0.755-0.68-1.167-0.975c-1.612-1.233-3.491-2.099-5.455-2.595c-0.982-0.254-1.99-0.401-3-0.463
				c-1.006-0.063-2.037-0.047-3.013,0.092l0.032-0.007c-1.379,0.358-2.753,0.447-4.139,0.444c-1.384-0.007-2.762-0.159-4.121-0.403
				c-1.359-0.246-2.698-0.598-4.009-1.032c-1.316-0.423-2.581-0.983-3.826-1.574c-1.249-0.588-2.44-1.284-3.62-1.995
				c-1.159-0.743-2.311-1.5-3.394-2.349c-1.096-0.832-2.144-1.723-3.163-2.643c-1.02-0.916-2.018-1.882-2.959-2.859l-1.432-1.453
				c-0.464-0.493-0.955-0.955-1.457-1.406c-0.986-0.923-2.05-1.757-3.153-2.532c-1.112-0.76-2.275-1.452-3.514-1.983
				c-1.225-0.558-2.524-0.957-3.852-1.174c-1.327-0.222-2.689-0.259-4.03-0.085c-1.342,0.167-2.651,0.569-3.887,1.121
				c-1.234,0.559-2.405,1.264-3.471,2.107C9.081,75.365,8.089,76.31,7.249,77.374z"/>
		</g>
		<g>
			<path d="M103.362,61.407c0,0-11.745,0.862-10.975,3.265"/>
			<path d="M103.366,61.457c0,0-0.181,0.095-0.5,0.204c-0.319,0.112-0.776,0.241-1.328,0.346c-0.277,0.044-0.576,0.101-0.897,0.118
				c-0.321,0.021-0.667-0.019-1.024-0.036c-0.358-0.029-0.724-0.019-1.087,0.045c-0.365,0.053-0.724,0.181-1.079,0.31
				c-0.355,0.134-0.704,0.282-1.053,0.386c-0.345,0.112-0.685,0.223-1.013,0.33c-0.65,0.217-1.256,0.377-1.751,0.545
				c-0.496,0.165-0.859,0.348-1.032,0.542c-0.089,0.095-0.136,0.203-0.142,0.281c-0.016,0.085-0.025,0.13-0.025,0.13l-0.095,0.031
				c0,0-0.024-0.047-0.069-0.137c-0.049-0.089-0.074-0.257-0.037-0.46c0.034-0.211,0.165-0.433,0.342-0.63
				c0.176-0.207,0.406-0.381,0.662-0.556c0.519-0.327,1.163-0.593,1.872-0.748c0.71-0.149,1.466-0.274,2.241-0.252
				c0.383-0.011,0.766-0.008,1.131-0.073c0.367-0.054,0.722-0.15,1.061-0.277c0.341-0.115,0.67-0.242,0.991-0.3
				c0.32-0.062,0.628-0.075,0.911-0.092c0.569-0.018,1.047,0.023,1.383,0.076c0.336,0.051,0.53,0.118,0.53,0.118L103.366,61.457z"/>
		</g>
		<g>
			<path fill="#E0AC97" d="M77.386,153.255c0,0-5.033,5.04-4.566,8.614c0.467,3.574,2.803,9.777,5.651,10.801
				c2.848,1.024,14.668,10.199,15.114,10.46c1.074,0.628,3.789,5.3,10.847-4.815s2.051-10.841,1.062-12.582
				c-0.989-1.742-6.809-6.8-10.052-8.126C92.199,156.281,81.875,146.104,77.386,153.255z"/>
			<path d="M77.493,153.36c0,0-0.281,0.281-0.776,0.849c-0.489,0.568-1.184,1.434-1.893,2.637c-0.357,0.596-0.723,1.28-0.987,2.059
				c-0.275,0.764-0.489,1.644-0.393,2.478c0.037,0.222,0.042,0.371,0.12,0.639c0.061,0.249,0.125,0.5,0.201,0.727
				c0.139,0.462,0.312,0.965,0.505,1.457c0.364,0.999,0.841,2.014,1.349,3.039c0.526,1.014,1.139,2.032,1.835,2.913
				c0.361,0.401,0.73,0.837,1.103,1.055c0.093,0.085,0.179,0.087,0.265,0.143l0.49,0.244c0.304,0.157,0.611,0.311,0.913,0.482
				c2.606,1.575,4.782,3.478,7.132,5.427c2.315,1.99,4.734,3.915,7.278,5.891c0.576,0.478,1.203,0.808,1.881,0.841
				c0.672,0.015,1.364-0.186,1.993-0.58c1.269-0.761,2.306-1.978,3.243-3.215l0.692-0.948l0.64-0.995
				c0.203-0.327,0.446-0.671,0.615-0.982l0.604-1.046c0.796-1.374,1.474-2.702,1.957-4.073c0.483-1.347,0.644-2.691,0.191-3.445
				c-0.221-0.405-0.609-0.75-1.225-1.28l-0.236-0.207l-0.274-0.271c-0.088-0.085-0.182-0.184-0.289-0.333l-0.149-0.204l-0.072-0.104
				l-0.035-0.052c-0.03-0.047,0.126,0.203,0.05,0.085c-0.23-0.285-0.467-0.645-0.688-0.864l-0.644-0.645l-0.768-0.719
				c-0.499-0.495-1.059-0.942-1.583-1.404c-1.082-0.895-2.165-1.734-3.229-2.51c-0.538-0.333-1.077-0.747-1.593-1.006
				c-0.258-0.137-0.514-0.273-0.768-0.407c-0.238-0.118-0.309-0.149-0.497-0.251c-0.18-0.104-0.403-0.226-0.539-0.319
				c-1.21-0.784-2.165-1.562-3.113-2.318c-1.872-1.501-3.568-2.854-5.235-3.779c-1.643-0.94-3.278-1.443-4.615-1.29
				c-1.353,0.114-2.248,0.844-2.737,1.367c-0.259,0.261-0.416,0.498-0.528,0.653l-0.184,0.254L77.493,153.36z M77.269,153.161
				c0.019-0.028,0.071-0.104,0.161-0.234c0.113-0.164,0.271-0.416,0.54-0.699c0.505-0.563,1.408-1.407,2.892-1.707
				c0.73-0.141,1.564-0.158,2.45-0.053c0.885,0.116,1.824,0.349,2.794,0.674c1.934,0.664,4.008,1.685,6.12,2.923
				c1.055,0.599,2.135,1.313,3.165,1.867c0.141,0.079,0.213,0.1,0.32,0.157c0.105,0.047,0.341,0.14,0.398,0.173
				c0.339,0.161,0.681,0.323,1.026,0.486c0.697,0.327,1.265,0.732,1.917,1.107c0.596,0.412,1.199,0.83,1.811,1.253
				c0.576,0.46,1.169,0.913,1.741,1.406c0.566,0.502,1.153,0.979,1.708,1.532c0.285,0.273,0.558,0.528,0.846,0.832l0.892,1.011
				c0.288,0.339,0.455,0.628,0.69,0.946c-0.062-0.099,0.109,0.17,0.092,0.142l0.006,0.006l0.012,0.012l0.018,0.028
				c-0.003,0.013,0.031,0.054,0.081,0.103l0.127,0.14l0.189,0.18c0.52,0.488,1.315,1.2,1.789,2.208
				c0.493,1.012,0.545,2.127,0.431,3.078c-0.065,0.479-0.148,0.949-0.295,1.37l-0.197,0.651l-0.256,0.602
				c-0.323,0.822-0.75,1.539-1.16,2.285c-0.465,0.698-0.915,1.459-1.399,2.077l-0.729,0.964c-0.267,0.366-0.531,0.649-0.797,0.977
				l-0.796,0.95l-0.857,0.91c-1.169,1.18-2.392,2.361-3.965,3.134c-0.759,0.409-1.682,0.647-2.599,0.56
				c-0.928-0.078-1.766-0.56-2.388-1.107c-2.45-1.937-5.083-3.701-7.631-5.302c-2.561-1.576-5.123-3.117-7.306-4.334
				c-0.316-0.141-0.623-0.298-0.929-0.449l-0.229-0.114l-0.029-0.014c-0.112-0.047,0.122,0.048,0.081,0.031l-0.083-0.036
				l-0.166-0.075c-0.211-0.106-0.461-0.196-0.63-0.328c-0.79-0.482-1.296-1.077-1.772-1.665c-0.899-1.187-1.463-2.419-1.914-3.614
				c-0.867-2.407-1.308-4.641-1.281-6.814c0.289-2.26,1.443-3.65,2.226-4.833C76.039,154.382,77.172,153.256,77.269,153.161z"/>
		</g>
		<g>
			<path d="M50.936,80.645c0,0,0.112-0.056,0.321-0.16c0.214-0.094,0.535-0.222,0.94-0.333c0.814-0.239,1.998-0.439,3.413-0.391
				c0.703,0.05,1.475,0.078,2.253,0.321c0.787,0.199,1.561,0.641,2.342,1.079c0.789,0.415,1.565,0.898,2.437,1.14
				c0.827,0.365,1.756,0.529,2.673,0.789c0.912,0.266,1.884,0.485,2.69,0.987c0.417,0.23,0.831,0.459,1.24,0.684
				c0.391,0.256,0.755,0.543,1.124,0.813c0.368,0.272,0.727,0.546,1.051,0.844c0.301,0.323,0.582,0.652,0.847,0.978
				c0.261,0.33,0.515,0.649,0.742,0.969c0.215,0.331,0.378,0.682,0.556,1c0.315,0.665,0.626,1.249,0.806,1.812
				c0.162,0.574,0.267,1.083,0.344,1.5c0.157,0.832,0.168,1.318,0.168,1.318l-0.275,0.119c0,0-0.402-0.319-0.969-0.893
				c-0.285-0.287-0.619-0.632-0.961-1.038c-0.381-0.37-0.81-0.788-1.278-1.244c-0.221-0.23-0.426-0.486-0.679-0.716
				c-0.266-0.219-0.521-0.459-0.784-0.703c-0.258-0.248-0.515-0.509-0.765-0.789c-0.273-0.256-0.564-0.507-0.835-0.791
				c-0.278-0.281-0.56-0.566-0.846-0.855c-0.314-0.263-0.632-0.529-0.952-0.797c-0.648-0.571-1.306-1.152-1.964-1.732
				c-0.668-0.613-1.459-1.042-2.253-1.407c-0.825-0.292-1.679-0.471-2.541-0.45c-0.856-0.005-1.67,0.035-2.416-0.03
				c-0.741-0.091-1.43-0.229-2.069-0.377c-0.639-0.143-1.228-0.289-1.752-0.441c-0.525-0.142-0.987-0.304-1.37-0.429
				c-0.765-0.263-1.225-0.478-1.225-0.478L50.936,80.645z"/>
		</g>
		<g>
			<path d="M52.442,71.045c0,0-0.241-0.442-0.497-1.209c-0.262-0.767-0.561-1.858-0.743-3.167c-0.084-0.656-0.182-1.363-0.161-2.12
				c0.014-0.756,0.191-1.567,0.337-2.409c0.147-0.842,0.216-1.71,0.088-2.571c-0.108-0.863-0.366-1.721-0.707-2.557
				c-0.329-0.839-0.694-1.662-0.931-2.484c-0.256-0.812-0.509-1.611-0.753-2.385c-0.521-1.521-0.793-2.965-1.095-4.19
				c-0.139-0.615-0.288-1.171-0.41-1.678c-0.146-0.489-0.25-0.946-0.374-1.303c-0.107-0.374-0.215-0.66-0.288-0.864
				c-0.069-0.212-0.106-0.325-0.106-0.325l0.214-0.211c0,0,0.11,0.053,0.316,0.153c0.204,0.106,0.512,0.269,0.841,0.539
				c0.353,0.257,0.726,0.616,1.123,1.062c0.396,0.445,0.773,0.989,1.157,1.599c0.346,0.622,0.708,1.306,0.998,2.057
				c0.287,0.75,0.518,1.562,0.654,2.417c0.148,0.852,0.257,1.735,0.33,2.63c0.099,0.893,0.016,1.823-0.05,2.74
				c-0.077,0.919-0.113,1.822-0.016,2.695c0.066,0.876,0.31,1.718,0.601,2.535c0.29,0.816,0.591,1.61,0.702,2.376
				c0.123,0.766,0.1,1.498,0.08,2.173c-0.056,1.351-0.299,2.479-0.534,3.265c-0.229,0.786-0.474,1.232-0.474,1.232L52.442,71.045z"
				/>
		</g>
		<g>
			<path d="M91.342,124.147c0,0,0.183,0.296,0.324,0.774c0.038,0.127,0.087,0.24,0.088,0.404c-0.003,0.17-0.017,0.363-0.054,0.571
				c-0.037,0.206-0.084,0.439-0.162,0.666c-0.084,0.194-0.192,0.392-0.309,0.599c-0.231,0.43-0.571,0.785-1.002,1.079
				c-0.432,0.281-1.004,0.359-1.54,0.436c-0.551,0.043-1.051,0.154-1.503,0.368c-0.455,0.218-0.874,0.531-1.286,0.907
				c-0.415,0.37-0.835,0.731-1.294,0.965c-0.452,0.223-0.906,0.456-1.336,0.639c-0.873,0.388-1.723,0.465-2.457,0.496
				c-0.375-0.003-0.689,0.016-1.009-0.015c-0.29-0.004-0.557-0.028-0.798-0.053c-0.487-0.029-0.765-0.046-0.765-0.046l-0.189-0.233
				c0,0,0.069-0.308,0.386-0.784c0.155-0.205,0.362-0.463,0.629-0.708c0.251-0.233,0.571-0.475,0.907-0.703
				c0.685-0.433,1.509-0.834,2.429-0.959c0.468-0.069,0.934-0.12,1.422-0.175c0.472-0.071,1.005,0.006,1.523,0.03
				c0.523,0.036,1.038,0.005,1.471-0.19c0.46-0.148,0.793-0.527,1.067-0.918c0.251-0.416,0.448-0.823,0.668-1.09
				c0.197-0.285,0.499-0.433,0.681-0.633c0.112-0.088,0.222-0.173,0.347-0.247c0.08-0.073,0.166-0.135,0.263-0.2
				c0.095-0.065,0.204-0.128,0.315-0.194c0.105-0.076,0.173-0.209,0.269-0.291c0.331-0.371,0.623-0.561,0.623-0.561L91.342,124.147z
				"/>
		</g>
		<path fill="#B28474" d="M180.597,55.509c0,0,2.108-6.745,6.251-1.636s9.577,16.896,0.341,16.999
			c-4.505,0.029-4.854,0.125-5.783-2.21C178.566,63.901,180.597,55.509,180.597,55.509z"/>
		<path fill="#B28474" d="M191.62,42.766c0,0-6.712,0.233-6.972,8.461c-0.26,8.228-2.308,2.855-2.308,2.855l-0.023-7.885
			C182.317,46.196,185.463,41.7,191.62,42.766z"/>
		<g>
			<path d="M128.91,94.86c-0.932,1.287-1.856,2.569-2.749,3.865c-0.905,1.287-1.768,2.598-2.624,3.903
				c-0.836,1.32-1.67,2.634-2.441,3.979c-0.761,1.351-1.529,2.691-2.19,4.079c-0.673,1.382-1.296,2.777-1.872,4.187
				c-0.566,1.413-1.078,2.845-1.467,4.314c-0.381,1.468-0.651,2.977-0.658,4.502c-0.034,1.523,0.213,3.057,0.721,4.5l0.079,0.223
				l-0.119,0.195l-0.608,0.999c-0.197,0.338-0.342,0.697-0.516,1.043c-0.184,0.343-0.291,0.714-0.422,1.074
				c-0.133,0.36-0.209,0.73-0.3,1.095c-0.041,0.368-0.121,0.736-0.109,1.091c-0.011,0.358,0.031,0.704,0.109,1.016
				c0.062,0.321,0.21,0.586,0.353,0.813c0.084,0.104,0.167,0.199,0.257,0.273c0.045,0.033,0.091,0.066,0.132,0.09
				c0.028,0.015,0.117,0.058,0.052,0.011l-1.516,0.932c-0.061-0.908-0.06-1.751-0.043-2.622c0.008-0.865,0.073-1.725,0.141-2.584
				c0.144-1.718,0.378-3.428,0.67-5.13c0.151-0.85,0.32-1.697,0.51-2.541c0.189-0.843,0.382-1.688,0.633-2.517
				c0.48-1.663,1.015-3.317,1.711-4.909c0.671-1.6,1.409-3.176,2.289-4.677c0.418-0.76,0.881-1.498,1.354-2.224
				c0.492-0.717,0.976-1.435,1.508-2.122c0.512-0.699,1.093-1.347,1.645-2.01c0.585-0.639,1.165-1.278,1.796-1.868
				c0.607-0.611,1.271-1.165,1.936-1.708c0.643-0.565,1.362-1.045,2.053-1.54l0.2,0.224c-0.519,0.678-1.091,1.289-1.591,1.965
				l-0.763,0.995c-0.237,0.346-0.476,0.687-0.722,1.021c-0.501,0.661-0.92,1.384-1.39,2.059c-0.431,0.707-0.876,1.398-1.27,2.122
				c-0.424,0.704-0.799,1.436-1.181,2.161c-0.352,0.742-0.747,1.459-1.074,2.211c-0.351,0.74-0.657,1.5-0.978,2.252
				c-0.309,0.757-0.628,1.511-0.898,2.284l-0.815,2.316c-0.258,0.778-0.519,1.554-0.747,2.342c-0.47,1.571-0.926,3.151-1.293,4.757
				c-0.385,1.601-0.693,3.223-0.957,4.852c-0.138,0.814-0.241,1.632-0.36,2.449c-0.109,0.81-0.206,1.651-0.281,2.43l-0.17,1.781
				l-1.346-0.848c-0.402-0.253-0.514-0.433-0.716-0.671c-0.17-0.229-0.298-0.47-0.408-0.713c-0.19-0.491-0.301-0.991-0.302-1.464
				c-0.018-0.474,0.029-0.931,0.125-1.359c0.062-0.44,0.215-0.839,0.333-1.248c0.169-0.385,0.278-0.793,0.465-1.161
				c0.184-0.369,0.336-0.753,0.531-1.109c0.194-0.357,0.362-0.731,0.577-1.074l0.586-1.063l-0.04,0.418
				c-0.587-1.524-0.995-3.124-1.183-4.761c-0.187-1.636-0.191-3.302-0.005-4.945c0.185-1.643,0.538-3.267,1.056-4.825
				c0.5-1.566,1.167-3.066,1.917-4.51c0.768-1.435,1.569-2.846,2.485-4.179c0.904-1.339,1.856-2.64,2.885-3.876
				c1.011-1.249,2.099-2.432,3.221-3.574c1.138-1.13,2.303-2.227,3.581-3.206L128.91,94.86z"/>
		</g>
		<g>
			<path d="M170.609,69.869c0,0-0.109-0.004-0.315-0.012c-0.204-0.019-0.504-0.06-0.855-0.152c-0.715-0.174-1.683-0.546-2.685-1.234
				c-0.488-0.356-1.03-0.739-1.466-1.287c-0.465-0.518-0.774-1.234-1.102-1.931c-0.324-0.702-0.644-1.409-1.13-2.006
				c-0.404-0.656-1.016-1.193-1.542-1.821l-0.825-0.937c-0.253-0.328-0.457-0.686-0.649-1.046c-0.185-0.363-0.386-0.721-0.542-1.091
				c-0.138-0.38-0.273-0.755-0.407-1.124c-0.289-0.739-0.384-1.5-0.419-2.222c-0.017-0.361-0.036-0.711-0.029-1.048
				c0.038-0.339,0.086-0.665,0.135-0.975c0.127-0.62,0.196-1.182,0.385-1.66c0.183-0.478,0.378-0.883,0.544-1.209
				c0.33-0.653,0.589-0.99,0.589-0.99l0.294,0.059c0,0,0.158,0.423,0.31,1.1c0.078,0.339,0.165,0.742,0.225,1.19
				c0.084,0.449,0.227,0.946,0.33,1.476c0.049,0.265,0.096,0.538,0.133,0.819c0.069,0.277,0.14,0.562,0.213,0.856
				c0.127,0.586,0.182,1.209,0.325,1.848c0.055,0.323,0.101,0.655,0.145,0.995c0.058,0.337,0.168,0.664,0.245,1.008
				c0.146,0.715,0.293,1.441,0.441,2.167c0.118,0.77,0.466,1.447,0.841,2.083c0.417,0.61,0.973,1.109,1.597,1.486
				c0.629,0.377,1.234,0.709,1.736,1.089c0.485,0.397,0.892,0.821,1.27,1.222c0.373,0.405,0.715,0.783,1.003,1.148
				c0.295,0.353,0.535,0.697,0.739,0.976c0.401,0.566,0.614,0.961,0.614,0.961L170.609,69.869z"/>
		</g>
		<g>
			<path fill="#E0AC97" d="M180.068,57.274c0,0,1.914-6.124,5.675-1.485s8.695,15.339,0.309,15.432
				c-4.09,0.026-4.407,0.113-5.25-2.007C178.224,64.892,180.068,57.274,180.068,57.274z"/>
			<path d="M179.973,57.243c0.234-0.674,0.514-1.326,0.88-1.956c0.376-0.609,0.846-1.259,1.669-1.58
				c0.842-0.328,1.797-0.04,2.479,0.376c0.349,0.211,0.682,0.453,0.945,0.727c0.289,0.257,0.575,0.551,0.785,0.812
				c0.938,1.147,1.679,2.391,2.238,3.733c0.567,1.335,0.987,2.721,1.366,4.102c0.2,0.689,0.358,1.388,0.491,2.099
				c0.119,0.712,0.207,1.439,0.173,2.192c-0.022,0.749-0.2,1.544-0.641,2.251c-0.432,0.711-1.133,1.27-1.883,1.59
				c-0.753,0.324-1.542,0.468-2.309,0.519c-0.739,0.041-1.401,0.069-2.146,0.083c-0.721-0.012-1.493,0.088-2.535-0.368
				c-0.127-0.065-0.258-0.128-0.376-0.206l-0.313-0.291c-0.226-0.212-0.346-0.413-0.456-0.61c-0.27-0.424-0.357-0.738-0.53-1.105
				l0.075,0.152c-0.133-0.258-0.274-0.512-0.395-0.776c-0.138-0.259-0.2-0.534-0.302-0.8c-0.099-0.267-0.18-0.536-0.236-0.808
				c-0.059-0.271-0.141-0.54-0.178-0.811c-0.068-0.545-0.141-1.084-0.134-1.623c-0.012-0.539,0.024-1.072,0.087-1.599
				c0.111-1.056,0.341-2.081,0.562-3.09l0.34-1.506c0.116-0.5,0.207-1.001,0.342-1.498l0.002-0.006L179.973,57.243z M180.164,57.301
				c-0.094,0.493-0.186,0.992-0.229,1.496c-0.043,0.505-0.079,1.011-0.062,1.519c-0.005,0.506,0.04,1.013,0.083,1.514
				c0.045,0.502,0.109,0.998,0.189,1.489c0.028,0.246,0.096,0.487,0.131,0.729c0.037,0.242,0.077,0.483,0.135,0.717
				c0.094,0.476,0.192,0.939,0.318,1.394c0.048,0.231,0.129,0.446,0.191,0.669c0.059,0.225,0.137,0.439,0.229,0.644
				c0.094,0.203,0.153,0.43,0.272,0.612c0.111,0.189,0.202,0.387,0.301,0.582l0.056,0.111l0.019,0.042
				c0.124,0.268,0.247,0.634,0.368,0.798c0.057,0.114,0.118,0.214,0.163,0.234c0.021,0.025,0.038,0.053,0.054,0.086l0.087,0.043
				c0.228,0.157,0.922,0.249,1.589,0.271c0.659,0.038,1.403,0.052,2.07,0.072c0.637,0.017,1.256-0.032,1.831-0.169
				c0.573-0.14,1.092-0.398,1.486-0.829c0.395-0.428,0.648-1.022,0.774-1.664c0.224-1.303-0.046-2.713-0.53-3.994
				c-0.492-1.292-1.243-2.475-2.012-3.611c-0.39-0.566-0.771-1.134-1.168-1.688c-0.378-0.567-0.779-1.113-1.16-1.658
				c-0.21-0.304-0.39-0.535-0.583-0.79c-0.183-0.274-0.397-0.473-0.602-0.697c-0.423-0.401-0.885-0.736-1.438-0.691
				c-0.557,0.03-1.145,0.445-1.57,0.967C180.72,56.022,180.383,56.647,180.164,57.301z"/>
		</g>
		<path fill="#B28474" d="M173.701,141.062c0,0-19.62,16.909-29.765,2.568c-6.373,2.498-17.876-8.314-21.276-11.587
			c0,0-1.297,6.942,14.381,16.016C149.921,155.514,168.749,155.837,173.701,141.062z"/>
		<path fill="#B28474" d="M178.897,63.436c0,0-13.446,1.798-13.118-6.007c0.11-0.864-2.441,9.173,4.079,11.796
			c8.113,3.263,11.838,2.539,11.838,2.539S178.426,67.953,178.897,63.436z"/>
		<path fill="#B28474" d="M101.778,180.709c0.285-0.72-6.245-1.331-15.807-7.809c-3.945-2.672-7.341-7.675-12.669-11.991
			c-0.238-0.193,0.708,8.295,4.117,11.141c3.409,2.846,5.672,3.409,5.672,3.409s7.492,5.59,11.283,8.323
			C98.164,186.513,101.375,181.726,101.778,180.709z"/>
		<path fill="#B75E5E" stroke="#B75E5E" stroke-miterlimit="10" d="M144.299,97.165c3.54,2.564,2.916,9.466-1.394,15.416
			c-4.31,5.95-10.673,8.695-14.213,6.131s4.442-3.479,8.752-9.429C141.754,103.333,140.759,94.601,144.299,97.165z"/>
		<text transform="matrix(-0.4286 0.5302 -0.7777 -0.6287 161.8858 101.918)" font-family="'ChangChang'" font-size="18">X</text>
		<text transform="matrix(-0.4286 0.5302 -0.7777 -0.6287 147.0967 122.6191)" font-family="'ChangChang'" font-size="18">X</text>
	</g>
</g>
</svg>
