<?xml version="1.0" encoding="utf-8"?>
<!-- Generator: Adobe Illustrator 17.0.0, SVG Export Plug-In . SVG Version: 6.00 Build 0)  -->
<!DOCTYPE svg PUBLIC "-//W3C//DTD SVG 1.1//EN" "http://www.w3.org/Graphics/SVG/1.1/DTD/svg11.dtd">
<svg version="1.1" id="Layer_1" xmlns="http://www.w3.org/2000/svg" xmlns:xlink="http://www.w3.org/1999/xlink" x="0px" y="0px"
	 width="264.253px" height="71.209px" viewBox="0 0 264.253 71.209" enable-background="new 0 0 264.253 71.209"
	 xml:space="preserve">
<g>
	<path fill="#FFFFFF" d="M27.295,42.121c-1.997,3.647-2.995,8.472-2.995,14.471c0,4.656,0.638,9.217,1.915,13.681
		c-2.226-2.017-4.255-4.464-6.087-7.345c-2.521-3.07-6.12-4.607-10.8-4.607c-0.655,0-1.326,0.025-2.013,0.072l-1.08,4.392
		c-0.033-1.199-0.098-2.592-0.196-4.176c-1.244,0.241-2.455,0.576-3.633,1.008C3.454,57.601,4.598,55.729,5.842,54
		C4.827,36.721,2.88,23.904,0,15.553l8.346-3.096L6.775,1.368c7.527,0.673,13.958,5.353,19.292,14.04l5.007,0.936
		c-1.637,4.801-3.649,8.953-6.038,12.457c-2.749,3.984-5.694,6.6-8.836,7.848c1.309-3.647,1.964-7.584,1.964-11.809
		c0-2.398-0.213-4.823-0.638-7.271c-1.276,0.24-2.472,0.648-3.584,1.225c-0.425,9.119-1.947,19.416-4.565,30.887
		c1.44-1.486,2.929-2.735,4.467-3.743c-0.458-2.544-0.736-5.136-0.834-7.776L27.295,42.121z"/>
	<path fill="#FFFFFF" d="M56.504,45.937c1.407,5.569,2.847,9.575,4.32,12.024L50.22,66.889c-1.408-5.664-2.209-11.76-2.406-18.288
		c-2.945,0.769-5.744,1.224-8.395,1.368c-1.505,6.096-3.109,12.049-4.811,17.855c0.425-5.855,0.769-11.808,1.031-17.855
		c-2.521-0.096-5.007-0.456-7.462-1.08l4.615-16.633c0.916,0.913,1.963,1.801,3.142,2.664c0-9.839-0.41-16.992-1.227-21.455
		c-2.356-0.24-4.991-0.408-7.904-0.504c6.807-3.553,11.421-5.808,13.844-6.769c5.334-2.112,10.456-3.168,15.365-3.168
		c1.244,0,2.487,0.071,3.731,0.216l-3.436,17.208c-1.473-1.151-3.191-2.184-5.155-3.096c1.44,9.841,2.995,18.36,4.664,25.56
		c1.768,0.385,3.698,0.769,5.793,1.152L56.504,45.937z M48.6,16.344c-0.884-0.334-1.816-0.647-2.798-0.936
		c-0.229,3.456-0.72,7.344-1.473,11.664c-0.262,1.537-1.015,5.328-2.258,11.376c1.768,0.817,3.665,1.561,5.695,2.231v-6.119
		C47.831,30.145,48.109,24.073,48.6,16.344z"/>
	<path fill="#FFFFFF" d="M100.047,18.145c0,12.816-2.242,30.217-6.726,52.199c0.099-11.423-0.213-22.007-0.933-31.752
		c-0.393-5.135-0.883-9.814-1.473-14.039c-2.88,6.145-5.842,14.832-8.885,26.063c1.014,4.32,2.045,8.496,3.093,12.528
		c-4.877-9.072-8.836-17.184-11.88-24.336c-1.015-2.4-1.997-4.799-2.945-7.2c-1.146,10.321-1.866,21.937-2.16,34.849
		c-2.16-11.521-3.666-21.264-4.516-29.232c-1.047-9.84-1.571-16.488-1.571-19.944c0-4.176,0.312-8.353,0.933-12.528l7.314,4.32
		l5.989-0.145c-0.131,1.105-0.197,2.377-0.197,3.816c0,4.993,0.9,12.456,2.7,22.393c0.36,1.92,1.112,5.568,2.258,10.943
		c0.229-11.903,1.063-21.672,2.503-29.304c0.916-4.848,2.242-9.335,3.977-13.464l3.829,5.111l7.56-4.463
		C99.67,8.617,100.047,13.346,100.047,18.145z"/>
	<path fill="#FFFFFF" d="M109.963,52.561c4.549-4.655,9.605-7.2,15.169-7.633l-2.995,20.953c-2.684-3.312-6.48-4.969-11.389-4.969
		c-0.917,0-1.833,0.049-2.749,0.145l-1.129,4.824c-0.033-1.345-0.082-2.881-0.147-4.608c-1.375,0.288-2.7,0.696-3.977,1.224
		c1.178-2.111,2.438-4.055,3.78-5.832c-0.263-5.135-0.589-9.791-0.982-13.968c-1.08,0.673-2.111,1.394-3.093,2.16
		c0.753-2.16,1.653-4.248,2.7-6.265c-1.014-9.504-2.503-17.23-4.467-23.184l8.444-3.096l-1.62-11.16
		c8.836,0.673,16.298,6.553,22.386,17.641c-2.651-1.104-5.302-1.656-7.953-1.656c-2.684,0-5.089,0.528-7.217,1.584
		c-0.131,2.688-0.311,5.424-0.54,8.207c3.142-2.639,6.512-4.343,10.112-5.111l-1.375,21.24c-2.226-1.968-4.975-2.952-8.247-2.952
		c-0.753,0-1.506,0.048-2.258,0.144C111.763,43.945,110.945,48.049,109.963,52.561z"/>
	<path fill="#FFFFFF" d="M175.596,17.641c-0.229,10.561-1.947,23.952-5.154,40.176l2.307,7.2c-1.963,0.575-3.927,0.864-5.891,0.864
		c-4.156,0-8.231-1.321-12.224-3.961c-0.066,1.825-0.131,3.432-0.196,4.824l-1.325-5.832c-1.964-1.439-3.862-3.168-5.695-5.184
		c1.473,0.097,2.978,0.024,4.517-0.217c-1.866-8.398-3.208-15.695-4.025-21.887c-1.112-8.305-1.571-16.464-1.375-24.48l8.247,3.023
		L153.015,0c6.316,0.433,12.027,3.505,17.133,9.217l5.302-2.232c0.13,3.168,0.179,6.457,0.147,9.863
		c0.295,0.529,0.474,0.865,0.54,1.009C175.874,17.761,175.694,17.689,175.596,17.641z M168.036,50.545
		c-1.178-14.256-2.962-25.535-5.351-33.84c-1.113,0.336-2.16,0.768-3.142,1.295c-2.324,8.881-3.862,21.168-4.614,36.864
		c5.334-1.584,9.18-4.608,11.536-9.071L168.036,50.545z"/>
	<path fill="#FFFFFF" d="M203.676,9.652c0,4.902-0.458,10.02-1.375,15.354c-1.931,11.198-5.319,24.63-10.162,40.296
		c0.032,0.385,0.049,0.674,0.049,0.865c-0.066-0.273-0.115-0.467-0.147-0.576c-0.066,0.24-0.115,0.433-0.147,0.576
		c0.032-0.432,0.049-0.768,0.049-1.008c-2.324-9.839-4.713-18.672-7.167-26.496c-3.699-11.76-6.873-19.271-9.524-22.535
		l9.524-11.232c1.931,5.137,3.338,10.537,4.222,16.199c1.636,10.609,2.667,24.673,3.093,42.193
		c0.949-11.855,1.424-22.584,1.424-32.185c0-9.743-0.606-16.655-1.816-20.736l11.929-3.96
		C203.659,7.514,203.676,8.596,203.676,9.652z"/>
	<path fill="#FFFFFF" d="M213.739,52.561c4.549-4.655,9.605-7.2,15.169-7.633l-2.995,20.953c-2.684-3.312-6.48-4.969-11.389-4.969
		c-0.917,0-1.833,0.049-2.749,0.145l-1.129,4.824c-0.033-1.345-0.082-2.881-0.147-4.608c-1.375,0.288-2.7,0.696-3.977,1.224
		c1.178-2.111,2.438-4.055,3.78-5.832c-0.263-5.135-0.589-9.791-0.982-13.968c-1.08,0.673-2.111,1.394-3.093,2.16
		c0.753-2.16,1.653-4.248,2.7-6.265c-1.014-9.504-2.503-17.23-4.467-23.184l8.444-3.096l-1.62-11.16
		c8.836,0.673,16.298,6.553,22.386,17.641c-2.651-1.104-5.302-1.656-7.953-1.656c-2.684,0-5.089,0.528-7.217,1.584
		c-0.131,2.688-0.311,5.424-0.54,8.207c3.142-2.639,6.512-4.343,10.112-5.111l-1.375,21.24c-2.226-1.968-4.975-2.952-8.247-2.952
		c-0.753,0-1.506,0.048-2.258,0.144C215.539,43.945,214.721,48.049,213.739,52.561z"/>
	<path fill="#FFFFFF" d="M263.517,57.816l-8.1,13.393c-1.963-3.697-3.485-7.705-4.565-12.024c-0.557-2.16-1.293-6.023-2.209-11.593
		c-0.294-1.823-0.589-4.007-0.884-6.551c-1.309-0.289-2.684-0.695-4.124-1.225c-0.982,7.393-2.798,17.473-5.449,30.24
		C237.433,54.36,236.696,43.01,235.977,36c-2.062-1.391-3.959-2.951-5.694-4.68c1.637,0.24,3.355,0.312,5.154,0.217
		c-0.916-7.393-2.094-13.561-3.535-18.505l9.671-3.6l-1.276-9.072c7.134,0.72,13.303,4.968,18.507,12.744l5.4-2.808
		c0.032,0.863,0.049,1.728,0.049,2.592c0,8.64-1.587,15.816-4.762,21.527l1.62,6.984c-2.619,0.432-5.27,0.576-7.953,0.432
		C256.823,49.85,260.277,55.178,263.517,57.816z M253.993,23.545c-0.917-2.208-2.079-4.224-3.485-6.049l2.454-1.296
		c-2.619,0.241-4.926,1.057-6.921,2.448c-0.165,3.217-0.491,6.744-0.982,10.584c0.654-0.24,1.194-0.479,1.62-0.721
		c-0.099-1.391-0.165-2.615-0.197-3.672c0.327,0.961,0.704,2.017,1.129,3.168C249.836,26.809,251.963,25.32,253.993,23.545z"/>
</g>
</svg>
