<?xml version="1.0" encoding="utf-8"?>
<!-- Generator: Adobe Illustrator 17.0.0, SVG Export Plug-In . SVG Version: 6.00 Build 0)  -->
<!DOCTYPE svg PUBLIC "-//W3C//DTD SVG 1.1//EN" "http://www.w3.org/Graphics/SVG/1.1/DTD/svg11.dtd">
<svg version="1.1" id="Layer_1" xmlns="http://www.w3.org/2000/svg" xmlns:xlink="http://www.w3.org/1999/xlink" x="0px" y="0px"
	 width="192.77px" height="233.764px" viewBox="0 0 192.77 233.764" enable-background="new 0 0 192.77 233.764"
	 xml:space="preserve">
<g>
	<g>
		
			<image overflow="visible" width="637" height="678" xlink:href="DAE9EF2DF585C477.png"  transform="matrix(1 0 0 1 -222.0737 -222.0892)">
		</image>
		<g>
			<g>
				<g>
					<path fill="#99583D" d="M17.531,98.835c0,0-4.455,12.594-8.657,10.174s-11.244-7.597-6.669-9.53s9.769-6.583,9.769-6.583
						L17.531,98.835z"/>
					<path d="M17.625,98.869c-0.285,1.699-0.805,3.336-1.478,4.921c-0.332,0.796-0.727,1.567-1.158,2.33
						c-0.457,0.746-0.938,1.496-1.558,2.175c-0.621,0.668-1.373,1.323-2.418,1.635c-0.511,0.161-1.127,0.161-1.654-0.008
						c-0.273-0.074-0.505-0.21-0.732-0.345c-0.208-0.134-0.352-0.247-0.534-0.378l-4.073-3.1c-0.672-0.525-1.335-1.064-1.987-1.642
						c-0.64-0.593-1.269-1.224-1.726-2.118c-0.214-0.447-0.383-1.014-0.272-1.648c0.124-0.635,0.541-1.16,0.967-1.498
						c0.218-0.156,0.442-0.309,0.666-0.417l0.553-0.301l1.119-0.589c0.711-0.421,1.358-0.832,2.036-1.291
						c0.663-0.487,1.351-0.931,2.013-1.427c1.336-0.957,2.683-1.953,3.971-2.957l0.747-0.582l0.538,0.639
						c0.874,1.038,1.725,2.099,2.559,3.175c0.829,1.081,1.635,2.184,2.4,3.324l0.031,0.046L17.625,98.869z M17.403,98.858
						c-1.067-0.826-2.097-1.686-3.103-2.57c-1.019-0.903-2.02-1.823-2.998-2.764l1.285,0.057c-0.63,0.612-1.256,1.184-1.917,1.735
						c-0.665,0.542-1.318,1.1-2.031,1.584c-0.686,0.517-1.423,0.975-2.161,1.422c-0.746,0.438-1.558,0.875-2.325,1.258l-1.156,0.511
						l-0.585,0.249c-0.165,0.058-0.295,0.135-0.431,0.207c-0.252,0.153-0.412,0.309-0.493,0.501
						c-0.086,0.193-0.089,0.493,0.003,0.824c0.186,0.672,0.656,1.365,1.165,1.992c0.513,0.638,1.114,1.22,1.757,1.747
						c0.637,0.536,1.323,1.017,2.034,1.456c0.708,0.443,1.468,0.811,2.216,1.168c0.181,0.083,0.396,0.191,0.56,0.253
						c0.154,0.047,0.3,0.099,0.445,0.099c0.288,0.01,0.553-0.018,0.829-0.167c0.55-0.261,1.097-0.771,1.61-1.331
						c1.029-1.146,1.917-2.542,2.777-3.948L17.403,98.858z"/>
				</g>
				<path fill="#F0A53C" d="M90.303,117.991l14.392,19.607l11.078-22.849C115.773,114.749,93.727,105.76,90.303,117.991z"/>
				<path fill="#BA8102" d="M101.415,133.13c0,0,12.735-16.378,4.94-17.286c-7.795-0.908,9.853-3.393,9.418-1.094
					c-0.435,2.299-11.185,23.116-11.185,23.116S99.997,135.062,101.415,133.13z"/>
				<g>
					<path fill="#591B1A" d="M98.25,204.926c2.037,0.99,3.728-0.559,6.916-0.932c-1.882,4.661-4.119,18.829-8.407,22.184
						s-14.168,12.677-27.777,2.61s11.185-33.742,11.185-33.742S91.772,204.629,98.25,204.926z"/>
					<path d="M97.884,204.69l0.414,0.094l0.436,0.099c0.143,0.021,0.296,0.092,0.431,0.073c0.278-0.031,0.509,0.012,0.79-0.074
						c0.539-0.093,1.065-0.304,1.613-0.529c0.544-0.206,1.104-0.453,1.693-0.638c0.579-0.217,1.197-0.345,1.815-0.482l1.192-0.264
						l-0.393,1.31c-0.54,1.797-0.929,3.737-1.357,5.652c-0.419,1.925-0.876,3.851-1.373,5.785c-0.538,1.922-1.11,3.849-1.867,5.753
						c-0.805,1.88-1.664,3.818-3.481,5.433c-0.234,0.223-0.419,0.353-0.623,0.496l-0.601,0.432l-1.212,0.866
						c-0.825,0.575-1.68,1.121-2.553,1.638c-1.748,1.03-3.611,1.9-5.558,2.486l-0.722,0.238l-0.744,0.168
						c-0.499,0.095-0.982,0.26-1.491,0.295l-1.507,0.201c-0.505,0.037-1.013,0.022-1.519,0.034l-0.759,0.005l-0.756-0.071
						c-0.503-0.055-1.012-0.078-1.51-0.162l-1.482-0.328c-0.247-0.056-0.499-0.096-0.742-0.165l-0.716-0.247l-1.438-0.493
						c-0.477-0.17-0.92-0.414-1.383-0.619l-1.378-0.646l-1.303-0.774l-1.309-0.779l-1.226-0.926
						c-0.396-0.365-0.795-0.78-1.189-1.181c-0.322-0.439-0.67-0.869-0.964-1.335c-1.154-1.901-1.585-4.192-1.464-6.337
						c0.101-2.163,0.668-4.216,1.392-6.154c0.73-1.942,1.663-3.773,2.683-5.533c1.012-1.767,2.176-3.427,3.378-5.044
						c1.193-1.626,2.521-3.139,3.858-4.633c1.345-1.5,2.738-2.906,4.249-4.295l0.939-0.863l0.906,0.797
						c0.621,0.547,1.301,1.089,1.954,1.637c0.661,0.545,1.331,1.079,2.007,1.606c1.357,1.047,2.729,2.076,4.142,3.043
						c0.707,0.484,1.416,0.959,2.141,1.414c0.358,0.238,0.732,0.436,1.098,0.657c0.367,0.221,0.733,0.44,1.112,0.632
						c0.378,0.192,0.746,0.424,1.136,0.586c0.387,0.171,0.773,0.357,1.167,0.518l1.204,0.421L97.884,204.69z M98.216,205.075
						l-1.312-0.042l-1.32-0.226c-0.433-0.101-0.859-0.228-1.292-0.342c-0.438-0.106-0.843-0.279-1.268-0.416
						c-0.424-0.14-0.841-0.295-1.246-0.474c-0.405-0.178-0.824-0.337-1.22-0.532c-0.801-0.376-1.604-0.754-2.377-1.181
						c-0.782-0.413-1.545-0.856-2.308-1.301c-0.763-0.444-1.507-0.918-2.246-1.397c-1.48-0.967-2.922-1.948-4.346-3.048l1.844-0.066
						c-1.312,1.363-2.601,2.849-3.856,4.311c-1.26,1.471-2.431,3.01-3.606,4.535c-1.165,1.534-2.24,3.125-3.266,4.732
						c-1.014,1.614-1.924,3.282-2.666,4.997c-0.738,1.714-1.278,3.494-1.47,5.267c-0.181,1.77,0.006,3.53,0.75,5.104
						c0.192,0.388,0.435,0.754,0.649,1.14l0.802,1.002l1.037,0.976l1.153,0.857l1.159,0.862c0.408,0.25,0.829,0.477,1.244,0.718
						c0.421,0.228,0.826,0.499,1.262,0.695l1.331,0.543l0.668,0.271c0.227,0.077,0.461,0.126,0.692,0.191l1.395,0.351
						c0.47,0.088,0.95,0.115,1.425,0.177l0.715,0.081c0.239,0.015,0.479-0.01,0.718-0.014c1.922,0.041,3.817-0.442,5.587-1.143
						c1.773-0.72,3.413-1.732,4.927-2.91c0.762-0.583,1.498-1.202,2.227-1.839l1.106-0.969l0.555-0.489
						c0.185-0.161,0.386-0.336,0.496-0.468l0.402-0.414c0.125-0.164,0.243-0.347,0.366-0.518c0.259-0.324,0.455-0.743,0.679-1.127
						c0.44-0.785,0.827-1.64,1.176-2.519c0.724-1.749,1.35-3.583,1.921-5.442c0.607-1.851,1.137-3.741,1.729-5.627
						c0.599-1.888,1.165-3.782,2.023-5.673l0.798,1.046l-0.832,0.083c-0.28,0.011-0.56,0.08-0.841,0.121
						c-0.567,0.085-1.127,0.235-1.721,0.362c-0.584,0.121-1.206,0.252-1.852,0.244c-0.157,0.012-0.318,0.006-0.49-0.035
						l-0.491-0.097c-0.165-0.025-0.278-0.117-0.42-0.172L98.216,205.075z"/>
				</g>
				<g>
					<path fill="#E0AC97" d="M84.268,198.08c0,0,9.88,6.338,11.745,5.779c0.441,1.024-0.932,5.033-7.27,10.999
						c-16.219,8.575-9.88-6.152-9.88-6.152L84.268,198.08z"/>
					<path d="M84.349,197.954c2.137,0.728,4.137,1.648,6.133,2.521c0.981,0.465,1.979,0.885,2.945,1.299
						c0.485,0.197,0.963,0.398,1.422,0.544c0.226,0.079,0.449,0.148,0.631,0.186c0.148,0.054,0.397,0.036,0.152,0.082l1.603,0.748
						c0.057,0.164,0.102,0.337,0.134,0.507c0.023,0.155,0.017,0.261,0.022,0.394c0.01,0.275-0.038,0.431-0.065,0.648
						c-0.086,0.374-0.188,0.71-0.325,1.012c-0.271,0.606-0.574,1.148-0.93,1.643c-0.697,0.997-1.485,1.866-2.27,2.717l-2.343,2.513
						c-0.371,0.433-0.78,0.829-1.155,1.259c-0.378,0.427-0.782,0.827-1.151,1.267l-0.021,0.025l-0.109,0.068l-1.692,1.056
						c-0.574,0.344-1.151,0.69-1.76,0.999c-0.595,0.33-1.23,0.609-1.892,0.853c-0.662,0.251-1.359,0.439-2.127,0.541
						c-0.75,0.114-1.607,0.111-2.519-0.169c-0.912-0.264-1.845-1.001-2.3-1.884c-0.476-0.874-0.619-1.748-0.67-2.543
						c-0.035-0.801,0.032-1.552,0.164-2.27c0.126-0.72,0.312-1.407,0.536-2.076c0.11-0.335,0.23-0.665,0.365-0.99l0.207-0.491
						l0.113-0.253l0.075-0.157l0.03-0.053l0.06-0.106c0.667-1.122,1.31-2.255,2.016-3.357c0.687-1.112,1.405-2.207,2.151-3.289
						c0.74-1.084,1.518-2.15,2.355-3.184l0.083-0.103L84.349,197.954z M84.34,198.344c-0.331,1.216-0.708,2.41-1.126,3.583
						c-0.436,1.239-0.898,2.465-1.392,3.675c-0.476,1.219-1.013,2.407-1.527,3.606l-0.051,0.111l-0.025,0.056l-0.006,0.014
						c-0.038,0.081,0.048-0.102,0.039-0.082l-0.001,0.004l-0.006,0.018l-0.069,0.2l-0.136,0.424l-0.251,0.863
						c-0.156,0.577-0.288,1.155-0.389,1.717c-0.197,1.104-0.248,2.259,0.019,2.845c0.132,0.281,0.257,0.446,0.578,0.597
						c0.317,0.143,0.794,0.228,1.335,0.2c0.531,0.006,1.111-0.099,1.702-0.195c0.295-0.037,0.593-0.124,0.893-0.19
						c0.303-0.058,0.606-0.131,0.908-0.22c1.216-0.316,2.438-0.745,3.628-1.24l-0.13,0.093c0.872-0.701,1.696-1.459,2.46-2.271
						c0.775-0.804,1.434-1.709,2.036-2.639c0.573-0.949,1.061-1.946,1.427-2.937c0.18-0.496,0.344-0.985,0.435-1.445
						c0.047-0.231,0.083-0.443,0.091-0.624c-0.011-0.063,0.015-0.187-0.009-0.193c-0.006-0.007-0.004-0.044-0.007-0.027
						c-0.004,0.034,0.004,0.071,0.025,0.099l1.603,0.748c-0.784,0.191-1.096,0.059-1.482,0.01c-0.356-0.077-0.66-0.173-0.952-0.277
						c-0.58-0.219-1.113-0.455-1.629-0.716c-1.032-0.511-1.982-1.117-2.931-1.711C87.6,201.221,85.884,199.906,84.34,198.344z"/>
				</g>
				<path fill="#1E1E1E" stroke="#000000" stroke-width="3" stroke-miterlimit="10" d="M104.588,137.866
					c0,0,0.037-0.093,0.107-0.268c1.011-2.519,8.879-21.977,11.078-22.849c2.351-0.932,19.201-2.796,19.201-20.134
					c22.93-26.658,30.2-30.371,40.267-30.099c0,0,17.897,0.282,15.846,16.03s-0.232,15.658,0.164,17.754
					c0.396,2.095-5.57,24.839-13.027,25.584s-3.356-0.373-7.457-1.491c-4.101-1.119-2.61,5.22-6.711,5.22
					c-4.101,0,6.898,2.61,7.457,6.152c0.559,3.542,21.625-0.559,9.135,29.455c-1.852,5.54,3.915,45.301-20.506,50.334
					c-21.492,4.43-21.625-15.473-21.066-23.676c0.559-8.203-27.031-2.796-34.488,15.659c-18.642,2.237-21.439-10.067-25.726-10.44
					c-4.288-0.373-22.557-33.556,3.169-42.877c2.237-1.678,1.305-3.169,1.305-3.169s-11.185-3.728-12.677-8.948
					c-1.491-5.22,6.028-20.32-9.383-10.75l1.491-3.107l-3.853-1.74l2.983-3.977c0,0-50.582,4.723-36.787-16.405
					c2.858,4.847,30.014,4.443,18.331-18.176c3.977-12.677,18.083,2.516,18.083,2.516l2.361-0.124l20.134,16.529
					C84.019,104.869,93.713,128.483,104.588,137.866z"/>
				<g>
					<path fill="#E0AC97" d="M39.532,105.255c0,0-12.727,5.455-16.806-6.227c-2.09,3.231-14.394-3.168-12.281-13.08
						c4.197-9.31,14.417-23.831,21.376-18.239s10.688,17.648,10.688,17.648s3.489,3.918,4.234,7.303
						C47.489,96.045,48.226,100.022,39.532,105.255z"/>
					<path d="M39.589,105.394c-0.796,0.329-1.617,0.568-2.445,0.788c-0.829,0.211-1.667,0.409-2.523,0.516
						c-0.426,0.074-0.856,0.109-1.29,0.127c-0.433,0.048-0.868,0.07-1.306,0.049c-0.438-0.007-0.88,0.002-1.317-0.076
						c-0.435-0.077-0.892-0.067-1.321-0.204c-0.432-0.118-0.878-0.215-1.309-0.358l-1.262-0.551
						c-0.417-0.197-0.782-0.488-1.179-0.735c-0.412-0.236-0.743-0.56-1.074-0.89c-0.318-0.336-0.713-0.629-0.968-1.014
						c-0.275-0.372-0.552-0.749-0.815-1.136c-0.296-0.374-0.447-0.804-0.662-1.213l-0.602-1.248l2.285,0.274
						c-0.436,0.711-1.188,1.146-1.827,1.315c-0.65,0.177-1.266,0.196-1.816,0.138c-0.562-0.045-1.082-0.166-1.578-0.322
						c-0.495-0.157-0.972-0.34-1.425-0.555c-0.915-0.418-1.753-0.951-2.524-1.561c-0.389-0.301-0.756-0.625-1.114-0.96
						c-0.356-0.337-0.681-0.704-1-1.074c-1.253-1.499-2.204-3.269-2.663-5.166c-0.107-0.474-0.213-0.95-0.252-1.434
						c-0.065-0.48-0.072-0.964-0.085-1.444c0.026-0.481,0.036-0.96,0.117-1.431c0.052-0.474,0.166-0.936,0.257-1.399l0.013-0.065
						l0.025-0.05c0.489-0.984,1.015-1.945,1.524-2.912c0.516-0.965,1.078-1.902,1.616-2.853c1.109-1.884,2.276-3.734,3.53-5.54
						c1.267-1.796,2.606-3.564,4.197-5.166c0.798-0.797,1.652-1.56,2.609-2.236c0.964-0.66,2.032-1.254,3.269-1.589
						c1.225-0.331,2.651-0.361,3.953,0.087c1.303,0.402,2.413,1.39,3.15,2.025c0.835,0.749,1.723,1.659,2.428,2.513
						c0.736,0.875,1.423,1.784,2.05,2.723c0.647,0.929,1.233,1.891,1.767,2.878c0.547,0.98,1.053,1.978,1.526,2.989
						c0.493,1.003,0.889,2.047,1.299,3.083c0.396,1.051,0.763,2.075,1.104,3.193l-0.315-0.558c0.376,0.44,0.683,0.852,0.995,1.293
						c0.315,0.431,0.601,0.884,0.898,1.327c0.272,0.466,0.568,0.909,0.808,1.398c0.231,0.499,0.502,0.956,0.693,1.484
						c0.19,0.528,0.434,1.008,0.537,1.592c0.136,0.56,0.263,1.132,0.306,1.616c0.136,1.06,0.204,2.185,0.022,3.303
						c-0.085,0.555-0.232,1.105-0.444,1.618c-0.194,0.522-0.47,1.001-0.757,1.458l-0.457,0.664l-0.514,0.608
						c-0.336,0.409-0.743,0.744-1.105,1.116c-1.544,1.393-3.275,2.491-5.011,3.556l-0.009,0.006L39.589,105.394z M39.465,105.12
						l1.262-0.82c0.425-0.274,0.813-0.599,1.221-0.895c0.414-0.29,0.763-0.657,1.147-0.98c0.379-0.329,0.706-0.709,1.06-1.059
						c0.314-0.384,0.641-0.76,0.901-1.174l0.394-0.615l0.326-0.643c0.184-0.44,0.35-0.882,0.437-1.337
						c0.105-0.45,0.148-0.907,0.142-1.363c-0.002-0.91-0.204-1.822-0.479-2.747c-0.135-0.518-0.312-0.915-0.484-1.324
						c-0.14-0.408-0.41-0.817-0.612-1.225c-0.202-0.41-0.505-0.799-0.748-1.198l-0.828-1.172c-0.299-0.379-0.585-0.767-0.898-1.134
						l-0.924-1.073l-0.206-0.239l-0.11-0.32c-0.325-0.947-0.722-1.956-1.125-2.922c-0.41-0.973-0.856-1.93-1.298-2.885
						c-0.441-0.956-0.913-1.898-1.419-2.814c-0.243-0.466-0.509-0.915-0.773-1.365c-0.254-0.458-0.52-0.905-0.804-1.339
						c-0.546-0.886-1.141-1.733-1.772-2.541c-0.65-0.841-1.245-1.523-1.986-2.261c-0.863-0.811-1.398-1.323-2.177-1.62
						c-0.74-0.3-1.573-0.361-2.453-0.185c-1.776,0.345-3.57,1.489-5.19,2.776c-1.621,1.321-3.126,2.855-4.49,4.507
						c-1.371,1.65-2.607,3.422-3.718,5.267c-1.11,1.845-2.098,3.769-2.902,5.759l0.037-0.114c-0.047,0.426-0.136,0.846-0.127,1.273
						c-0.028,0.424,0.012,0.847,0.033,1.267c0.061,0.417,0.103,0.834,0.215,1.238c0.085,0.408,0.231,0.803,0.372,1.191
						c0.59,1.557,1.596,2.915,2.761,4.076c0.597,0.57,1.233,1.097,1.907,1.563c0.337,0.232,0.684,0.45,1.04,0.642
						c0.35,0.204,0.707,0.393,1.07,0.553c0.719,0.325,1.484,0.561,2.157,0.639c0.344,0.055,0.642,0.02,0.864-0.016
						c0.228-0.048,0.306-0.102,0.362-0.158l1.588-1.594l0.697,1.867l0.407,1.09c0.147,0.357,0.236,0.757,0.451,1.07
						c0.192,0.33,0.37,0.67,0.55,1.014c0.163,0.36,0.449,0.612,0.667,0.93c0.23,0.309,0.463,0.621,0.763,0.86
						c0.29,0.249,0.55,0.551,0.87,0.77l0.989,0.641c0.35,0.182,0.723,0.326,1.088,0.495c0.361,0.185,0.768,0.245,1.156,0.368
						c0.39,0.127,0.799,0.171,1.207,0.232c0.407,0.075,0.82,0.109,1.237,0.117c0.416,0.017,0.833,0.019,1.25-0.019
						c0.418-0.019,0.836-0.049,1.251-0.114c0.419-0.042,0.831-0.123,1.242-0.217C37.882,105.672,38.691,105.428,39.465,105.12z"/>
				</g>
				<g>
					<path fill="#1E1E1E" d="M110.319,0.151C62.377,5.18,61.524,45.773,58.169,59.48c-1.678,20.036,11.558,47.812,23.676,46.321
						c-1.081,15.1,13.676,11.908,13.676,11.908l22.604-3.892c17.079-4.474,16.477-11.372,16.85-19.201
						c7.678-7.024,11.562-15.615,15.287-20.74c17.337-13.375,2.423-24.747,0.373-25.306c-2.051-0.559,0.186-2.61,1.305-3.635
						c0,0,13.444-17.954-0.639-30.118C145.114,9.474,141.917,0.151,110.319,0.151z"/>
					<path d="M110.327,0.301c-3.595,0.412-7.159,1-10.648,1.933c-1.744,0.469-3.461,1.024-5.157,1.633
						c-1.692,0.621-3.34,1.354-4.952,2.147c-3.21,1.615-6.254,3.544-9.001,5.822c-2.748,2.276-5.208,4.876-7.327,7.72
						c-2.113,2.85-3.906,5.923-5.421,9.127c-1.491,3.216-2.753,6.544-3.756,9.963c-1.008,3.417-1.848,6.894-2.536,10.422
						l-1.04,5.313c-0.348,1.782-0.676,3.574-1.158,5.384l0.03-0.184c-0.46,4.533-0.158,9.179,0.611,13.736
						c0.778,4.562,2.031,9.06,3.73,13.387c0.845,2.166,1.846,4.269,2.956,6.309c1.113,2.038,2.374,3.998,3.825,5.801
						c0.724,0.902,1.495,1.764,2.321,2.565c0.829,0.796,1.7,1.553,2.66,2.168c0.952,0.626,1.973,1.134,3.043,1.46
						c1.069,0.322,2.187,0.438,3.277,0.301l0.576-0.072l-0.02,0.601l-0.045,1.365c0.02,0.452,0.016,0.908,0.054,1.357
						c0.086,0.896,0.202,1.794,0.469,2.642c0.26,0.845,0.589,1.674,1.083,2.395c0.482,0.725,1.076,1.371,1.776,1.885
						c1.401,1.034,3.142,1.561,4.908,1.741c0.886,0.09,1.784,0.101,2.678,0.042c0.447-0.03,0.893-0.078,1.333-0.142
						c0.22-0.032,0.439-0.07,0.65-0.112l0.697-0.135l21.987-4.187l-0.096,0.021c2.249-0.622,4.457-1.359,6.551-2.28
						c1.039-0.473,2.049-0.989,2.998-1.576c0.474-0.294,0.926-0.611,1.367-0.937c0.43-0.337,0.843-0.688,1.229-1.06
						c1.541-1.498,2.551-3.343,2.997-5.463c0.462-2.119,0.468-4.441,0.565-6.844l0.023-0.564l0.442-0.427
						c0.75-0.724,1.502-1.445,2.209-2.215c0.713-0.763,1.408-1.544,2.066-2.36c0.331-0.406,0.667-0.807,0.981-1.229
						c0.316-0.42,0.646-0.826,0.949-1.258c0.622-0.848,1.222-1.716,1.812-2.594c1.175-1.76,2.283-3.576,3.396-5.419
						c1.114-1.843,2.234-3.711,3.551-5.544l0.11-0.154l0.206-0.172c0.552-0.461,1.128-0.901,1.663-1.377
						c0.521-0.487,1.073-0.95,1.547-1.473c0.508-0.498,0.96-1.032,1.405-1.571c0.238-0.26,0.415-0.554,0.625-0.83
						c0.208-0.277,0.407-0.558,0.574-0.854c0.374-0.574,0.671-1.177,0.953-1.782l0.359-0.925l0.276-0.941l0.181-0.955
						c0.023-0.321,0.078-0.641,0.083-0.963c0.012-0.643-0.011-1.289-0.132-1.927c-0.091-0.642-0.29-1.27-0.509-1.891
						c-0.235-0.618-0.518-1.225-0.86-1.807c-0.674-1.17-1.536-2.26-2.519-3.229c-0.492-0.482-1.012-0.94-1.55-1.342
						c-0.267-0.197-0.544-0.392-0.798-0.539c-0.13-0.082-0.248-0.136-0.325-0.175c-0.005,0-0.01-0.002-0.013-0.006l-0.006-0.007
						l-0.125-0.039l-0.16-0.055l-0.291-0.121c-0.329-0.164-0.771-0.433-1.083-0.998c-0.313-0.561-0.298-1.209-0.196-1.589
						c0.213-0.792,0.537-1.174,0.821-1.559c0.585-0.728,1.193-1.263,1.763-1.777l-0.179,0.198c0.873-1.191,1.718-2.59,2.437-3.972
						c0.732-1.394,1.378-2.832,1.901-4.309c1.048-2.948,1.619-6.065,1.392-9.135c-0.116-1.532-0.443-3.045-0.988-4.483
						c-0.536-1.442-1.304-2.805-2.258-4.039c-0.222-0.322-0.475-0.619-0.738-0.91c-0.266-0.288-0.498-0.607-0.791-0.872
						l-1.748-1.689c-1.21-1.192-2.268-2.425-3.396-3.586c-2.218-2.342-4.757-4.335-7.646-5.784
						c-2.872-1.468-5.991-2.472-9.167-3.171c-1.588-0.361-3.195-0.638-4.809-0.878c-1.615-0.233-3.238-0.42-4.866-0.544
						C116.86,0.435,113.594,0.323,110.327,0.301z M110.319,0.001c3.276-0.008,6.554,0.074,9.825,0.31
						c3.268,0.253,6.54,0.578,9.767,1.234c1.618,0.302,3.212,0.724,4.798,1.182c1.583,0.467,3.144,1.034,4.653,1.732
						c3.032,1.366,5.801,3.363,8.176,5.679c1.2,1.139,2.326,2.35,3.497,3.404l1.86,1.64c0.327,0.272,0.599,0.604,0.901,0.904
						c0.3,0.304,0.591,0.616,0.853,0.956c1.109,1.304,2.04,2.784,2.723,4.379c0.691,1.591,1.144,3.29,1.356,5.012
						c0.436,3.458-0.105,6.943-1.13,10.186c-0.517,1.626-1.149,3.21-1.903,4.732c-0.764,1.535-1.575,2.971-2.605,4.442l-0.061,0.087
						l-0.119,0.111c-0.538,0.504-1.044,0.996-1.389,1.456c-0.17,0.21-0.28,0.469-0.25,0.413c0.011-0.016,0.045-0.262-0.084-0.492
						c-0.134-0.227-0.243-0.271-0.243-0.271c-0.009-0.007-0.019-0.012-0.031-0.013c-0.008,0,0.075,0.023,0.109,0.034l0.136,0.045
						l0.252,0.091c0.265,0.116,0.487,0.229,0.678,0.343c0.401,0.228,0.742,0.465,1.085,0.711c0.674,0.493,1.293,1.027,1.885,1.592
						c1.176,1.134,2.218,2.413,3.068,3.846c0.429,0.713,0.796,1.471,1.105,2.258c0.294,0.793,0.557,1.609,0.693,2.459
						c0.166,0.842,0.215,1.71,0.205,2.572c-0.004,0.431-0.063,0.859-0.096,1.289c-0.061,0.425-0.149,0.846-0.226,1.268l-0.347,1.231
						l-0.46,1.181c-0.351,0.761-0.728,1.509-1.177,2.2c-0.208,0.36-0.443,0.694-0.687,1.021c-0.246,0.324-0.467,0.675-0.736,0.974
						c-0.515,0.624-1.041,1.237-1.609,1.796c-0.544,0.592-1.148,1.101-1.73,1.64c-0.592,0.525-1.215,1.001-1.822,1.503l0.316-0.325
						c-1.195,1.669-2.309,3.491-3.456,5.314c-1.141,1.829-2.303,3.676-3.547,5.483c-0.624,0.902-1.262,1.798-1.927,2.677
						c-0.322,0.446-0.678,0.871-1.015,1.307c-0.336,0.438-0.697,0.858-1.053,1.281c-0.706,0.851-1.456,1.671-2.225,2.471
						c-0.762,0.807-1.575,1.567-2.387,2.327l0.465-0.99c-0.135,2.332-0.152,4.794-0.732,7.322c-0.303,1.255-0.742,2.522-1.412,3.677
						c-0.657,1.16-1.509,2.202-2.464,3.089c-0.48,0.441-0.982,0.846-1.497,1.228c-0.522,0.369-1.052,0.719-1.595,1.038
						c-1.087,0.637-2.209,1.173-3.344,1.656c-2.278,0.935-4.606,1.645-6.948,2.231l-0.062,0.016l-0.034,0.005l-22.121,3.407
						l-0.68,0.109c-0.248,0.041-0.489,0.075-0.732,0.102c-0.484,0.055-0.968,0.091-1.452,0.107c-0.968,0.032-1.941-0.01-2.906-0.141
						c-1.921-0.259-3.865-0.904-5.439-2.146c-0.784-0.615-1.469-1.359-2.006-2.195c-0.551-0.831-0.909-1.762-1.183-2.696
						c-0.281-0.939-0.394-1.904-0.474-2.862c-0.035-0.48-0.026-0.959-0.04-1.438l0.065-1.43l0.556,0.529
						c-1.244,0.142-2.505-0.009-3.678-0.378c-1.173-0.373-2.264-0.937-3.265-1.611c-2.009-1.344-3.712-3.055-5.22-4.893
						c-2.988-3.71-5.309-7.884-7.213-12.22c-1.91-4.338-3.376-8.875-4.366-13.532c-0.973-4.656-1.484-9.449-1.186-14.28l0.004-0.06
						l0.026-0.125c0.728-3.439,1.234-7.061,1.912-10.64c0.698-3.581,1.494-7.171,2.587-10.687c1.103-3.51,2.413-6.979,4.115-10.267
						c1.674-3.298,3.697-6.431,6.074-9.266c2.365-2.844,5.065-5.399,8.018-7.592c2.95-2.2,6.165-4.009,9.506-5.478
						c3.356-1.441,6.818-2.6,10.354-3.441c1.771-0.403,3.542-0.808,5.335-1.093c1.788-0.315,3.594-0.532,5.392-0.73l0.009-0.001
						L110.319,0.001z"/>
				</g>
				<g>
					<path fill="#E0AC97" d="M87.996,48.57c0,0-11.439-3.139-13.92-2.486c-2.507,0.66-10.191-1.491-8.948,29.33
						c1.367,17.151,17.275,25.353,17.275,25.353s14.914,7.736,36.166-2.533c18.394-9.771,10.067-29.01,10.067-29.01
						s0.124-21.344-19.885-24.231C102.04,42.977,104.277,44.965,87.996,48.57z"/>
					<path d="M87.957,48.714c-3.089-0.589-6.172-1.23-9.263-1.624c-0.772-0.097-1.541-0.181-2.299-0.243
						c-0.726-0.044-1.575-0.088-2.066,0.048l-0.608,0.135l-0.626,0.109c-0.364,0.078-0.714,0.142-1.025,0.26
						c-0.333,0.079-0.606,0.256-0.903,0.386c-0.27,0.179-0.535,0.364-0.784,0.573c-0.221,0.253-0.47,0.465-0.676,0.735l-0.579,0.858
						c-0.298,0.655-0.67,1.253-0.871,1.978l-0.364,1.043c-0.114,0.352-0.182,0.729-0.275,1.091c-0.182,0.729-0.36,1.458-0.455,2.221
						c-0.525,2.997-0.662,6.105-0.792,9.195l-0.025,4.663l0.097,4.676l0.002,0.292l0.001,0.146l0,0.073
						c-0.004-0.043,0.01,0.148-0.01-0.087l0.004,0.037l0.068,0.586l0.137,1.171l0.137,1.171c0.055,0.382,0.159,0.72,0.235,1.083
						c0.188,0.711,0.266,1.439,0.502,2.155l0.692,2.158c2.168,5.652,6.08,10.721,11.008,14.49c1.22,0.939,2.539,1.837,3.882,2.48
						c1.392,0.624,2.887,1.096,4.396,1.441c3.016,0.732,6.136,1.025,9.236,0.95c3.097-0.118,6.19-0.469,9.187-1.249l1.128-0.264
						c0.372-0.102,0.739-0.227,1.109-0.339l2.211-0.689c1.446-0.543,2.889-1.092,4.302-1.703l2.097-0.977l1.048-0.487l0.131-0.061
						l0.065-0.03l0.033-0.015c-0.139,0.073-0.02,0.009-0.043,0.021l0.253-0.152l0.506-0.303c0.703-0.398,1.301-0.821,1.892-1.24
						c0.596-0.419,1.178-0.907,1.741-1.383c2.218-1.96,4.05-4.319,5.135-7.028c1.114-2.69,1.546-5.647,1.418-8.597
						c-0.063-1.476-0.257-2.952-0.552-4.409c-0.292-1.435-0.718-2.943-1.227-4.2l-0.128-0.317l-0.003-0.329
						c-0.006-0.584-0.062-1.303-0.131-1.96c-0.07-0.672-0.173-1.344-0.276-2.015c-0.225-1.34-0.534-2.666-0.936-3.96
						c-0.197-0.648-0.42-1.287-0.672-1.913c-0.242-0.63-0.52-1.244-0.814-1.848c-0.29-0.607-0.627-1.186-0.955-1.77
						c-0.353-0.568-0.709-1.134-1.108-1.669c-0.394-0.537-0.807-1.064-1.259-1.552c-0.437-0.504-0.921-0.961-1.405-1.419
						c-0.51-0.427-1.005-0.878-1.559-1.25c-0.53-0.408-1.104-0.752-1.673-1.107c-0.589-0.318-1.171-0.66-1.793-0.922
						c-0.614-0.281-1.238-0.541-1.886-0.751c-0.633-0.249-1.301-0.4-1.957-0.59c-0.659-0.181-1.338-0.298-2.009-0.452l-0.153-0.034
						c-0.828-0.27-1.66-0.55-2.46-0.716c-0.405-0.099-0.793-0.144-1.183-0.176c-0.386-0.025-0.774-0.002-1.168,0.042
						c-0.399,0.064-0.805,0.139-1.224,0.249c-0.415,0.099-0.842,0.227-1.266,0.344l-2.583,0.741
						c-1.737,0.473-3.494,0.867-5.247,1.25l-2.638,0.528l-2.683,0.457L87.957,48.714z M87.998,48.413
						c3.425-0.992,6.835-1.99,10.154-3.23l2.515-0.913c0.428-0.15,0.848-0.309,1.294-0.449c0.438-0.148,0.902-0.271,1.38-0.38
						c0.489-0.091,0.99-0.156,1.5-0.159c0.5,0.003,1.008,0.032,1.477,0.112c0.963,0.134,1.846,0.369,2.735,0.591l-0.152-0.034
						c0.733,0.114,1.473,0.19,2.204,0.339c0.727,0.17,1.463,0.302,2.177,0.54c0.725,0.197,1.433,0.451,2.135,0.731
						c0.708,0.261,1.385,0.609,2.067,0.938c0.663,0.369,1.337,0.726,1.96,1.166c0.646,0.406,1.234,0.896,1.834,1.367
						c0.574,0.503,1.147,1.009,1.669,1.567c0.537,0.543,1.032,1.126,1.504,1.724c0.477,0.596,0.906,1.224,1.33,1.856
						c0.402,0.644,0.785,1.301,1.129,1.976c0.345,0.674,0.67,1.358,0.954,2.056c0.294,0.695,0.557,1.402,0.79,2.116
						c0.473,1.428,0.843,2.885,1.119,4.359c0.135,0.738,0.249,1.48,0.322,2.23c0.076,0.764,0.136,1.471,0.143,2.317l-0.132-0.646
						c0.665,1.66,1.075,3.198,1.414,4.842c0.338,1.623,0.499,3.283,0.534,4.949c0.066,3.327-0.502,6.727-1.872,9.824
						c-1.344,3.109-3.515,5.819-6.09,7.913c-0.657,0.512-1.305,1.011-2.013,1.467c-0.712,0.461-1.423,0.909-2.105,1.258
						l-0.518,0.282l-0.259,0.141l-0.108,0.057l-0.035,0.014l-0.069,0.029l-0.139,0.058l-1.111,0.463l-2.219,0.923
						c-1.503,0.555-3.041,1.024-4.569,1.492l-2.335,0.57c-0.389,0.092-0.775,0.196-1.167,0.277l-1.184,0.201
						c-3.137,0.628-6.349,0.822-9.53,0.768c-3.185-0.05-6.363-0.443-9.456-1.206c-1.547-0.386-3.067-0.852-4.559-1.484
						c-1.507-0.688-2.792-1.592-4.113-2.496c-2.593-1.849-5.008-3.97-7.137-6.379c-2.124-2.413-3.929-5.14-5.289-8.111l-0.901-2.281
						c-0.297-0.762-0.482-1.596-0.706-2.4c-0.098-0.403-0.228-0.82-0.298-1.213l-0.178-1.166l-0.178-1.166l-0.089-0.583
						l-0.006-0.036l-0.013-0.16l-0.003-0.074L63.8,75.214l-0.012-0.297l-0.133-4.754c-0.005-1.589,0.054-3.18,0.079-4.769
						c0.187-3.184,0.361-6.38,1.059-9.56c0.13-0.796,0.35-1.588,0.578-2.378c0.117-0.394,0.206-0.791,0.347-1.182l0.454-1.169
						c0.266-0.783,0.753-1.524,1.16-2.269l0.801-1.055c0.289-0.337,0.65-0.634,0.975-0.944c0.363-0.276,0.762-0.527,1.162-0.75
						c0.427-0.176,0.847-0.386,1.288-0.472c0.439-0.127,0.869-0.172,1.279-0.228l0.542-0.051c0.18-0.025,0.421-0.068,0.552-0.079
						c1.061-0.173,1.8-0.006,2.632,0.085c0.803,0.118,1.589,0.273,2.364,0.456C82.007,46.53,85.025,47.388,87.998,48.413z"/>
				</g>
				<g>
					<path fill="#F0A53C" d="M124.535,163.592c0,0-37.409,12.863-42.069-11.372l0.808-3.604c0,0,16.405,9.197,23.724,8.203
						c-0.608-1.367-3.498-4.847-3.498-4.847s8.358,4.847,20.289,3.356C123.044,159.801,124.535,163.592,124.535,163.592z"/>
					<path d="M124.583,163.734c-1.89,0.901-3.861,1.591-5.855,2.22c-1.002,0.296-2.008,0.583-3.024,0.838
						c-1.018,0.244-2.044,0.463-3.073,0.67c-1.033,0.194-2.073,0.348-3.118,0.482c-1.046,0.125-2.095,0.259-3.154,0.296
						c-1.056,0.069-2.119,0.075-3.183,0.077c-1.066-0.011-2.131-0.085-3.197-0.207c-1.065-0.121-2.129-0.286-3.175-0.562
						c-1.055-0.222-2.081-0.594-3.095-0.969l-1.491-0.652l-1.43-0.785c-0.922-0.576-1.82-1.186-2.628-1.909
						c-0.429-0.328-0.804-0.718-1.172-1.113c-0.377-0.385-0.749-0.77-1.065-1.206c-0.703-0.814-1.224-1.75-1.79-2.649l-0.693-1.434
						c-0.243-0.473-0.377-0.988-0.579-1.477c-0.427-0.977-0.573-2.029-0.888-3.04l-0.023-0.073l0.026-0.132
						c0.239-1.208,0.473-2.417,0.682-3.632l0.138-0.802l0.787,0.389c1.875,0.927,3.819,1.762,5.757,2.563
						c0.973,0.396,1.951,0.775,2.927,1.151c0.485,0.195,0.976,0.374,1.466,0.553l1.467,0.539c0.977,0.358,1.961,0.685,2.944,0.996
						c0.49,0.169,0.984,0.3,1.477,0.439c0.493,0.136,0.985,0.288,1.479,0.387c0.493,0.105,0.987,0.235,1.477,0.32l1.464,0.231
						l1.422,0.094c0.454-0.009,0.882-0.062,1.323-0.078l-1.226,2.199c-0.227-0.34-0.452-0.676-0.654-1.028
						c-0.123-0.184-0.279-0.382-0.416-0.572l-0.425-0.577c-0.565-0.765-1.193-1.542-1.8-2.283l-4.867-5.942l6.909,3.526l1.032,0.527
						c0.351,0.19,0.747,0.332,1.12,0.499c0.383,0.152,0.747,0.344,1.146,0.466l1.176,0.407c0.394,0.131,0.78,0.289,1.187,0.38
						l1.205,0.333l1.208,0.336l1.233,0.225l1.236,0.226c0.413,0.073,0.822,0.187,1.242,0.204l2.513,0.232
						c0.42,0.028,0.841,0.107,1.262,0.082l1.266-0.01l2.55-0.01l1.099-0.004l-0.15,0.993c-0.098,0.65-0.285,1.297-0.32,1.966
						l-0.093,1.005c-0.012,0.337-0.01,0.675-0.016,1.016c-0.015,0.341,0.012,0.68,0.034,1.022c0.018,0.342,0.04,0.685,0.091,1.024
						c0.081,0.681,0.186,1.37,0.347,2.037l0.033,0.138L124.583,163.734z M124.322,163.479c-0.274-0.595-0.522-1.2-0.697-1.83
						c-0.113-0.341-0.196-0.688-0.276-1.038c-0.084-0.349-0.172-0.7-0.219-1.057c-0.055-0.356-0.118-0.714-0.167-1.074l-0.071-1.09
						c-0.059-0.73,0.037-1.463,0.053-2.204l0.949,0.988l-2.654,0.334l-1.335,0.162c-0.446,0.078-0.894,0.044-1.342,0.051
						l-2.697-0.007c-0.453,0.018-0.897-0.06-1.346-0.098l-1.343-0.155l-1.346-0.159l-1.327-0.275l-1.33-0.278
						c-0.446-0.083-0.874-0.239-1.31-0.366l-1.303-0.402c-0.438-0.12-0.857-0.315-1.287-0.47c-0.426-0.172-0.856-0.312-1.279-0.519
						c-0.427-0.201-0.838-0.363-1.303-0.632l2.042-2.416c0.653,0.806,1.276,1.584,1.893,2.426l0.459,0.63
						c0.153,0.215,0.305,0.41,0.459,0.641c0.312,0.504,0.601,1.022,0.889,1.536l1.183,2.115l-2.409,0.085
						c-0.615,0.022-1.244,0.063-1.845,0.046l-1.738-0.18l-1.658-0.33c-0.546-0.123-1.07-0.286-1.605-0.428
						c-0.538-0.136-1.049-0.32-1.568-0.491c-0.517-0.173-1.038-0.339-1.54-0.538c-1.02-0.369-2.015-0.786-3.002-1.213
						c-0.988-0.423-1.955-0.892-2.914-1.367c-0.962-0.471-1.9-0.987-2.84-1.493c-1.875-1.029-3.706-2.105-5.536-3.218l0.925-0.413
						c-0.329,1.188-0.634,2.381-0.934,3.576l0.003-0.205c0.104,0.493,0.214,0.986,0.332,1.477c0.096,0.498,0.257,0.975,0.434,1.447
						c0.281,0.975,0.78,1.853,1.238,2.744c0.539,0.844,1.11,1.669,1.815,2.376c0.171,0.18,0.325,0.376,0.51,0.542l0.573,0.478
						c0.377,0.323,0.755,0.639,1.183,0.893c0.806,0.571,1.702,1,2.592,1.41l1.374,0.535l1.415,0.422
						c0.955,0.245,1.914,0.458,2.89,0.616c0.483,0.095,0.972,0.167,1.468,0.212c0.494,0.046,0.978,0.149,1.477,0.174
						c0.989,0.104,1.986,0.14,2.985,0.2c1.001,0.027,2.005,0.054,3.012,0.018c1.006-0.018,2.017-0.063,3.027-0.121
						c1.012-0.055,2.02-0.165,3.035-0.249C116.313,164.894,120.312,164.251,124.322,163.479z"/>
				</g>
				<ellipse cx="104.588" cy="70.63" rx="3.045" ry="4.785"/>
				<ellipse cx="82.963" cy="71.127" rx="3.045" ry="4.785"/>
				<path d="M90.143,68.646c-0.458,1.111-1.259,1.027-2.142,0.664l-15.8-5.702c-0.882-0.363-1.226-1.558-0.769-2.669l0,0
					c0.458-1.111,1.544-1.716,2.426-1.353l15.232,7.081C89.972,67.03,90.601,67.536,90.143,68.646L90.143,68.646z"/>
				<path d="M97.325,68.41c0.546,1.07,1.338,0.922,2.188,0.488l15.286-6.963c0.85-0.434,1.096-1.652,0.55-2.722l0,0
					c-0.546-1.07-1.677-1.586-2.527-1.152l-14.609,8.291C97.364,66.785,96.779,67.34,97.325,68.41L97.325,68.41z"/>
				<g>
					<path fill="#E0AC97" d="M162.192,98.3c0,0-4.723,6.321-7.208,2.841c-2.486-3.48,0.621-4.35-1.119-7.208
						c-1.74-2.858,0.373-11.682,4.971-10.812c4.598,0.87,4.101,1.74,3.356,4.847C161.198,92.565,163.435,95.175,162.192,98.3z"/>
					<path d="M162.31,98.393c-0.001,0.002-0.079,0.182-0.226,0.522c-0.162,0.334-0.413,0.819-0.811,1.392
						c-0.4,0.572-0.913,1.262-1.724,1.921c-0.204,0.165-0.437,0.322-0.67,0.49c-0.26,0.151-0.532,0.304-0.845,0.428
						c-0.635,0.23-1.484,0.399-2.394,0.087c-0.229-0.052-0.408-0.194-0.614-0.302c-0.195-0.12-0.415-0.239-0.547-0.395
						c-0.153-0.148-0.299-0.308-0.445-0.469l-0.109-0.122l-0.111-0.154l-0.129-0.188c-0.087-0.132-0.173-0.24-0.262-0.395
						l-0.29-0.562c-0.168-0.391-0.312-0.77-0.374-1.224c-0.172-0.882,0.06-1.869,0.332-2.502c0.271-0.671,0.491-1.094,0.482-1.625
						c0.011-0.267-0.062-0.553-0.17-0.848c-0.149-0.417-0.259-0.662-0.361-1.103l-0.131-0.632l-0.053-0.588
						c-0.062-0.392-0.017-0.777-0.053-1.168c0.038-1.551,0.21-3.11,0.639-4.697c0.212-0.794,0.555-1.574,1.014-2.337
						c0.521-0.726,1.179-1.464,2.165-1.878c0.22-0.137,0.496-0.169,0.751-0.24c0.26-0.053,0.523-0.139,0.783-0.117
						c0.516-0.008,1.109,0.038,1.4,0.098c0.344,0.044,0.761,0.125,1.155,0.206c0.397,0.096,0.797,0.198,1.227,0.356
						c0.216,0.08,0.451,0.193,0.678,0.306c0.253,0.16,0.485,0.282,0.739,0.547c0.5,0.442,0.893,1.286,0.908,1.885
						c0.067,1.204-0.205,1.837-0.359,2.5c-0.077,0.264-0.152,0.525-0.227,0.782c-0.064,0.309-0.127,0.614-0.189,0.914
						c-0.177,0.647-0.134,1.036-0.206,1.526c-0.053,0.475-0.027,1.008-0.043,1.484c0.034,0.506,0.029,0.973,0.047,1.449
						c0.038,0.938,0.013,1.825-0.126,2.537c-0.085,0.361-0.155,0.674-0.232,0.939c-0.127,0.252-0.235,0.466-0.322,0.64
						c-0.182,0.327-0.279,0.501-0.279,0.501L162.31,98.393z M162.053,98.223c0.001-0.054,0.004-0.231,0.008-0.525
						c0.006-0.168,0.014-0.374,0.023-0.618c-0.036-0.239-0.078-0.515-0.125-0.823c-0.108-0.606-0.339-1.322-0.61-2.197
						c-0.128-0.433-0.29-0.933-0.421-1.446c-0.1-0.553-0.256-1.097-0.317-1.754c-0.029-0.64-0.108-1.441-0.036-1.998
						c0.025-0.305,0.05-0.615,0.076-0.93l0.011-0.118l0.005-0.059l0.038-0.201l0.045-0.238l0.093-0.473
						c0.128-0.597,0.242-1.273,0.215-1.436c-0.019-0.086,0.049,0.096,0.049,0.061c0.025-0.001-0.059-0.043-0.09-0.088
						c-0.085-0.046-0.162-0.102-0.273-0.156c-0.227-0.109-0.511-0.212-0.806-0.312c-0.306-0.086-0.59-0.186-0.963-0.277
						c-0.418-0.126-0.559-0.114-0.779-0.162c-0.11-0.044-0.206,0.005-0.31,0.007c-0.1,0.024-0.216-0.02-0.319,0.042
						c-0.849,0.23-1.91,1.161-2.611,2.38c-0.734,1.199-1.205,2.646-1.236,4.068c0.009,0.35-0.01,0.712,0.061,1.048l0.092,0.505
						l0.154,0.427c0.091,0.261,0.349,0.653,0.517,0.878c0.24,0.331,0.448,0.714,0.592,1.142c0.163,0.425,0.203,0.895,0.212,1.335
						c-0.011,0.421-0.051,0.835-0.09,1.151c-0.089,0.677-0.024,1.052,0.083,1.444c0.045,0.188,0.148,0.409,0.232,0.591l0.133,0.276
						l0.234,0.384c0.26,0.427,0.431,0.57,0.612,0.7c0.164,0.108,0.445,0.125,0.794,0.083c0.175-0.036,0.362-0.099,0.548-0.144
						c0.187-0.081,0.375-0.146,0.557-0.232c0.73-0.356,1.384-0.785,1.918-1.145C161.341,98.743,161.949,98.299,162.053,98.223z"/>
				</g>
				<g>
					<path fill="#591B1A" d="M128.077,155.389c0,0-13.609-17.71,13.422-28.336c21.625-1.491,25.54,3.169,27.218,3.728
						s14.168,13.236,13.609,30.2s-3.542,43.996-11.372,49.402c-7.83,5.406-22.743,7.83-28.709-0.932
						c-5.966-8.762-1.305-19.574-1.305-19.574S145.601,175.896,128.077,155.389z"/>
					<path d="M127.957,155.479c-0.925-1.275-1.661-2.664-2.244-4.12c-0.297-0.726-0.533-1.475-0.739-2.233
						c-0.199-0.759-0.376-1.529-0.464-2.313c-0.111-0.781-0.143-1.574-0.122-2.366c0.02-0.792,0.109-1.583,0.25-2.367
						c0.147-0.782,0.352-1.558,0.634-2.307c0.12-0.384,0.292-0.744,0.458-1.109c0.157-0.37,0.336-0.729,0.543-1.071
						c0.367-0.717,0.836-1.367,1.29-2.031c0.505-0.62,0.99-1.267,1.56-1.83c0.536-0.602,1.14-1.124,1.735-1.662
						c0.601-0.53,1.246-1,1.876-1.496c0.661-0.443,1.308-0.918,1.986-1.336c0.686-0.401,1.357-0.839,2.06-1.209
						c0.705-0.364,1.401-0.755,2.117-1.099l2.171-0.977l0.152-0.068l0.2-0.011c3.482-0.19,6.952-0.547,10.472-0.369l2.632,0.076
						c0.879,0.065,1.76,0.19,2.639,0.282c0.879,0.12,1.761,0.156,2.637,0.347l2.624,0.592c0.875,0.185,1.728,0.559,2.59,0.833
						c0.435,0.128,0.849,0.336,1.261,0.542c0.409,0.207,0.837,0.395,1.227,0.619l2.238,1.306c0.229,0.172,0.454,0.351,0.674,0.534
						c0.215,0.182,0.342,0.326,0.517,0.492c0.336,0.317,0.644,0.646,0.94,0.98c2.399,2.651,4.322,5.612,5.965,8.714
						c1.61,3.116,2.897,6.396,3.743,9.789c0.874,3.387,1.261,6.885,1.211,10.388c-0.112,3.452-0.259,6.913-0.476,10.365
						c-0.197,3.455-0.458,6.91-0.828,10.358c-0.353,3.45-0.808,6.895-1.408,10.33c-0.627,3.43-1.419,6.844-2.564,10.206
						c-0.581,1.677-1.237,3.35-2.14,4.956c-0.922,1.598-1.979,3.176-3.755,4.426c-1.363,0.926-3.114,1.909-4.745,2.595
						c-0.827,0.371-1.684,0.662-2.533,0.974c-0.87,0.245-1.72,0.565-2.61,0.742c-3.513,0.822-7.219,1.22-10.913,0.487
						c-1.849-0.291-3.657-0.999-5.353-1.907c-1.672-0.981-3.175-2.3-4.304-3.899l-0.225-0.288l-0.213-0.356l-0.328-0.558
						c-0.215-0.397-0.447-0.688-0.647-1.172l-0.606-1.346c-0.204-0.45-0.309-0.894-0.466-1.341c-0.572-1.786-0.881-3.644-0.93-5.486
						c-0.055-1.844,0.106-3.675,0.44-5.461c0.342-1.803,0.832-3.492,1.585-5.252l-0.039,0.101c0.19-0.552,0.337-1.354,0.445-2.065
						c0.088-0.739,0.185-1.487,0.199-2.247c0.057-0.757,0.01-1.521-0.001-2.286c-0.028-0.765-0.13-1.529-0.191-2.298l-0.369-2.291
						c-0.157-0.759-0.354-1.512-0.529-2.271c-0.165-0.763-0.45-1.493-0.669-2.243l-0.355-1.119l-0.431-1.094
						c-0.296-0.726-0.567-1.465-0.895-2.18l-1.031-2.125c-0.325-0.72-0.717-1.404-1.124-2.08l-1.198-2.044
						c-0.413-0.673-0.877-1.314-1.314-1.974l-1.356-1.948l-2.947-3.724L127.957,155.479z M128.197,155.299l3.016,3.684l1.403,1.93
						c0.468,0.644,0.962,1.27,1.408,1.929l1.297,2.009c0.436,0.669,0.875,1.335,1.254,2.039l1.187,2.086
						c0.383,0.703,0.702,1.439,1.063,2.157l0.53,1.083l0.457,1.117c0.288,0.752,0.64,1.483,0.875,2.257
						c0.245,0.77,0.512,1.536,0.739,2.316l0.579,2.373c0.131,0.806,0.302,1.608,0.398,2.424c0.079,0.818,0.193,1.636,0.199,2.467
						c0.045,0.827,0.022,1.664-0.032,2.504c-0.087,0.862-0.156,1.638-0.42,2.609l-0.039,0.102c-1.028,2.992-1.582,6.382-1.368,9.566
						c0.068,1.606,0.364,3.183,0.869,4.672c0.136,0.363,0.235,0.765,0.399,1.096l0.467,1.01c0.115,0.323,0.419,0.724,0.62,1.082
						l0.337,0.552l0.084,0.138l0.042,0.069l0.021,0.035c-0.015-0.023,0.063,0.1-0.028-0.042l0.181,0.216
						c0.48,0.576,0.922,1.183,1.521,1.641c0.518,0.544,1.186,0.912,1.809,1.335c1.339,0.706,2.779,1.305,4.349,1.548
						c3.099,0.609,6.429,0.383,9.623-0.31c0.809-0.14,1.586-0.421,2.381-0.624c0.773-0.27,1.561-0.517,2.314-0.838
						c1.559-0.635,2.851-1.308,4.369-2.281c1.08-0.721,2.102-2.016,2.901-3.387c0.809-1.394,1.5-2.913,2.097-4.478
						c1.204-3.133,2.069-6.44,2.842-9.766c0.767-3.332,1.404-6.707,1.931-10.103c1.042-6.795,1.753-13.66,1.988-20.548
						c0.106-3.403-0.353-6.816-1.252-10.096c-0.922-3.278-2.307-6.42-4.062-9.328c-1.753-2.897-3.795-5.656-6.167-7.999
						c-0.293-0.297-0.592-0.582-0.9-0.84c-0.146-0.123-0.319-0.29-0.441-0.377c-0.119-0.085-0.232-0.174-0.341-0.27
						c-0.035-0.047-0.171-0.099-0.254-0.149l-0.143-0.075l-0.072-0.038c-0.043-0.019,0.255,0.104,0.107,0.042l-0.047-0.02
						l-0.743-0.341l-1.149-0.594c-1.466-0.69-3.003-1.204-4.606-1.589l-2.442-0.473c-0.814-0.156-1.665-0.196-2.496-0.301
						c-0.837-0.082-1.667-0.197-2.509-0.254l-2.543-0.071l-2.543-0.099c-0.848-0.036-1.704,0.034-2.556,0.045
						c-1.705,0.056-3.414,0.061-5.124,0.094l0.351-0.079l-2.126,0.829c-0.708,0.277-1.394,0.598-2.095,0.895
						c-0.697,0.303-1.358,0.669-2.042,1.001c-0.673,0.348-1.312,0.749-1.973,1.122c-0.623,0.421-1.27,0.82-1.87,1.275
						c-0.594,0.462-1.203,0.913-1.745,1.433c-0.58,0.486-1.073,1.051-1.596,1.595c-0.469,0.584-0.96,1.16-1.354,1.801
						c-0.217,0.309-0.406,0.634-0.574,0.971c-0.178,0.332-0.364,0.661-0.498,1.013c-0.311,0.687-0.551,1.406-0.74,2.139
						c-0.189,0.734-0.308,1.487-0.355,2.246c-0.051,0.759-0.052,1.525,0.025,2.286c0.129,1.524,0.485,3.037,1.054,4.468
						C126.597,152.663,127.312,154.049,128.197,155.299z"/>
				</g>
				<g>
					<path d="M155.73,215.245c0,0-18.891,0.918-15.908-22.385s-8.389-31.132-8.389-31.132s-10.408-9.344-0.916-22.382
						c9.678-7.446,18.999-2.599,20.677-1.48s15.473,7.753,14.727,29.137c-0.746,21.383,1.351,32.217,0.746,36.049
						C166.107,206.593,165.424,213.769,155.73,215.245z"/>
					<path d="M155.732,215.295c-1.371,0.029-2.736-0.136-4.073-0.428c-1.338-0.288-2.639-0.747-3.87-1.35
						c-2.46-1.207-4.594-3.114-6.003-5.491c-0.715-1.179-1.269-2.458-1.651-3.783c-0.411-1.319-0.65-2.684-0.799-4.053
						c-0.133-1.371-0.192-2.752-0.132-4.127c0.011-1.373,0.198-2.758,0.324-4.1c0.152-1.362,0.252-2.697,0.304-4.051
						c0.055-1.352,0.071-2.706,0.011-4.055c-0.078-2.7-0.367-5.395-0.964-8.024c-0.595-2.626-1.463-5.196-2.699-7.588
						c-0.621-1.192-1.323-2.346-2.139-3.414c-0.809-1.062-1.725-2.089-2.756-2.89l-0.025-0.019l-0.002-0.002
						c-0.762-0.745-1.402-1.555-1.987-2.418c-0.583-0.86-1.086-1.772-1.513-2.717c-0.852-1.891-1.353-3.95-1.389-6.026
						c-0.025-0.518,0.011-1.037,0.04-1.554c0.049-0.516,0.104-1.031,0.204-1.54c0.075-0.513,0.217-1.012,0.333-1.516
						c0.156-0.493,0.282-0.997,0.478-1.476c0.171-0.489,0.373-0.965,0.592-1.433c0.198-0.479,0.462-0.924,0.696-1.385
						c0.244-0.455,0.527-0.889,0.788-1.334l0.87-1.282l0.013-0.02l0.023-0.017c1.845-1.401,3.878-2.6,6.106-3.317
						c2.216-0.731,4.586-1.024,6.92-0.83c2.336,0.183,4.633,0.804,6.752,1.827c2.06,1.134,4.044,2.308,5.849,3.828
						c1.802,1.492,3.415,3.219,4.764,5.135c1.369,1.903,2.46,3.997,3.329,6.169c1.702,4.37,2.397,9.08,2.336,13.732
						c-0.024,2.322-0.151,4.616-0.162,6.914c-0.041,2.295-0.046,4.597-0.015,6.895c0.003,4.599,0.181,9.195,0.386,13.795
						c0.101,2.301,0.247,4.6,0.289,6.914c0.025,1.149-0.033,2.341-0.251,3.471c-0.185,1.138-0.405,2.28-0.752,3.388
						c-0.662,2.216-1.936,4.303-3.812,5.694c-1.861,1.407-4.134,2.144-6.409,2.477l-0.003,0L155.732,215.295z M155.725,215.195
						c2.261-0.352,4.505-1.106,6.323-2.506c1.834-1.386,3.063-3.44,3.697-5.63c0.326-1.098,0.512-2.23,0.673-3.368
						c0.194-1.14,0.199-2.262,0.141-3.415c-0.114-2.291-0.343-4.586-0.528-6.884c-0.403-4.594-0.632-9.207-0.745-13.823
						c-0.039-2.309-0.043-4.615-0.01-6.927c0.004-2.31,0.122-4.619,0.138-6.905c0.023-4.547-0.59-9.124-2.208-13.367
						c-0.824-2.109-1.861-4.141-3.169-5.99c-1.292-1.859-2.832-3.544-4.547-5.027c-1.694-1.488-3.68-2.709-5.628-3.828
						c-2.011-1.015-4.228-1.66-6.482-1.876c-2.255-0.227-4.554,0.012-6.726,0.683c-2.177,0.663-4.208,1.777-6.028,3.156l0.036-0.037
						l-0.867,1.259c-0.261,0.437-0.543,0.863-0.786,1.309c-0.232,0.452-0.497,0.89-0.694,1.359c-0.219,0.46-0.421,0.926-0.592,1.405
						c-0.196,0.47-0.323,0.963-0.48,1.447c-0.114,0.494-0.266,0.982-0.331,1.487c-0.094,0.5-0.143,1.005-0.186,1.511
						c-0.023,0.506-0.054,1.014-0.025,1.521c0.055,2.029,0.562,4.034,1.412,5.874c0.42,0.923,0.939,1.8,1.526,2.625
						c0.584,0.822,1.244,1.613,1.966,2.286l-0.026-0.021c1.145,0.847,2.078,1.86,2.947,2.94c0.864,1.08,1.613,2.248,2.278,3.458
						c0.663,1.212,1.231,2.475,1.718,3.767c0.498,1.289,0.859,2.625,1.181,3.965c0.328,1.341,0.535,2.705,0.724,4.069
						c0.151,1.368,0.286,2.741,0.307,4.116c0.042,1.375,0.008,2.751-0.067,4.121c-0.071,1.369-0.195,2.753-0.364,4.098l-0.23,2.027
						c-0.092,0.67-0.143,1.343-0.177,2.017c-0.098,1.347-0.078,2.699,0.013,4.043c0.108,1.342,0.301,2.682,0.667,3.979
						c0.336,1.304,0.842,2.564,1.509,3.734c0.662,1.172,1.489,2.254,2.467,3.187c0.974,0.939,2.109,1.704,3.315,2.318
						c1.21,0.608,2.495,1.076,3.82,1.375C153.011,215.034,154.37,215.211,155.725,215.195z"/>
				</g>
				<g>
					<path d="M82.885,150.488c0,0,8.054,8.591,9.439,6.482"/>
					<path d="M82.922,150.454c0,0,0.187,0.081,0.473,0.261c0.288,0.178,0.676,0.452,1.104,0.815
						c0.208,0.188,0.441,0.384,0.656,0.623c0.218,0.236,0.404,0.531,0.615,0.819c0.203,0.297,0.44,0.575,0.718,0.818
						c0.271,0.251,0.596,0.449,0.919,0.644c0.327,0.191,0.662,0.37,0.963,0.576c0.304,0.198,0.604,0.392,0.893,0.581
						c0.577,0.369,1.083,0.74,1.525,1.019c0.44,0.282,0.811,0.449,1.07,0.462c0.13,0.009,0.243-0.021,0.308-0.067
						c0.076-0.041,0.117-0.062,0.117-0.062l0.084,0.055c0,0-0.022,0.048-0.063,0.139c-0.038,0.095-0.153,0.219-0.334,0.318
						c-0.185,0.106-0.44,0.143-0.705,0.13c-0.272-0.006-0.551-0.076-0.849-0.165c-0.581-0.198-1.192-0.532-1.758-0.985
						c-0.562-0.459-1.134-0.968-1.605-1.584c-0.249-0.291-0.488-0.591-0.768-0.834c-0.273-0.252-0.57-0.467-0.883-0.651
						c-0.304-0.193-0.61-0.369-0.857-0.582c-0.249-0.21-0.453-0.442-0.645-0.651c-0.372-0.431-0.641-0.829-0.81-1.124
						c-0.171-0.293-0.241-0.487-0.241-0.487L82.922,150.454z"/>
				</g>
				<g>
					<path fill="#99583D" d="M31.821,67.709c0,0,4.98-12.396,9.077-9.802c4.097,2.594,10.915,8.062,6.263,9.802
						s-10.036,6.167-10.036,6.167L31.821,67.709z"/>
					<g>
						<path d="M31.728,67.671c0.356-1.686,0.944-3.299,1.683-4.855c0.365-0.781,0.792-1.535,1.254-2.279
							c0.488-0.727,1-1.455,1.648-2.108c0.649-0.641,1.427-1.265,2.485-1.532c0.517-0.139,1.133-0.113,1.652,0.077
							c0.27,0.086,0.496,0.231,0.717,0.376c0.202,0.142,0.341,0.262,0.518,0.4l3.939,3.268c0.649,0.553,1.289,1.119,1.917,1.724
							c0.615,0.619,1.217,1.277,1.635,2.188c0.196,0.456,0.34,1.029,0.203,1.658c-0.15,0.629-0.59,1.136-1.029,1.456
							c-0.224,0.147-0.454,0.29-0.683,0.388l-0.565,0.277l-1.143,0.542c-0.728,0.391-1.392,0.775-2.089,1.205
							c-0.683,0.459-1.388,0.874-2.071,1.341c-1.375,0.9-2.762,1.839-4.091,2.788l-0.771,0.55l-0.511-0.661
							c-0.83-1.074-1.636-2.169-2.424-3.279c-0.783-1.115-1.542-2.25-2.258-3.422l-0.029-0.047L31.728,67.671z M31.95,67.691
							c1.031,0.87,2.025,1.773,2.993,2.698c0.98,0.945,1.942,1.906,2.88,2.887l-1.281-0.111c0.655-0.585,1.304-1.13,1.988-1.653
							c0.687-0.513,1.363-1.044,2.096-1.497c0.707-0.488,1.462-0.914,2.219-1.33c0.764-0.406,1.593-0.809,2.376-1.16l1.177-0.462
							l0.595-0.224c0.167-0.051,0.3-0.123,0.439-0.189c0.258-0.143,0.425-0.291,0.514-0.48c0.094-0.19,0.11-0.489,0.032-0.824
							c-0.158-0.679-0.598-1.391-1.08-2.04c-0.486-0.659-1.061-1.266-1.682-1.82c-0.614-0.562-1.279-1.072-1.971-1.54
							c-0.688-0.472-1.433-0.872-2.165-1.259c-0.177-0.09-0.387-0.208-0.549-0.276c-0.151-0.053-0.295-0.112-0.44-0.118
							c-0.288-0.022-0.553-0.005-0.836,0.132c-0.561,0.238-1.129,0.724-1.664,1.262c-1.076,1.102-2.022,2.459-2.94,3.828
							L31.95,67.691z"/>
					</g>
				</g>
				<g>
					<path fill="#99583D" d="M168.735,77.289c0,0-8.77-13.015-3.411-16.121c5.359-3.107,15.41-7.592,13.93-1.281
						c-1.479,6.311-0.82,15.05-0.82,15.05L168.735,77.289z"/>
					<g>
						<path d="M168.652,77.344c-1.421-1.59-2.619-3.356-3.645-5.234c-0.517-0.938-0.965-1.918-1.363-2.931
							c-0.368-1.022-0.707-2.078-0.854-3.207c-0.157-1.115-0.12-2.357,0.409-3.527c0.29-0.575,0.708-1.094,1.222-1.475
							c0.566-0.369,1.016-0.551,1.505-0.781c0.967-0.446,1.948-0.848,2.915-1.274l2.918-1.244c0.984-0.395,1.975-0.774,3.005-1.1
							c1.041-0.288,2.11-0.589,3.378-0.375c0.613,0.107,1.375,0.504,1.723,1.207c0.348,0.678,0.378,1.372,0.33,1.976
							c-0.155,1.146-0.312,2.108-0.479,3.166c-0.071,1.016-0.2,1.998-0.229,3.032c-0.028,1.031-0.097,2.057-0.104,3.092
							l-0.058,3.103l0.02,3.096l0.005,0.82l-0.702,0.138c-1.634,0.322-3.274,0.614-4.92,0.884c-1.648,0.262-3.303,0.496-4.971,0.676
							l-0.063,0.007L168.652,77.344z M168.788,77.164c1.54-0.592,3.092-1.136,4.652-1.649c1.587-0.514,3.179-1.005,4.779-1.468
							l-0.696,0.957c-0.115-1.077-0.199-2.128-0.242-3.193c-0.024-1.063-0.086-2.127-0.032-3.192
							c0.009-1.064,0.086-2.132,0.193-3.196c0.086-1.062,0.285-2.157,0.425-3.228c0.208-1.006,0.456-2.104,0.666-3.024
							c0.082-0.43,0.083-0.829-0.017-1.108c-0.08-0.28-0.311-0.483-0.699-0.628c-0.791-0.283-1.859-0.187-2.848-0.022
							c-1.008,0.173-2.008,0.474-2.979,0.839c-1.949,0.728-3.797,1.736-5.521,2.905c-0.428,0.279-0.903,0.597-1.177,0.859
							c-0.28,0.31-0.487,0.654-0.624,1.04c-0.239,0.796-0.238,1.723-0.1,2.676c0.27,1.913,0.967,3.861,1.729,5.769
							C167.064,73.39,167.922,75.266,168.788,77.164z"/>
					</g>
				</g>
				<g>
					<path fill="#99583D" d="M179.754,105.926c0,0,8.169,13.463,2.882,15.291c-5.287,1.828-15.167,4.036-13.561-1.427
						s1.198-13.53,1.198-13.53L179.754,105.926z"/>
					<g>
						<path d="M179.84,105.875c1.274,1.53,2.34,3.207,3.259,4.975c0.465,0.882,0.867,1.799,1.236,2.74
							c0.339,0.951,0.661,1.924,0.83,2.963c0.172,1.029,0.214,2.159-0.198,3.306c-0.231,0.567-0.62,1.118-1.147,1.478l-0.404,0.242
							l-0.425,0.158c-0.294,0.106-0.49,0.132-0.744,0.201c-0.972,0.237-1.941,0.423-2.905,0.639l-2.898,0.605
							c-0.971,0.186-1.947,0.352-2.947,0.471c-1.002,0.103-2.028,0.161-3.124-0.103c-0.54-0.14-1.129-0.388-1.603-0.892
							c-0.476-0.505-0.697-1.236-0.699-1.855c0.003-0.31,0.022-0.622,0.086-0.9l0.144-0.736l0.298-1.438
							c0.161-0.954,0.258-1.847,0.353-2.795c0.051-0.957,0.156-1.905,0.193-2.867c0.114-1.911,0.188-3.857,0.206-5.761l0.01-0.978
							l0.878,0.011c3.166,0.038,6.334,0.157,9.51,0.486l0.054,0.006L179.84,105.875z M179.691,106.036
							c-3.123,0.545-6.253,0.886-9.386,1.146l0.887-0.967c0.086,1.011,0.137,1.993,0.149,2.991c0.001,0.994,0.02,1.989-0.063,2.984
							c-0.034,0.995-0.163,1.991-0.292,2.982c-0.155,0.991-0.338,2.039-0.561,3.001l-0.383,1.417l-0.196,0.692
							c-0.066,0.194-0.084,0.375-0.106,0.551c-0.039,0.354,0.013,0.631,0.178,0.873c0.157,0.25,0.468,0.478,0.851,0.641
							c0.775,0.335,1.744,0.431,2.688,0.453c0.955,0.025,1.923-0.066,2.877-0.23c0.957-0.153,1.902-0.385,2.832-0.668
							c0.929-0.279,1.837-0.65,2.725-1.023c0.478-0.211,0.857-0.352,1.078-0.614c0.236-0.254,0.393-0.552,0.484-0.91
							c0.155-0.738,0.1-1.618-0.056-2.509c-0.306-1.792-0.936-3.616-1.597-5.42C181.131,109.64,180.402,107.855,179.691,106.036z"/>
					</g>
				</g>
				<g>
					<path fill="#E0AC97" d="M170.643,112.947c0,0,7.084,0.746,9.57-1.864c2.486-2.61,5.841-8.327,4.847-11.185
						c-0.994-2.858-1.289-17.819-1.367-18.329c-0.187-1.23,1.74-6.278-10.564-5.408s-9.72,5.22-10.453,7.084
						c-0.733,1.864-1.007,9.57,0,12.925C163.684,99.525,162.26,113.952,170.643,112.947z"/>
					<path d="M170.658,112.798c0,0,0.395,0.042,1.148,0.069c0.749,0.023,1.86,0.019,3.241-0.185c0.688-0.098,1.45-0.242,2.222-0.527
						c0.767-0.266,1.585-0.653,2.174-1.252c0.15-0.168,0.262-0.266,0.422-0.495c0.155-0.204,0.31-0.412,0.439-0.614
						c0.272-0.398,0.554-0.849,0.815-1.309c0.548-0.911,1.038-1.92,1.516-2.96c0.458-1.047,0.865-2.163,1.112-3.258
						c0.085-0.533,0.192-1.094,0.127-1.521c0.008-0.126-0.045-0.194-0.055-0.296l-0.118-0.534c-0.069-0.335-0.142-0.671-0.199-1.014
						c-0.413-3.017-0.301-5.905-0.263-8.958c0.092-3.052,0.069-6.143,0.005-9.363c0.01-0.749-0.128-1.444-0.529-1.992
						c-0.411-0.532-1.002-0.944-1.705-1.185c-1.39-0.508-2.988-0.55-4.539-0.501l-1.172,0.057l-1.176,0.128
						c-0.382,0.048-0.802,0.074-1.15,0.139l-1.193,0.188c-1.569,0.245-3.027,0.552-4.398,1.039
						c-1.351,0.472-2.497,1.191-2.799,2.017c-0.176,0.426-0.201,0.945-0.225,1.758l-0.013,0.314l-0.039,0.384
						c-0.011,0.122-0.028,0.257-0.077,0.434l-0.065,0.244l-0.035,0.121l-0.018,0.06c-0.018,0.053,0.079-0.226,0.034-0.092
						c-0.077,0.358-0.208,0.769-0.239,1.078l-0.097,0.906l-0.076,1.049c-0.071,0.699-0.067,1.415-0.096,2.114
						c-0.016,1.404,0.013,2.774,0.078,4.089c0.08,0.628,0.096,1.307,0.22,1.871c0.056,0.287,0.111,0.571,0.166,0.854
						c0.058,0.259,0.079,0.334,0.117,0.544c0.032,0.205,0.078,0.456,0.091,0.619c0.151,1.434,0.147,2.666,0.154,3.878
						c0.009,2.399,0.024,4.569,0.352,6.447c0.302,1.868,0.939,3.456,1.898,4.4c0.939,0.981,2.07,1.218,2.784,1.27
						c0.366,0.038,0.649,0.01,0.84,0l0.313-0.017L170.658,112.798z M170.643,113.098c-0.034,0.003-0.126,0.01-0.284,0.022
						c-0.199,0.015-0.494,0.05-0.883,0.02c-0.755-0.039-1.979-0.21-3.145-1.176c-0.569-0.479-1.106-1.117-1.581-1.872
						c-0.466-0.762-0.875-1.638-1.232-2.597c-0.699-1.922-1.21-4.176-1.574-6.596c-0.197-1.197-0.322-2.486-0.538-3.635
						c-0.027-0.16-0.056-0.229-0.079-0.348c-0.029-0.111-0.106-0.353-0.115-0.418c-0.088-0.365-0.177-0.733-0.267-1.103
						c-0.184-0.748-0.226-1.444-0.345-2.186c-0.054-0.722-0.109-1.454-0.164-2.196c-0.005-0.737-0.025-1.483-0.001-2.237
						c0.035-0.755,0.037-1.512,0.118-2.292c0.033-0.394,0.06-0.766,0.116-1.181c0.075-0.441,0.15-0.884,0.225-1.329
						c0.082-0.437,0.202-0.749,0.302-1.131c-0.038,0.111,0.064-0.192,0.053-0.161l0-0.009l0.002-0.017l0.01-0.032
						c0.012-0.006,0.022-0.058,0.029-0.128l0.029-0.187l0.021-0.26c0.053-0.711,0.107-1.777,0.592-2.779
						c0.477-1.02,1.312-1.761,2.122-2.27c0.414-0.25,0.831-0.481,1.251-0.632l0.63-0.256l0.629-0.179
						c0.842-0.266,1.669-0.384,2.507-0.534c0.835-0.078,1.71-0.205,2.494-0.218l1.208-0.039c0.452-0.023,0.839,0.005,1.261,0.005
						l1.239,0.022l1.247,0.095c1.653,0.167,3.34,0.376,4.929,1.113c0.795,0.333,1.56,0.902,2.07,1.669
						c0.523,0.771,0.675,1.725,0.64,2.553c0.034,3.123,0.317,6.279,0.674,9.268c0.384,2.982,0.797,5.944,1.222,8.407
						c0.089,0.335,0.16,0.671,0.235,1.005l0.056,0.25l0.007,0.031c0.034,0.116-0.039-0.125-0.026-0.083l0.024,0.088l0.046,0.176
						c0.051,0.231,0.137,0.482,0.141,0.696c0.122,0.917-0.023,1.685-0.18,2.425c-0.358,1.445-0.961,2.659-1.607,3.76
						c-1.327,2.187-2.787,3.935-4.494,5.28c-1.939,1.196-3.745,1.173-5.158,1.307C172.367,113.286,170.779,113.113,170.643,113.098z
						"/>
				</g>
				<g>
					<path d="M130.805,179.164c0,0-0.114-0.052-0.326-0.149c-0.207-0.108-0.509-0.276-0.85-0.522
						c-0.698-0.483-1.597-1.277-2.449-2.408c-0.403-0.577-0.867-1.196-1.167-1.954c-0.34-0.737-0.483-1.617-0.633-2.5
						c-0.173-0.874-0.285-1.782-0.645-2.612c-0.236-0.873-0.693-1.698-1.066-2.575c-0.367-0.876-0.807-1.77-0.923-2.713
						c-0.083-0.469-0.166-0.934-0.247-1.394c-0.047-0.465-0.052-0.928-0.074-1.385c-0.02-0.457-0.032-0.909-0.005-1.348
						c0.062-0.437,0.142-0.862,0.227-1.274c0.092-0.41,0.181-0.808,0.287-1.187c0.122-0.375,0.293-0.723,0.428-1.061
						c0.319-0.663,0.578-1.272,0.903-1.766c0.344-0.487,0.674-0.889,0.95-1.211c0.548-0.646,0.919-0.959,0.919-0.959l0.266,0.139
						c0,0,0.005,0.513-0.086,1.315c-0.044,0.402-0.103,0.878-0.204,1.4c-0.049,0.529-0.103,1.125-0.163,1.776
						c-0.04,0.316-0.11,0.637-0.13,0.978c-0.003,0.344-0.029,0.693-0.054,1.051c-0.031,0.357-0.072,0.721-0.133,1.09
						c-0.028,0.374-0.039,0.757-0.09,1.147c-0.044,0.392-0.088,0.791-0.133,1.195c-0.007,0.409-0.014,0.824-0.022,1.242
						c-0.037,0.863-0.074,1.74-0.112,2.617c-0.057,0.904,0.107,1.79,0.322,2.637c0.292,0.826,0.689,1.602,1.247,2.259
						c0.535,0.669,1.077,1.277,1.496,1.898c0.395,0.633,0.721,1.256,1.008,1.846c0.29,0.587,0.547,1.136,0.759,1.639
						c0.219,0.497,0.384,0.958,0.527,1.335c0.277,0.76,0.399,1.253,0.399,1.253L130.805,179.164z"/>
				</g>
				<g>
					<path d="M122.392,184.029c0,0-0.192,0.465-0.628,1.146c-0.432,0.686-1.092,1.604-1.996,2.569
						c-0.457,0.478-0.946,0.998-1.547,1.458c-0.597,0.464-1.338,0.836-2.085,1.252c-0.747,0.414-1.466,0.907-2.054,1.548
						c-0.603,0.626-1.108,1.366-1.544,2.158c-0.445,0.783-0.856,1.585-1.347,2.286c-0.47,0.71-0.933,1.408-1.381,2.085
						c-0.855,1.361-1.807,2.481-2.57,3.486c-0.391,0.494-0.73,0.96-1.047,1.373c-0.288,0.421-0.578,0.789-0.778,1.11
						c-0.224,0.318-0.378,0.582-0.491,0.767c-0.121,0.187-0.186,0.287-0.186,0.287l-0.298-0.034c0,0-0.028-0.119-0.079-0.342
						c-0.046-0.225-0.113-0.567-0.109-0.993c-0.022-0.436,0.023-0.952,0.12-1.541c0.097-0.587,0.283-1.223,0.517-1.905
						c0.266-0.66,0.57-1.372,0.973-2.07c0.403-0.694,0.89-1.385,1.468-2.028c0.569-0.651,1.188-1.291,1.838-1.911
						c0.632-0.638,1.408-1.159,2.162-1.683c0.763-0.518,1.488-1.057,2.106-1.681c0.64-0.602,1.142-1.321,1.594-2.061
						c0.452-0.739,0.88-1.472,1.406-2.04c0.518-0.577,1.102-1.02,1.64-1.428c1.086-0.805,2.116-1.325,2.875-1.637
						c0.755-0.316,1.256-0.406,1.256-0.406L122.392,184.029z"/>
				</g>
				<g>
					<path d="M139.233,120.394c0,0,0.115-0.329,0.398-0.739c0.075-0.109,0.132-0.219,0.259-0.322
						c0.134-0.105,0.292-0.215,0.478-0.317c0.184-0.1,0.394-0.211,0.62-0.293c0.204-0.057,0.426-0.097,0.66-0.136
						c0.48-0.091,0.97-0.049,1.469,0.1c0.49,0.159,0.91,0.555,1.307,0.923c0.38,0.401,0.78,0.72,1.231,0.937
						c0.456,0.217,0.963,0.346,1.514,0.43c0.548,0.09,1.093,0.19,1.564,0.4c0.457,0.211,0.924,0.418,1.337,0.637
						c0.85,0.435,1.445,1.048,1.931,1.599c0.234,0.294,0.445,0.526,0.622,0.794c0.179,0.228,0.328,0.451,0.46,0.654
						c0.283,0.397,0.445,0.624,0.445,0.624l-0.063,0.293c0,0-0.283,0.14-0.852,0.193c-0.257,0.009-0.588,0.009-0.946-0.044
						c-0.339-0.049-0.728-0.146-1.117-0.264c-0.767-0.261-1.597-0.649-2.273-1.286c-0.348-0.321-0.681-0.651-1.03-0.996
						c-0.351-0.322-0.627-0.786-0.935-1.203c-0.301-0.43-0.648-0.81-1.072-1.025c-0.404-0.264-0.908-0.285-1.384-0.253
						c-0.481,0.067-0.922,0.169-1.268,0.166c-0.346,0.026-0.65-0.116-0.921-0.132c-0.138-0.032-0.274-0.064-0.41-0.114
						c-0.107-0.016-0.209-0.045-0.321-0.078c-0.11-0.033-0.228-0.079-0.349-0.123c-0.125-0.034-0.271-0.003-0.396-0.026
						c-0.497-0.024-0.828-0.132-0.828-0.132L139.233,120.394z"/>
				</g>
				<path fill="#B28474" d="M29.744,94.133c0,0-6.571,2.601-5.202-3.833c1.369-6.434,7.119-18.07,13.005-10.952
					c2.855,3.486,3.149,3.696,1.917,5.886C37.547,90.437,29.744,94.133,29.744,94.133z"/>
				<path fill="#B28474" d="M12.903,93.572c0,0,4.4,5.073,10.963,0.103c6.562-4.97,3.671,0,3.671,0l-6.118,4.975
					C21.419,98.65,15.945,99.03,12.903,93.572z"/>
				<g>
					<path d="M92.84,109.59c1.586-0.084,3.165-0.172,4.734-0.292c1.57-0.106,3.131-0.258,4.685-0.414
						c1.552-0.18,3.098-0.357,4.629-0.604c1.529-0.257,3.053-0.503,4.549-0.861c1.498-0.345,2.974-0.738,4.433-1.176
						c1.455-0.448,2.89-0.95,4.277-1.571c1.381-0.626,2.725-1.365,3.915-2.318c1.206-0.932,2.243-2.087,3.046-3.39l0.124-0.201
						l0.227-0.03l1.159-0.155c0.386-0.059,0.757-0.172,1.136-0.255c0.383-0.072,0.738-0.223,1.1-0.347
						c0.364-0.123,0.699-0.296,1.04-0.455c0.312-0.2,0.648-0.368,0.917-0.601c0.285-0.216,0.528-0.467,0.722-0.723
						c0.211-0.25,0.324-0.532,0.41-0.786c0.028-0.131,0.05-0.255,0.051-0.371c-0.003-0.056-0.006-0.113-0.013-0.159
						c-0.006-0.031-0.028-0.128-0.024-0.048l1.678,0.593c-0.668,0.618-1.324,1.147-2.011,1.682
						c-0.678,0.538-1.387,1.028-2.098,1.515c-1.427,0.968-2.903,1.861-4.411,2.704c-0.756,0.417-1.521,0.818-2.297,1.2
						c-0.775,0.383-1.553,0.765-2.355,1.09c-1.595,0.672-3.218,1.295-4.893,1.755c-1.666,0.485-3.356,0.901-5.076,1.16
						c-0.854,0.152-1.719,0.256-2.581,0.345c-0.867,0.068-1.73,0.143-2.598,0.161c-0.865,0.042-1.735-0.003-2.597-0.016
						c-0.864-0.053-1.726-0.103-2.582-0.223c-0.857-0.088-1.705-0.256-2.545-0.432c-0.843-0.145-1.669-0.403-2.489-0.628
						l0.049-0.296c0.853-0.022,1.688,0.038,2.529,0.002l1.253-0.033c0.418-0.033,0.834-0.061,1.248-0.08
						c0.829-0.026,1.654-0.155,2.475-0.214c0.82-0.109,1.638-0.198,2.449-0.347c0.814-0.112,1.62-0.281,2.423-0.44
						c0.799-0.193,1.604-0.336,2.395-0.555c0.796-0.192,1.58-0.432,2.366-0.655c0.784-0.236,1.57-0.462,2.341-0.738l2.314-0.823
						c0.767-0.288,1.535-0.574,2.291-0.892c1.517-0.622,3.033-1.261,4.512-1.985c1.487-0.707,2.942-1.487,4.375-2.306
						c0.72-0.404,1.421-0.839,2.13-1.26c0.699-0.424,1.414-0.878,2.066-1.309l1.492-0.987l0.187,1.58
						c0.056,0.472-0.014,0.672-0.071,0.979c-0.071,0.276-0.178,0.527-0.298,0.766c-0.263,0.456-0.581,0.857-0.948,1.156
						c-0.357,0.312-0.742,0.563-1.135,0.757c-0.381,0.228-0.788,0.36-1.179,0.526c-0.405,0.111-0.791,0.282-1.195,0.368
						c-0.402,0.089-0.797,0.212-1.196,0.285c-0.4,0.074-0.796,0.178-1.198,0.226l-1.195,0.212l0.351-0.232
						c-0.816,1.415-1.803,2.738-2.959,3.913c-1.155,1.174-2.447,2.224-3.843,3.113c-1.394,0.889-2.879,1.636-4.417,2.212
						c-1.532,0.596-3.118,1.02-4.713,1.345c-1.599,0.305-3.2,0.569-4.812,0.694c-1.61,0.139-3.22,0.216-4.828,0.194
						c-1.607-0.001-3.211-0.104-4.805-0.258c-1.594-0.175-3.18-0.391-4.744-0.769L92.84,109.59z"/>
				</g>
				<g>
					<path d="M47.19,92.872c0,0,0.066,0.088,0.188,0.252c0.113,0.171,0.27,0.429,0.42,0.76c0.314,0.665,0.633,1.652,0.728,2.864
						c0.03,0.603,0.073,1.266-0.079,1.949c-0.11,0.687-0.473,1.378-0.809,2.07c-0.343,0.693-0.691,1.387-0.85,2.14
						c-0.257,0.727-0.289,1.54-0.447,2.344l-0.21,1.231c-0.096,0.403-0.246,0.787-0.405,1.162c-0.166,0.372-0.318,0.753-0.507,1.108
						c-0.209,0.346-0.415,0.687-0.618,1.023c-0.393,0.689-0.925,1.241-1.465,1.723c-0.27,0.24-0.53,0.475-0.797,0.681
						c-0.287,0.184-0.571,0.351-0.843,0.508c-0.562,0.29-1.042,0.591-1.533,0.744c-0.487,0.158-0.924,0.261-1.282,0.337
						c-0.715,0.154-1.14,0.164-1.14,0.164l-0.139-0.266c0,0,0.23-0.388,0.661-0.933c0.215-0.274,0.474-0.595,0.784-0.923
						c0.297-0.348,0.593-0.772,0.94-1.185c0.175-0.204,0.358-0.413,0.553-0.619c0.172-0.227,0.35-0.462,0.532-0.704
						c0.376-0.467,0.826-0.902,1.233-1.415c0.216-0.246,0.446-0.49,0.683-0.739c0.226-0.256,0.411-0.548,0.63-0.825
						c0.464-0.563,0.936-1.134,1.408-1.706c0.525-0.576,0.833-1.272,1.091-1.963c0.212-0.708,0.25-1.454,0.152-2.176
						c-0.102-0.726-0.224-1.405-0.244-2.035c0.004-0.626,0.078-1.21,0.152-1.756c0.081-0.545,0.16-1.049,0.262-1.501
						c0.089-0.451,0.205-0.854,0.294-1.188c0.188-0.668,0.361-1.081,0.361-1.081L47.19,92.872z"/>
				</g>
				<g>
					<path fill="#E0AC97" d="M31.448,93.435c0,0-5.966,2.361-4.723-3.48c1.243-5.841,6.463-16.405,11.807-9.943
						c2.592,3.164,2.858,3.356,1.74,5.344C38.532,90.08,31.448,93.435,31.448,93.435z"/>
					<path d="M31.484,93.529c-0.672,0.242-1.355,0.434-2.075,0.545c-0.71,0.091-1.511,0.133-2.278-0.304
						c-0.785-0.448-1.161-1.372-1.266-2.164c-0.056-0.404-0.077-0.815-0.029-1.192c0.018-0.386,0.067-0.793,0.138-1.121
						c0.303-1.45,0.804-2.809,1.496-4.088c0.682-1.28,1.495-2.478,2.332-3.641c0.41-0.588,0.855-1.151,1.323-1.701
						c0.479-0.541,0.989-1.066,1.596-1.513c0.597-0.454,1.327-0.815,2.154-0.917c0.824-0.111,1.7,0.083,2.421,0.465
						c0.726,0.382,1.334,0.905,1.855,1.47c0.496,0.549,0.934,1.046,1.414,1.617c0.444,0.568,1.007,1.106,1.307,2.202
						c0.029,0.14,0.063,0.281,0.076,0.422l-0.03,0.427c-0.023,0.309-0.103,0.529-0.187,0.738c-0.16,0.476-0.349,0.741-0.526,1.107
						l0.071-0.154c-0.117,0.266-0.226,0.535-0.355,0.795c-0.115,0.27-0.29,0.491-0.433,0.738c-0.145,0.245-0.304,0.477-0.48,0.691
						c-0.174,0.216-0.331,0.449-0.519,0.648c-0.381,0.395-0.755,0.791-1.178,1.125c-0.412,0.348-0.848,0.655-1.298,0.938
						c-0.89,0.578-1.832,1.043-2.756,1.506l-1.385,0.683c-0.461,0.224-0.908,0.468-1.38,0.676l-0.006,0.003L31.484,93.529z
						 M31.409,93.343c0.442-0.237,0.888-0.479,1.307-0.762c0.42-0.285,0.836-0.574,1.22-0.907c0.396-0.314,0.763-0.668,1.126-1.016
						c0.362-0.351,0.708-0.712,1.039-1.083c0.174-0.177,0.318-0.381,0.485-0.56c0.165-0.181,0.327-0.363,0.473-0.556
						c0.311-0.372,0.609-0.74,0.884-1.123c0.15-0.182,0.265-0.381,0.4-0.569c0.139-0.187,0.255-0.383,0.357-0.583
						c0.099-0.2,0.238-0.389,0.305-0.596c0.077-0.205,0.174-0.4,0.264-0.6l0.051-0.113l0.02-0.041
						c0.131-0.265,0.338-0.591,0.389-0.788c0.053-0.116,0.093-0.226,0.08-0.274c0.007-0.032,0.018-0.063,0.033-0.097l-0.021-0.095
						c-0.021-0.276-0.386-0.873-0.788-1.407c-0.385-0.537-0.842-1.124-1.246-1.654c-0.387-0.506-0.814-0.957-1.282-1.317
						c-0.469-0.358-0.996-0.599-1.579-0.634c-0.582-0.038-1.202,0.139-1.781,0.444c-1.154,0.644-2.081,1.742-2.773,2.923
						c-0.695,1.195-1.143,2.523-1.544,3.835c-0.195,0.659-0.397,1.313-0.578,1.969c-0.203,0.651-0.376,1.306-0.561,1.944
						c-0.104,0.354-0.171,0.64-0.248,0.95c-0.098,0.315-0.118,0.606-0.164,0.906c-0.045,0.581-0.016,1.151,0.367,1.552
						c0.373,0.414,1.066,0.61,1.739,0.612C30.065,93.714,30.763,93.584,31.409,93.343z"/>
				</g>
				<path fill="#B28474" d="M100.611,45.711c0,0,25.484,4.628,20.71,21.532c5.949,3.386,4.773,19.129,4.364,23.83
					c0,0,6.214-3.356,3.415-21.252C126.799,55.118,115.214,40.274,100.611,45.711z"/>
				<path fill="#B28474" d="M36.976,90.472c0,0,9.851,9.327,3.576,13.978c-0.741,0.458,8.669-3.868,6.609-10.588
					c-2.563-8.361-5.468-10.802-5.468-10.802S40.785,87.998,36.976,90.472z"/>
				<path fill="#B28474" d="M176.659,76.719c-0.739,0.231,2.891,5.693,3.865,17.202c0.402,4.748-1.354,10.534-1.361,17.391
					c0,0.306,6.006-5.765,6.076-10.205c0.07-4.441-0.915-6.554-0.915-6.554s-0.363-9.341-0.621-14.007
					C183.444,75.88,177.703,76.393,176.659,76.719z"/>
				<path fill="#7C4431" d="M172.019,58.155c0,0-3.985,19.869,3.068,16.995c2.307-0.94,3.348,0.034,3.348,0.034l0.967-16.3
					C179.401,58.884,178.713,54.895,172.019,58.155z"/>
				<path fill="#7C4431" d="M177.419,112.837c0,0,5.804,7.517,1.97,9.09c0,0,9.193-0.151,2.214-11.5
					C181.603,110.427,180.38,111.825,177.419,112.837z"/>
				<path fill="#7C4431" d="M34.988,70.678c0,0,8.558-11.043,11.11-8.499c2.551,2.544,2.764,4.847,1.359,4.909
					c-1.405,0.062-9.64,4.77-9.986,5.779C37.125,73.876,34.988,70.678,34.988,70.678z"/>
				<path fill="#7C4431" d="M14.607,98.302c0,0-7.023,8.771-7.949,9.002c-0.093,0.023,2.901,2.014,3.986,1.542
					c1.355-0.589,5.734-5.566,6.278-9.022C16.208,99.296,14.933,98.585,14.607,98.302z"/>
				
					<ellipse transform="matrix(0.9294 -0.369 0.369 0.9294 -25.6017 44.9072)" fill="#B75E5E" stroke="#B75E5E" stroke-miterlimit="10" cx="104.612" cy="89.391" rx="13.303" ry="7.915"/>
				<path fill="#FF8383" stroke="#FF8383" stroke-miterlimit="10" d="M95.52,97.389c0,0,1.774-12.979,21.671-9.895
					C116.332,94.802,102.04,100.612,95.52,97.389z"/>
			</g>
		</g>
	</g>
	<g>
		<path fill="#F0A53C" d="M64.085,40.236c0,0-11.194,33.884,86.14,4.327c0,0-2.154-5.441-8.396-4.835S62.225,51.34,67.84,33.104
			L64.085,40.236z"/>
		<path d="M64.179,40.271c-0.525,1.932-0.485,4.026,0.091,5.94c0.617,1.906,1.773,3.624,3.318,4.883
			c1.533,1.278,3.347,2.159,5.208,2.855c1.901,0.61,3.841,1.098,5.832,1.338l1.486,0.201c0.497,0.057,1,0.074,1.499,0.113
			c1.001,0.062,1.995,0.164,3.002,0.16c2.005,0.076,4.014,0.02,6.024-0.023c1.005-0.016,2.009-0.123,3.015-0.168
			c1.005-0.058,2.011-0.092,3.015-0.205c2.007-0.204,4.021-0.331,6.024-0.608l3.013-0.343c1.004-0.124,2.003-0.282,3.005-0.421
			l3.006-0.432l2.996-0.51c1.997-0.345,3.999-0.673,5.983-1.092c1.985-0.415,3.978-0.798,5.952-1.27l5.911-1.455l5.866-1.63
			l2.931-0.822l2.906-0.908l5.807-1.827l-0.345,0.716c-0.735-1.537-2.057-2.902-3.588-3.639c-0.768-0.387-1.617-0.57-2.467-0.658
			c-0.43-0.031-0.858-0.049-1.293-0.005c-0.421,0.01-0.888,0.074-1.345,0.136c-3.712,0.507-7.443,1.064-11.179,1.509
			c-7.474,0.896-14.968,1.723-22.501,2.139c-3.765,0.228-7.54,0.331-11.32,0.338c-3.778,0.007-7.567-0.128-11.342-0.535
			c-1.888-0.195-3.77-0.477-5.638-0.853c-1.865-0.384-3.725-0.842-5.518-1.54c-1.775-0.694-3.575-1.575-4.883-3.078
			c-0.645-0.744-1.114-1.668-1.256-2.647c-0.153-0.977-0.015-1.964,0.274-2.878l0.336,0.139
			C66.698,35.534,65.45,37.909,64.179,40.271z M63.996,40.189c1.231-2.388,2.485-4.765,3.682-7.17l0.336,0.139
			c-0.241,0.884-0.343,1.81-0.156,2.686c0.183,0.875,0.645,1.664,1.266,2.3c1.255,1.285,2.994,2.026,4.73,2.584
			c1.753,0.556,3.585,0.881,5.42,1.135c1.838,0.248,3.694,0.389,5.551,0.503c3.718,0.205,7.452,0.229,11.188,0.179
			c3.737-0.047,7.475-0.241,11.214-0.433c7.475-0.45,14.953-1.032,22.414-1.837l11.205-1.215c0.475-0.05,0.942-0.102,1.461-0.105
			c0.505-0.036,1.013,0.009,1.52,0.068c1.006,0.147,2.013,0.419,2.91,0.919c1.805,0.994,3.181,2.538,3.99,4.423l0.24,0.558
			l-0.585,0.157c-3.928,1.057-7.838,2.17-11.772,3.198l-5.897,1.55l-5.912,1.495c-1.965,0.523-3.953,0.954-5.925,1.452
			c-1.969,0.515-3.959,0.94-5.947,1.381l-2.985,0.654l-3.003,0.573c-1.999,0.402-4.011,0.745-6.033,1.03
			c-2.015,0.326-4.051,0.529-6.086,0.728c-2.035,0.198-4.085,0.293-6.132,0.353l-3.078,0.007c-1.026-0.01-2.053-0.109-3.079-0.159
			c-1.026-0.036-2.05-0.177-3.07-0.313c-0.51-0.072-1.021-0.122-1.529-0.211l-1.519-0.301c-2.027-0.371-4.01-1.003-5.934-1.749
			c-1.892-0.836-3.723-1.864-5.238-3.287c-1.507-1.417-2.678-3.207-3.234-5.194c-0.544-1.981-0.584-4.101-0.019-6.083l0.002-0.008
			L63.996,40.189z"/>
	</g>
	<path opacity="0.5" fill="#C18134" d="M64.085,40.236c0,0-12.11,33.51,85.223,3.953c0,0-5.238,1.933-11.479,2.539
		S59.225,58.34,64.84,40.104L64.085,40.236z"/>
	<g opacity="0.4">
		<path fill="#1E1E1E" d="M145.431,39.989c-10.828,4.073-22.179,6.042-33.567,7.837c-0.933,0.147-1.929-0.129-2.898-0.191
			c-0.619-0.04-1.249-0.114-1.858-0.036c-0.249,0.032-0.496,0.645-0.674,0.619c-1.848-0.269-3.676-0.641-5.519-0.935
			c-11.448,1.228-29.213-4.547-31.024-4.939c-2.659-0.576-1.593-0.342-2.659-0.576c5.025,4.821,11.691,7.082,24.513,7.916
			c-5.293-1.359-10.843-1.946-15.876-4.085l1.656-0.144c10.692,2.982,21.646,4.11,32.843,3.487c1.167-0.065,2.353-0.125,3.489-0.373
			c1.119-0.244,2.169-0.976,3.277-1.061c10.015-0.772,19.661-3.065,28.944-6.805c0.296-0.119,0.587-0.25,0.881-0.372
			C146.451,40.211,145.942,40.096,145.431,39.989z"/>
		<path fill="#1E1E1E" d="M146.73,42.074c-14.962,6.279-30.663,10.068-47.232,8.479c8.046-0.223,16.119-0.349,24.035-1.975
			C131.5,46.942,139.178,43.803,146.73,42.074z"/>
	</g>
</g>
</svg>
