<?xml version="1.0" encoding="utf-8"?>
<!-- Generator: Adobe Illustrator 17.0.0, SVG Export Plug-In . SVG Version: 6.00 Build 0)  -->
<!DOCTYPE svg PUBLIC "-//W3C//DTD SVG 1.1//EN" "http://www.w3.org/Graphics/SVG/1.1/DTD/svg11.dtd">
<svg version="1.1" id="Layer_1" xmlns="http://www.w3.org/2000/svg" xmlns:xlink="http://www.w3.org/1999/xlink" x="0px" y="0px"
	 width="514.299px" height="81.855px" viewBox="0 0 514.299 81.855" enable-background="new 0 0 514.299 81.855"
	 xml:space="preserve">
<g>
	<path fill="#FFFFFF" d="M33.967,42.28c-0.819,11.143-1.192,23.188-1.117,36.134c-0.67-3.333-1.341-6.773-2.011-10.324
		c-5.922-9.722-10.541-18.026-13.855-24.909c-2.011-4.314-3.389-7.292-4.134-8.931c-0.411,4.043-0.634,6.201-0.67,6.473
		c-1.118,9.888-2.831,20.976-5.14,33.267c-0.298-12.508-0.894-23.652-1.788-33.43C3.911,25.974,2.161,16.252,0,11.389l12.905-7.62
		c0.224,1.585,0.409,3.196,0.559,4.834l5.587-0.082c-0.112,0.983-0.168,2.077-0.168,3.277c0,5.736,1.415,14.585,4.246,26.548
		c1.75,7.429,4.059,15.814,6.927,25.155c-1.49-8.686-2.514-15.65-3.073-20.894c-1.155-11.033-1.731-18.928-1.731-23.68
		c0-5.408,0.409-10.76,1.229-16.06l12.905,7.539C36.89,16.36,35.084,26.985,33.967,42.28z"/>
	<path fill="#FFFFFF" d="M61.173,53.259L55.14,74.727c-4.544-7.702-9.647-12.454-15.308-14.257c2.979-2.95,6.573-4.998,10.782-6.146
		c-0.746-11.471-1.844-20.948-3.296-28.432c-1.229,0.164-2.478,0.246-3.743,0.246c-2.048,0-4.115-0.218-6.201-0.656l6.034-21.467
		c2.197,2.896,5.567,5.299,10.112,7.21l6.257-2.294v4.343c3.426,0.875,7.151,1.53,11.173,1.966
		c-6.48,3.879-10.335,6.119-11.564,6.719c-0.67,9.124-2.384,19.638-5.14,31.546C56.518,53.177,58.827,53.095,61.173,53.259z"/>
	<path fill="#FFFFFF" d="M95.419,42.28c-0.819,11.143-1.192,23.188-1.117,36.134c-0.67-3.333-1.341-6.773-2.011-10.324
		c-5.922-9.722-10.541-18.026-13.855-24.909c-2.011-4.314-3.389-7.292-4.134-8.931c-0.411,4.043-0.634,6.201-0.67,6.473
		c-1.118,9.888-2.831,20.976-5.14,33.267c-0.298-12.508-0.894-23.652-1.788-33.43c-1.341-14.585-3.091-24.307-5.251-29.17
		l12.905-7.62c0.224,1.585,0.409,3.196,0.559,4.834l5.587-0.082c-0.112,0.983-0.168,2.077-0.168,3.277
		c0,5.736,1.415,14.585,4.246,26.548c1.75,7.429,4.059,15.814,6.927,25.155c-1.49-8.686-2.514-15.65-3.073-20.894
		c-1.155-11.033-1.731-18.928-1.731-23.68c0-5.408,0.409-10.76,1.229-16.06l12.905,7.539C98.342,16.36,96.537,26.985,95.419,42.28z"
		/>
	<path fill="#FFFFFF" d="M125.586,49.162c-1.081,1.311-2.086,2.759-3.017,4.343l-0.838,7.866l-0.838-4.752
		c-2.831,6.01-4.246,12.018-4.246,18.026l-7.151-5.736c-0.559,1.966-1.173,3.879-1.844,5.736c-0.335-2.84-0.838-5.625-1.508-8.358
		l-3.464-2.786c0.522-0.765,1.136-1.611,1.844-2.54c-2.197-6.172-4.823-10.242-7.877-12.209l13.408-14.257
		c1.341,5.299,2.011,10.625,2.011,15.978c0,1.094,0,2.186,0,3.278c2.459-1.748,4.991-3.004,7.598-3.77
		c-3.24-17.207-6.891-29.77-10.95-37.691l14.414-9.505c0.968,6.883,1.453,13.93,1.453,21.14c0,6.993-0.522,15.459-1.564,25.4
		C123.947,49.217,124.805,49.162,125.586,49.162z"/>
	<path fill="#FFFFFF" d="M157.486,52.276c1.601,6.337,3.24,10.897,4.917,13.684l-12.067,10.16
		c-1.602-6.445-2.514-13.383-2.737-20.812c-3.352,0.875-6.536,1.393-9.553,1.557c-1.713,6.938-3.539,13.712-5.475,20.321
		c0.483-6.664,0.875-13.438,1.173-20.321c-2.868-0.109-5.698-0.519-8.492-1.229l5.251-18.927c1.042,1.038,2.235,2.048,3.576,3.032
		c0-11.197-0.466-19.337-1.397-24.417c-2.681-0.273-5.679-0.463-8.994-0.574c7.746-4.042,12.998-6.608,15.754-7.702
		c6.07-2.403,11.899-3.605,17.486-3.605c1.415,0,2.83,0.082,4.246,0.246l-3.911,19.583c-1.676-1.311-3.631-2.485-5.866-3.523
		c1.639,11.198,3.408,20.894,5.308,29.087c2.011,0.438,4.208,0.875,6.592,1.311L157.486,52.276z M148.492,18.6
		c-1.006-0.381-2.067-0.737-3.185-1.065c-0.261,3.933-0.82,8.357-1.676,13.274c-0.299,1.749-1.155,6.063-2.57,12.946
		c2.011,0.93,4.17,1.776,6.48,2.54V39.33C147.616,34.305,147.933,27.395,148.492,18.6z"/>
	<path fill="#FFFFFF" d="M196.48,40.723c-0.261,12.619-3.669,23.544-10.224,32.775l-0.503,8.358
		c-4.171-2.732-7.729-6.31-10.67-10.734c0.186,2.021,0.503,3.987,0.95,5.899c-3.39-2.186-6.406-5.872-9.05-11.062
		c-2.346-4.534-4.134-9.695-5.363-15.486l16.537,0.574c-1.192,3.005-2.067,6.146-2.626,9.423c0.819,0.11,1.639,0.164,2.458,0.164
		c2.085,0,4.19-0.437,6.313-1.311c-0.187-1.693-0.466-3.305-0.838-4.834c-1.899-4.752-3.501-7.674-4.804-8.767
		c-0.596-0.492-1.602-0.955-3.017-1.393c0.224,1.53,0.484,2.978,0.782,4.343c-1.378-1.693-2.663-3.414-3.855-5.162
		c-3.539-0.819-5.866-1.475-6.983-1.967c1.154-0.545,2.588-1.419,4.302-2.622c-4.283-7.975-6.425-16.06-6.425-24.253
		c0-2.403,0.187-4.834,0.559-7.292l1.564,1.065l-0.95-1.721c4.096-2.676,8.342-4.015,12.737-4.015c3.873,0,7.802,1.065,11.788,3.195
		l5.363-2.95c0.148,6.01-0.354,11.69-1.508,17.043c-1.304,6.063-3.278,10.953-5.922,14.667c1.713,0.71,3.296,1.557,4.749,2.54
		c1.825,1.257,3.203,2.212,4.134,2.868l-0.726,1.147L196.48,40.723z M181.341,33.43c1.788,0,3.631,0.383,5.531,1.147
		c-0.038-7.483-1.9-14.12-5.587-19.911c-0.782,0.874-1.546,1.802-2.291,2.786h0.056c-0.67,0.492-1.602,2.077-2.793,4.752
		c-1.006,3.388-1.453,7.839-1.341,13.355c1.453-0.819,2.886-1.475,4.302-1.966C179.925,33.485,180.633,33.43,181.341,33.43z"/>
	<path fill="#FFFFFF" d="M239.719,53.259l-6.033,21.467c-4.544-7.702-9.647-12.454-15.308-14.257
		c2.979-2.95,6.573-4.998,10.782-6.146c-0.746-11.471-1.844-20.948-3.296-28.432c-1.229,0.164-2.478,0.246-3.743,0.246
		c-2.048,0-4.115-0.218-6.201-0.656l6.034-21.467c2.197,2.896,5.567,5.299,10.112,7.21l6.257-2.294v4.343
		c3.426,0.875,7.151,1.53,11.173,1.966c-6.48,3.879-10.335,6.119-11.564,6.719c-0.67,9.124-2.384,19.638-5.14,31.546
		C235.063,53.177,237.373,53.095,239.719,53.259z"/>
	<path fill="#FFFFFF" d="M273.965,42.28c-0.819,11.143-1.192,23.188-1.117,36.134c-0.671-3.333-1.341-6.773-2.012-10.324
		c-5.922-9.722-10.54-18.026-13.854-24.909c-2.012-4.314-3.39-7.292-4.134-8.931c-0.411,4.043-0.634,6.201-0.67,6.473
		c-1.118,9.888-2.831,20.976-5.14,33.267c-0.298-12.508-0.894-23.652-1.788-33.43c-1.341-14.585-3.091-24.307-5.251-29.17
		l12.905-7.62c0.224,1.585,0.409,3.196,0.559,4.834l5.587-0.082c-0.112,0.983-0.168,2.077-0.168,3.277
		c0,5.736,1.415,14.585,4.246,26.548c1.75,7.429,4.059,15.814,6.927,25.155c-1.489-8.686-2.514-15.65-3.072-20.894
		c-1.155-11.033-1.731-18.928-1.731-23.68c0-5.408,0.409-10.76,1.229-16.06l12.905,7.539
		C276.888,16.36,275.083,26.985,273.965,42.28z"/>
	<path fill="#FFFFFF" d="M318.601,19.009c0.037,1.311,0.057,2.622,0.057,3.933c0,13.11-2.03,31.382-6.09,54.816
		c-0.932-25.454-2.831-44.054-5.698-55.799c-1.788,0.219-3.558,0.328-5.308,0.328c-1.974,0-3.929-0.136-5.866-0.41l4.302-19.419
		c3.575,3.005,8.306,5.326,14.19,6.965l3.296-2.048c0.148,0.929,0.279,1.913,0.392,2.95c4.357,0.983,9.534,1.694,15.53,2.13
		C326.069,15.896,321.134,18.081,318.601,19.009z"/>
	<path fill="#FFFFFF" d="M358.825,41.624c-1.639,0.11-3.296,0.301-4.972,0.574c-1.192,8.304-3.428,19.802-6.704,34.496
		c0.074-3.823,0.111-7.62,0.111-11.39c0-7.483-0.131-14.749-0.391-21.795c-2.533,0.602-4.86,1.366-6.983,2.294
		c-1.64,9.505-3.539,19.091-5.698,28.76c0.074-3.878,0.111-7.702,0.111-11.471c0-4.752-0.056-9.423-0.167-14.011
		c-1.49,1.147-2.738,2.376-3.743,3.687l-6.313-21.304c3.092-0.709,6.184-0.955,9.274-0.737c-0.671-10.269-1.732-17.617-3.185-22.041
		l13.408-5.654c0.148,2.458,0.241,4.944,0.279,7.456l12.682-5.326c0.186,2.677,0.279,5.354,0.279,8.03
		c0,5.791-0.838,14.367-2.515,25.728C357.167,40.669,358.675,41.57,358.825,41.624z M346.422,34.496
		c-0.559-9.614-1.434-16.769-2.626-21.468c-0.074,5.299-0.689,11.799-1.843,19.501C343.443,33.076,344.932,33.731,346.422,34.496z"
		/>
	<path fill="#FFFFFF" d="M367.373,59.814c5.176-5.297,10.931-8.193,17.263-8.685l-3.408,23.844
		c-3.054-3.769-7.374-5.654-12.961-5.654c-1.043,0-2.086,0.055-3.128,0.164l-1.285,5.49c-0.038-1.53-0.094-3.278-0.168-5.244
		c-1.564,0.328-3.072,0.792-4.525,1.393c1.341-2.403,2.774-4.615,4.302-6.637c-0.298-5.844-0.67-11.143-1.117-15.896
		c-1.229,0.766-2.402,1.585-3.52,2.458c0.857-2.458,1.881-4.834,3.072-7.128c-1.153-10.816-2.849-19.61-5.083-26.384l9.608-3.523
		l-1.844-12.7c10.057,0.766,18.548,7.456,25.476,20.075c-3.017-1.256-6.033-1.885-9.051-1.885c-3.054,0-5.791,0.602-8.212,1.803
		c-0.149,3.06-0.354,6.173-0.614,9.341c3.575-3.003,7.411-4.943,11.508-5.817l-1.563,24.171c-2.533-2.239-5.662-3.359-9.386-3.359
		c-0.857,0-1.714,0.055-2.57,0.164C369.42,50.01,368.49,54.68,367.373,59.814z"/>
	<path fill="#FFFFFF" d="M438.21,45.885l5.642,1.065c-2.346,6.993-5.419,12.618-9.218,16.879c0.895,0.11,1.713,0.164,2.458,0.164
		c-6.556,7.538-13.538,11.307-20.949,11.307c-1.788,0-3.595-0.246-5.419-0.737l3.017-9.423c-1.081-23.434-3.427-40.203-7.039-50.31
		l11.005-4.097L416.254,0.41c8.528,0.819,15.847,6.119,21.956,15.896l5.642,1.065c-3.092,9.177-7.263,15.842-12.514,19.993
		C433.833,39.713,436.124,42.554,438.21,45.885z M429.215,56.291c0-2.622-0.242-5.271-0.727-7.948
		c-3.836,0.819-6.815,2.622-8.938,5.408l-0.949-6.719c-0.597,2.896-1.36,6.228-2.291,9.997l1.396-4.343
		c2.16,4.479,5.829,7.73,11.006,9.75C429.048,60.416,429.215,58.368,429.215,56.291z M429.215,26.711
		c0-2.622-0.242-5.271-0.727-7.948c-2.31,0.492-4.339,1.366-6.089,2.622c-0.224,3.168-0.559,6.419-1.006,9.75
		c2.458,0.819,4.785,2.048,6.983,3.687C428.936,32.201,429.215,29.498,429.215,26.711z"/>
	<path fill="#FFFFFF" d="M475.808,20.075c-0.261,12.018-2.217,27.258-5.866,45.721l2.626,8.194c-2.235,0.656-4.47,0.983-6.704,0.983
		c-4.73,0-9.367-1.503-13.911-4.507c-0.075,2.077-0.149,3.905-0.224,5.49l-1.508-6.637c-2.234-1.639-4.396-3.605-6.48-5.899
		c1.676,0.11,3.389,0.028,5.14-0.246c-2.123-9.558-3.65-17.862-4.581-24.909c-1.266-9.45-1.788-18.735-1.564-27.858l9.386,3.441
		L450.109,0c7.188,0.492,13.688,3.988,19.498,10.488l6.033-2.54c0.148,3.605,0.204,7.348,0.168,11.226
		c0.335,0.602,0.539,0.983,0.614,1.147C476.124,20.211,475.919,20.13,475.808,20.075z M467.205,57.52
		c-1.341-16.224-3.371-29.06-6.09-38.511c-1.267,0.383-2.458,0.875-3.575,1.475c-2.645,10.106-4.396,24.089-5.251,41.952
		c6.069-1.803,10.446-5.244,13.128-10.324L467.205,57.52z"/>
	<path fill="#FFFFFF" d="M499.885,44.164c3.203,10.324,6.201,21.113,8.995,32.365c-4.209-8.794-8.492-17.125-12.85-24.991
		l-12.626,24.991c3.724-14.475,6.518-25.291,8.38-32.447c-7.15-12.017-12.606-19.227-16.368-21.631l7.43-17.289
		c4.693,6.282,8.901,14.886,12.626,25.81c2.57-8.685,5.252-16.715,8.045-24.089l10.782,12.782
		C509.978,26.111,505.173,34.278,499.885,44.164z"/>
</g>
</svg>
