<?xml version="1.0" encoding="utf-8"?>
<!-- Generator: Adobe Illustrator 17.0.0, SVG Export Plug-In . SVG Version: 6.00 Build 0)  -->
<!DOCTYPE svg PUBLIC "-//W3C//DTD SVG 1.1//EN" "http://www.w3.org/Graphics/SVG/1.1/DTD/svg11.dtd">
<svg version="1.1" id="Layer_1" xmlns="http://www.w3.org/2000/svg" xmlns:xlink="http://www.w3.org/1999/xlink" x="0px" y="0px"
	 width="288.504px" height="70.271px" viewBox="0 0 288.504 70.271" enable-background="new 0 0 288.504 70.271"
	 xml:space="preserve">
<g>
	<path fill="#FFFFFF" d="M37.604,12.888c-1.571,6.241-3.731,12.049-6.48,17.425c-0.557,1.104-3.159,5.52-7.805,13.248
		c-4.025,6.721-9.557,14.784-16.593,24.191c3.796-8.736,7.314-17.543,10.554-26.424C12.96,32.641,7.2,25.199,0,19.008L8.444,6.12
		c4.974,10.704,8.279,21.456,9.916,32.256c4.68-13.681,7.085-23.208,7.216-28.584L37.604,12.888z"/>
	<path fill="#FFFFFF" d="M67.058,17.641c-0.229,10.56-1.947,23.951-5.154,40.176l2.307,7.199c-1.963,0.576-3.927,0.864-5.891,0.864
		c-4.156,0-8.231-1.321-12.224-3.96c-0.066,1.824-0.131,3.432-0.196,4.824l-1.325-5.832c-1.964-1.44-3.862-3.168-5.695-5.184
		c1.473,0.096,2.978,0.023,4.517-0.217c-1.866-8.398-3.208-15.695-4.025-21.888c-1.112-8.304-1.571-16.464-1.375-24.479l8.247,3.023
		L44.476,0c6.316,0.432,12.027,3.504,17.133,9.216l5.302-2.231c0.13,3.168,0.179,6.456,0.147,9.863
		c0.295,0.529,0.474,0.864,0.54,1.008C67.335,17.76,67.156,17.689,67.058,17.641z M59.498,50.544
		c-1.178-14.256-2.962-25.535-5.351-33.84c-1.113,0.336-2.16,0.769-3.142,1.296c-2.324,8.881-3.862,21.168-4.614,36.863
		c5.334-1.584,9.18-4.607,11.536-9.071L59.498,50.544z"/>
	<path fill="#FFFFFF" d="M94.745,56.304c0.589,0,1.178-0.023,1.767-0.071c-1.342,1.248-2.602,2.352-3.78,3.312l-0.246,5.903
		c-0.36-2.255-0.638-3.935-0.834-5.039c-5.596,4.416-11.045,6.623-16.347,6.623c-2.128,0-4.288-0.336-6.48-1.008l5.056-15.336
		c-0.426-6.143-0.834-11.016-1.227-14.615c-1.342-12.768-2.995-21.264-4.958-25.488L78.938,3.6c0.719,4.513,1.08,9.049,1.08,13.608
		c0,3.937-0.425,10.249-1.276,18.937c-0.753,6.479-1.309,10.943-1.669,13.392c3.272,3.6,7.904,5.76,13.893,6.479
		c-1.309-8.592-2.177-15.215-2.602-19.871c-0.852-9.504-1.276-15.793-1.276-18.865c0-4.559,0.36-9.119,1.08-13.68l11.242,6.984
		c-2.979,6.433-5.138,21.648-6.48,45.648C93.549,56.28,94.155,56.304,94.745,56.304z"/>
	<path fill="#FFFFFF" d="M161.507,9.651c0,4.903-0.459,10.021-1.375,15.354c-1.932,11.199-5.319,24.631-10.162,40.297
		c0.032,0.385,0.049,0.673,0.049,0.865c-0.066-0.274-0.115-0.467-0.147-0.576c-0.066,0.24-0.115,0.432-0.147,0.576
		c0.032-0.432,0.049-0.769,0.049-1.008c-2.16-9.168-4.484-17.76-6.971-25.776c-3.338,6.065-6.824,14.583-10.457,25.557
		c0.032,0.528,0.049,0.938,0.049,1.228c-0.098-0.367-0.164-0.654-0.196-0.864c-0.098,0.366-0.18,0.655-0.245,0.864l0.049-1.514
		c-2.356-9.852-4.697-18.502-7.02-25.951c-3.699-11.773-6.873-19.293-9.523-22.562l9.523-11.245
		c1.866,4.943,3.256,10.344,4.173,16.199c0.36,2.305,0.933,7.344,1.718,15.12c0.589,5.856,1.031,13.729,1.325,23.616
		c0.327-7.057,0.786-12.936,1.375-17.641c0.818-6.575,2.078-12.672,3.78-18.287c-1.506-3.504-2.929-6.096-4.271-7.776l9.523-11.231
		c1.931,5.137,3.338,10.536,4.222,16.199c1.636,10.609,2.667,24.672,3.093,42.192c0.949-11.855,1.423-22.583,1.423-32.185
		c0-9.743-0.606-16.655-1.816-20.736l11.929-3.959C161.49,7.514,161.507,8.595,161.507,9.651z"/>
	<path fill="#FFFFFF" d="M192.826,17.641c-0.229,10.56-1.947,23.951-5.154,40.176l2.307,7.199c-1.963,0.576-3.927,0.864-5.891,0.864
		c-4.156,0-8.231-1.321-12.224-3.96c-0.066,1.824-0.131,3.432-0.196,4.824l-1.325-5.832c-1.964-1.44-3.862-3.168-5.695-5.184
		c1.473,0.096,2.978,0.023,4.517-0.217c-1.866-8.398-3.208-15.695-4.025-21.888c-1.112-8.304-1.571-16.464-1.375-24.479l8.247,3.023
		L170.245,0c6.316,0.432,12.027,3.504,17.133,9.216l5.302-2.231c0.13,3.168,0.179,6.456,0.147,9.863
		c0.295,0.529,0.474,0.864,0.54,1.008C193.104,17.76,192.924,17.689,192.826,17.641z M185.266,50.544
		c-1.178-14.256-2.962-25.535-5.351-33.84c-1.113,0.336-2.16,0.769-3.142,1.296c-2.324,8.881-3.862,21.168-4.614,36.863
		c5.334-1.584,9.18-4.607,11.536-9.071L185.266,50.544z"/>
	<path fill="#FFFFFF" d="M222.33,37.152c-0.72,9.791-1.048,20.375-0.982,31.752c-0.589-2.929-1.178-5.951-1.767-9.072
		c-5.204-8.543-9.262-15.84-12.175-21.889c-1.767-3.791-2.979-6.407-3.633-7.848c-0.36,3.553-0.557,5.449-0.589,5.688
		c-0.982,8.689-2.488,18.433-4.517,29.232c-0.262-10.991-0.785-20.783-1.571-29.375c-1.178-12.816-2.716-21.359-4.615-25.633
		l11.34-6.695c0.196,1.393,0.36,2.808,0.491,4.248l4.909-0.072c-0.098,0.863-0.147,1.824-0.147,2.879
		c0,5.041,1.244,12.816,3.731,23.328c1.538,6.529,3.567,13.896,6.087,22.104c-1.309-7.632-2.209-13.752-2.7-18.36
		c-1.015-9.695-1.522-16.631-1.522-20.808c0-4.752,0.36-9.456,1.08-14.112l11.34,6.625C224.898,14.377,223.312,23.713,222.33,37.152
		z"/>
	<path fill="#FFFFFF" d="M251.243,56.951l4.369-1.871c0,3.553-0.245,8.256-0.736,14.111l-4.811,1.08
		c-2.291-6.191-3.666-9.863-4.124-11.016l5.105-2.232c-0.883-22.463-3.109-37.631-6.676-45.504l11.144-7.344
		c0.72,4.129,1.08,8.28,1.08,12.456c0,3.601-0.401,8.929-1.203,15.983C254.589,39.672,253.207,47.784,251.243,56.951z"/>
	<path fill="#FFFFFF" d="M267.198,56.951l4.37-1.871c0,3.553-0.245,8.256-0.736,14.111l-4.812,1.08
		c-2.291-6.191-3.666-9.863-4.124-11.016l5.105-2.232c-0.883-22.463-3.109-37.631-6.676-45.504l11.144-7.344
		c0.72,4.129,1.08,8.28,1.08,12.456c0,3.601-0.401,8.929-1.202,15.983C270.544,39.672,269.162,47.784,267.198,56.951z"/>
	<path fill="#FFFFFF" d="M283.152,56.951l4.369-1.871c0,3.553-0.245,8.256-0.736,14.111l-4.811,1.08
		c-2.291-6.191-3.666-9.863-4.124-11.016l5.105-2.232c-0.883-22.463-3.109-37.631-6.676-45.504l11.144-7.344
		c0.72,4.129,1.08,8.28,1.08,12.456c0,3.601-0.401,8.929-1.203,15.983C286.499,39.672,285.116,47.784,283.152,56.951z"/>
</g>
</svg>
